<svg width="18" height="18" viewBox="0 0 18 18" fill="none" xmlns="http://www.w3.org/2000/svg">
<path fill-rule="evenodd" clip-rule="evenodd" d="M13.0339 0.872213C13.3803 0.569145 13.9068 0.604243 14.2098 0.950606L17.1265 4.28394C17.4014 4.59813 17.4014 5.06726 17.1265 5.38145L14.2098 8.71478C13.9068 9.06114 13.3803 9.09624 13.0339 8.79317C12.6876 8.49011 12.6525 7.96364 12.9555 7.61727L14.6629 5.66603L11.916 5.66603C6.62328 5.66603 2.33268 9.95661 2.33268 15.2493L2.33268 16.4994C2.33268 16.9596 1.95959 17.3327 1.49935 17.3327C1.03911 17.3327 0.666016 16.9596 0.666016 16.4994L0.666016 15.2493C0.666016 9.03613 5.70282 3.99936 11.916 3.99936L14.6629 3.99936L12.9555 2.04811C12.6525 1.70175 12.6876 1.17528 13.0339 0.872213Z" fill="#828282"/>
</svg>
