<svg width="20" height="20" viewBox="0 0 20 20" fill="none" xmlns="http://www.w3.org/2000/svg">
<path fill-rule="evenodd" clip-rule="evenodd" d="M0 10C0 15.5228 4.47715 20 10 20C15.5228 20 20 15.5228 20 10C20 4.47715 15.5228 0 10 0C4.47715 0 0 4.47715 0 10ZM2 10C2 5.58172 5.58172 2 10 2C14.4183 2 18 5.58172 18 10C18 14.4183 14.4183 18 10 18C5.58172 18 2 14.4183 2 10ZM7 11C7 10.4477 6.55228 10 6 10C5.44772 10 5 10.4477 5 11C5 13.7614 7.23858 16 10 16C12.7614 16 15 13.7614 15 11C15 10.4477 14.5523 10 14 10C13.4477 10 13 10.4477 13 11C13 12.6569 11.6569 14 10 14C8.34315 14 7 12.6569 7 11ZM6 8C6.55228 8 7 7.55228 7 7C7 7.55228 7.44772 8 8 8C8.55228 8 9 7.55228 9 7C9 5.89543 8.10457 5 7 5C5.89543 5 5 5.89543 5 7C5 7.55228 5.44772 8 6 8ZM13 7C13 7.55228 12.5523 8 12 8C11.4477 8 11 7.55228 11 7C11 5.89543 11.8954 5 13 5C14.1046 5 15 5.89543 15 7C15 7.55228 14.5523 8 14 8C13.4477 8 13 7.55228 13 7Z" fill="#C4C4C4"/>
</svg>
