<svg width="20" height="20" viewBox="0 0 20 20" fill="none" xmlns="http://www.w3.org/2000/svg">
<path fill-rule="evenodd" clip-rule="evenodd" d="M8.46813e-07 2C8.46813e-07 0.89543 0.895432 0 2 0H18C19.1046 0 20 0.89543 20 2V13.3593C20 13.362 20 13.3647 20 13.3673V18C20 19.1046 19.1046 20 18 20H2C0.895432 20 8.46813e-07 19.1046 8.46813e-07 18V15.0014C-2.82277e-07 15.0005 -2.82265e-07 14.9997 8.46813e-07 14.9988V2ZM2 15.4233V16V18H4H16H18V16V13.7481L15.0145 10.4395L9.57115 15.7179C9.22206 16.0564 8.68008 16.0947 8.28683 15.8087L4.4672 13.0308L2 15.4233ZM18 10.7627L15.8049 8.33008C15.6231 8.12855 15.3671 8.0096 15.0958 8.00056C14.8245 7.99151 14.5612 8.09314 14.3664 8.2821L8.78281 13.6965L4.96317 10.9185C4.56992 10.6325 4.02794 10.6709 3.67885 11.0094L2 12.6374V4V2H4H16H18V4V10.7627ZM7 6.5C7 5.67157 7.67157 5 8.5 5C9.32843 5 10 5.67157 10 6.5C10 7.32843 9.32843 8 8.5 8C7.67157 8 7 7.32843 7 6.5Z" fill="#C4C4C4"/>
</svg>
