<svg width="321" height="46" viewBox="0 0 321 46" fill="none" xmlns="http://www.w3.org/2000/svg">
<g clip-path="url(#clip0)">
<path d="M0 6.62832C0 2.9676 2.9676 0 6.62832 0H314.372C318.032 0 321 2.9676 321 6.62832V38.823C321 42.4837 318.032 45.4513 314.372 45.4513H6.62832C2.96759 45.4513 0 42.4837 0 38.823V6.62832Z" fill="#023B60"/>
<path d="M43.7618 12.3179C43.7598 12.26 43.7432 12.2035 43.7134 12.1537C43.6836 12.1041 43.6415 12.0628 43.5914 12.0339C40.2905 10.2582 36.6933 9.09987 32.9766 8.61553C32.69 8.55673 32.3977 8.53131 32.1054 8.53978C31.9802 8.51619 31.8517 8.51619 31.7267 8.53978C27.8176 8.99493 24.028 10.1768 20.5532 12.0244C18.0155 21.0673 22.9205 31.5874 31.632 35.394C31.7102 35.442 31.797 35.4741 31.8876 35.4886C31.9013 35.5058 31.9186 35.5197 31.9382 35.5296C31.9578 35.5393 31.9793 35.5448 32.0013 35.5455H32.1054C32.1394 35.5552 32.1755 35.5552 32.2096 35.5455C41.1199 31.8241 45.7598 21.6449 43.7618 12.3179ZM27.0774 21.787V26.0575C27.0571 26.2329 26.9731 26.3948 26.8413 26.5123C26.7094 26.6298 26.5391 26.6947 26.3625 26.6947C26.1859 26.6947 26.0154 26.6298 25.8836 26.5123C25.7518 26.3948 25.6677 26.2329 25.6475 26.0575V21.787C25.6359 21.6861 25.6457 21.584 25.6763 21.4873C25.707 21.3906 25.7577 21.3014 25.8252 21.2256C25.8927 21.15 25.9755 21.0894 26.0681 21.0478C26.1607 21.0063 26.2609 20.9848 26.3625 20.9848C26.4639 20.9848 26.5642 21.0063 26.6568 21.0478C26.7494 21.0894 26.8321 21.15 26.8996 21.2256C26.9672 21.3014 27.0179 21.3906 27.0485 21.4873C27.0792 21.584 27.0889 21.6861 27.0774 21.787ZM26.3388 19.6186C26.1609 19.6094 25.9928 19.5347 25.8668 19.4087C25.7409 19.2828 25.6661 19.1146 25.657 18.9368C25.6691 17.9625 25.9009 17.0036 26.3351 16.1314C26.7692 15.2592 27.3945 14.4962 28.1645 13.8992C28.9344 13.3021 29.8291 12.8866 30.7819 12.6833C31.7348 12.48 32.7212 12.4943 33.6678 12.7251C33.7585 12.7481 33.8439 12.7887 33.9189 12.8447C33.994 12.9008 34.0574 12.9709 34.1053 13.0514C34.1532 13.1319 34.1848 13.221 34.1983 13.3136C34.2117 13.4063 34.2069 13.5007 34.1839 13.5915C34.1609 13.6822 34.1201 13.7676 34.0642 13.8427C34.0082 13.9177 33.938 13.9811 33.8575 14.029C33.7771 14.0769 33.688 14.1085 33.5953 14.122C33.5026 14.1354 33.4082 14.1306 33.3175 14.1076C32.5808 13.9264 31.8126 13.9139 31.0706 14.0712C30.3284 14.2284 29.6314 14.5512 29.0314 15.0155C28.4314 15.4798 27.9441 16.0735 27.6057 16.7526C27.2674 17.4316 27.0867 18.1782 27.0774 18.9368C27.0605 19.1176 26.9741 19.2849 26.8362 19.4032C26.6984 19.5216 26.5201 19.5818 26.3388 19.5712V19.6186ZM33.6962 31.256C33.1602 31.5304 32.5635 31.6651 31.9617 31.6476C31.3597 31.6302 30.7719 31.4612 30.2527 31.1563C29.7334 30.8513 29.2995 30.4204 28.9911 29.9032C28.6827 29.386 28.5097 28.7993 28.4883 28.1975C28.4883 28.1975 28.4883 28.1123 28.4883 28.0744V20.3855C28.4766 20.2847 28.4865 20.1826 28.517 20.0859C28.5477 19.9892 28.5984 19.9 28.6659 19.8243C28.7334 19.7486 28.8162 19.688 28.9088 19.6464C29.0014 19.6049 29.1017 19.5834 29.2032 19.5834C29.3046 19.5834 29.405 19.6049 29.4975 19.6464C29.5901 19.688 29.6728 19.7486 29.7403 19.8243C29.8079 19.9 29.8586 19.9892 29.8892 20.0859C29.9199 20.1826 29.9296 20.2847 29.9181 20.3855V28.0744C29.918 28.6387 30.1409 29.1802 30.5381 29.5809C30.9353 29.9817 31.4749 30.2094 32.0391 30.2144C32.3858 30.2071 32.7261 30.1196 33.0334 29.9587C33.2053 29.8709 33.4053 29.8549 33.5891 29.9143C33.7729 29.9738 33.9255 30.1039 34.0134 30.2759C34.1013 30.448 34.1172 30.6479 34.0577 30.8317C33.9983 31.0155 33.8682 31.1681 33.6962 31.256ZM32.0581 23.9175C32.1446 23.9097 32.2319 23.9193 32.3148 23.9457C32.3976 23.9721 32.4743 24.0147 32.5405 24.0712C32.6066 24.1277 32.6609 24.1967 32.7 24.2744C32.7391 24.352 32.7623 24.4368 32.7683 24.5235V28.1312C32.7538 28.3054 32.6709 28.467 32.538 28.5804C32.4049 28.694 32.2324 28.7503 32.0581 28.7372C31.9714 28.745 31.8841 28.7353 31.8013 28.709C31.7185 28.6826 31.6417 28.6399 31.5756 28.5835C31.5094 28.527 31.4553 28.458 31.4162 28.3802C31.3771 28.3026 31.3539 28.2179 31.3479 28.1312V24.4762C31.355 24.3902 31.3791 24.3066 31.4187 24.23C31.4583 24.1535 31.5128 24.0855 31.5788 24.03C31.6448 23.9746 31.7211 23.9327 31.8034 23.9069C31.8856 23.881 31.9722 23.8718 32.0581 23.8796V23.9175ZM31.3479 21.787V18.9463C31.3479 18.7579 31.4227 18.5772 31.5558 18.444C31.6891 18.3109 31.8697 18.2361 32.0581 18.2361C32.2464 18.2361 32.427 18.3109 32.5602 18.444C32.6935 18.5772 32.7683 18.7579 32.7683 18.9463V21.787C32.7696 21.8801 32.752 21.9727 32.7166 22.0588C32.6813 22.1451 32.6289 22.2233 32.5626 22.2887C32.4962 22.3542 32.4173 22.4056 32.3306 22.4398C32.244 22.4739 32.1513 22.4902 32.0581 22.4877C31.8713 22.4877 31.6921 22.4142 31.5592 22.283C31.4263 22.1519 31.3504 21.9737 31.3479 21.787ZM35.6184 28.3206C35.6184 28.5089 35.5435 28.6896 35.4104 28.8227C35.2772 28.956 35.0966 29.0308 34.9083 29.0308C34.7199 29.0308 34.5392 28.956 34.406 28.8227C34.2729 28.6896 34.1981 28.5089 34.1981 28.3206V21.8817C34.1812 21.7786 34.1869 21.6732 34.2148 21.5727C34.2428 21.4721 34.2922 21.3788 34.3598 21.2994C34.4273 21.2199 34.5114 21.1559 34.6061 21.1121C34.7008 21.0684 34.8039 21.0456 34.9083 21.0456C35.0126 21.0456 35.1157 21.0684 35.2104 21.1121C35.3051 21.1559 35.3891 21.2199 35.4567 21.2994C35.5242 21.3788 35.5737 21.4721 35.6017 21.5727C35.6295 21.6732 35.6353 21.7786 35.6184 21.8817V28.3206ZM34.9177 19.647C34.8241 19.6482 34.7312 19.6307 34.6444 19.5955C34.5577 19.5602 34.4789 19.508 34.4126 19.4418C34.3465 19.3756 34.2942 19.2968 34.259 19.2101C34.2237 19.1233 34.2062 19.0303 34.2075 18.9368C34.2075 18.6554 34.1518 18.3768 34.0435 18.1171C33.9353 17.8573 33.7767 17.6216 33.5768 17.4235C33.3769 17.2255 33.1398 17.0689 32.8791 16.963C32.6186 16.857 32.3394 16.8037 32.0581 16.8063C31.6755 16.7991 31.2981 16.8945 30.9651 17.0827C30.6319 17.2709 30.3555 17.5449 30.1643 17.8763C30.0688 18.0395 29.9125 18.1581 29.7296 18.2061C29.5466 18.254 29.3522 18.2274 29.189 18.1319C29.0257 18.0365 28.9071 17.8801 28.8592 17.6972C28.8111 17.5143 28.8379 17.3199 28.9333 17.1566C29.3371 16.499 29.9426 15.9895 30.6596 15.704C31.3766 15.4186 32.1666 15.3725 32.9119 15.5726C33.6572 15.7728 34.3179 16.2085 34.7954 16.8147C35.2728 17.421 35.5416 18.1653 35.5616 18.9368C35.5529 19.1066 35.4828 19.2674 35.3644 19.3894C35.2459 19.5113 35.0871 19.5861 34.9177 19.5996V19.647ZM38.4591 26.0575C38.4591 26.2458 38.3842 26.4265 38.2511 26.5596C38.1179 26.6929 37.9373 26.7677 37.749 26.7677C37.5606 26.7677 37.38 26.6929 37.2467 26.5596C37.1136 26.4265 37.0388 26.2458 37.0388 26.0575V18.7285C37.0061 17.5705 36.5669 16.4609 35.7983 15.5942C35.6728 15.4536 35.6082 15.2688 35.6188 15.0806C35.6295 14.8924 35.7144 14.7161 35.8552 14.5905C35.9958 14.4649 36.1805 14.4004 36.3688 14.411C36.557 14.4217 36.7333 14.5067 36.8589 14.6473C37.8546 15.774 38.4213 17.2158 38.4591 18.719V26.0575Z" fill="white"/>
<path d="M228.238 19.95C227.598 19.6283 226.888 19.469 226.173 19.486C225.591 19.4722 225.013 19.5963 224.489 19.8481C223.964 20.0999 223.506 20.4722 223.153 20.9347V16.3517C223.156 16.2873 223.145 16.2231 223.122 16.1628C223.1 16.1026 223.065 16.0477 223.02 16.0014C222.924 15.9152 222.799 15.868 222.67 15.8688C222.543 15.8695 222.422 15.9166 222.329 16.0014C222.283 16.0466 222.247 16.1014 222.224 16.1619C222.201 16.2224 222.192 16.2872 222.196 16.3517V27.8187C222.194 27.882 222.204 27.9452 222.227 28.0043C222.249 28.0635 222.283 28.1173 222.328 28.1625C222.372 28.2078 222.426 28.2435 222.484 28.2674C222.543 28.2913 222.606 28.303 222.67 28.3016C222.733 28.3045 222.798 28.2943 222.858 28.2714C222.919 28.2487 222.974 28.2139 223.02 28.1691C223.105 28.0728 223.153 27.9479 223.153 27.8187V22.9516C223.153 21.3893 224.734 20.3761 226.173 20.4329C226.695 20.4027 227.216 20.5122 227.683 20.7502C228.149 20.9881 228.543 21.3461 228.825 21.7869C229.11 22.3187 229.25 22.9164 229.232 23.5198V27.7998C229.229 27.863 229.239 27.9263 229.262 27.9854C229.285 28.0446 229.319 28.0983 229.363 28.1436C229.408 28.1889 229.461 28.2246 229.52 28.2484C229.578 28.2724 229.642 28.284 229.705 28.2827C229.768 28.2827 229.83 28.2701 229.888 28.2458C229.947 28.2213 229.999 28.1856 230.043 28.1407C230.087 28.0957 230.122 28.0424 230.145 27.9839C230.168 27.9253 230.18 27.8628 230.179 27.7998C230.037 25.442 230.965 21.1525 228.238 19.95ZM222.225 24.1921C222.262 24.2793 222.323 24.3536 222.403 24.4058C222.481 24.458 222.574 24.4857 222.67 24.4856C222.571 24.4896 222.475 24.4637 222.391 24.4112C222.309 24.3587 222.244 24.2823 222.206 24.1921H222.225Z" fill="white"/>
<path d="M239.468 19.5901C239.341 19.5879 239.219 19.6355 239.127 19.7226C239.081 19.7685 239.045 19.8232 239.02 19.8833C238.995 19.9435 238.984 20.008 238.985 20.073V24.9306C238.985 27.1463 236.144 27.9891 234.393 27.1179C233.903 26.8494 233.501 26.4462 233.234 25.9561C232.967 25.466 232.847 24.9097 232.887 24.353V20.073C232.888 20.01 232.877 19.9474 232.854 19.8889C232.83 19.8304 232.795 19.7771 232.752 19.7321C232.707 19.6871 232.655 19.6514 232.596 19.627C232.538 19.6026 232.476 19.5901 232.413 19.5901C232.285 19.5901 232.163 19.641 232.072 19.7315C231.981 19.8221 231.931 19.945 231.931 20.073V24.3624C231.908 25.1331 232.094 25.8954 232.47 26.5687C232.835 27.1604 233.351 27.6438 233.965 27.9685C234.58 28.2932 235.27 28.4475 235.964 28.4152C236.543 28.4238 237.117 28.2994 237.64 28.0515C238.164 27.8036 238.624 27.4388 238.985 26.9854V27.8281C238.985 27.8911 238.997 27.9535 239.022 28.0115C239.046 28.0696 239.082 28.1222 239.127 28.1663C239.172 28.2104 239.225 28.2451 239.283 28.2683C239.342 28.2915 239.404 28.3029 239.468 28.3016C239.532 28.3045 239.597 28.2943 239.656 28.2714C239.717 28.2486 239.772 28.2138 239.818 28.169C239.861 28.1219 239.894 28.0666 239.915 28.0064C239.937 27.9462 239.945 27.8824 239.941 27.8186V20.073C239.947 20.009 239.939 19.9445 239.917 19.8841C239.895 19.8236 239.861 19.7685 239.815 19.7225C239.771 19.6767 239.716 19.6411 239.656 19.6182C239.596 19.5954 239.531 19.5857 239.468 19.5901Z" fill="white"/>
<path d="M252.904 19.9594C252.395 19.6361 251.802 19.4713 251.2 19.4859C250.599 19.4718 250.006 19.6267 249.488 19.9331C248.971 20.2395 248.551 20.685 248.274 21.2187C248.035 20.7418 247.678 20.3337 247.236 20.0327C246.796 19.7318 246.286 19.5481 245.754 19.4988C245.223 19.4496 244.687 19.5364 244.199 19.7511C243.71 19.9659 243.285 20.3016 242.962 20.7264V20.073C242.966 20.0094 242.957 19.9455 242.935 19.8853C242.915 19.8251 242.881 19.7698 242.839 19.7226C242.792 19.6779 242.738 19.6431 242.677 19.6203C242.616 19.5975 242.553 19.5872 242.488 19.5901C242.362 19.5907 242.24 19.638 242.148 19.7226C242.101 19.7686 242.065 19.8232 242.041 19.8834C242.016 19.9436 242.004 20.0081 242.006 20.073V27.8187C242.003 27.8829 242.013 27.9469 242.037 28.0066C242.06 28.0665 242.096 28.1207 242.141 28.1662C242.186 28.2115 242.24 28.247 242.3 28.2703C242.36 28.2936 242.424 28.3043 242.488 28.3016C242.553 28.3045 242.616 28.2943 242.677 28.2715C242.738 28.2486 242.792 28.2138 242.839 28.169C242.881 28.122 242.915 28.0667 242.935 28.0064C242.957 27.9462 242.966 27.8824 242.962 27.8187V22.9516C242.947 22.6186 243.002 22.2861 243.122 21.9751C243.242 21.6643 243.425 21.3815 243.66 21.145C243.895 20.9084 244.176 20.7229 244.486 20.6003C244.796 20.4778 245.128 20.4208 245.462 20.4328C248.823 20.4802 247.554 25.6502 247.791 27.8187C247.788 27.8829 247.799 27.9469 247.822 28.0066C247.845 28.0665 247.881 28.1207 247.927 28.1662C247.972 28.2115 248.026 28.247 248.086 28.2703C248.145 28.2936 248.21 28.3043 248.274 28.3016C248.4 28.301 248.521 28.2538 248.615 28.169C248.658 28.122 248.691 28.0667 248.712 28.0064C248.733 27.9462 248.742 27.8824 248.738 27.8187V23.2262C248.743 23.1885 248.743 23.1503 248.738 23.1126C248.7 22.7707 248.735 22.4247 248.842 22.0978C248.949 21.7708 249.124 21.4704 249.356 21.2168C249.588 20.963 249.872 20.7618 250.189 20.6266C250.505 20.4914 250.846 20.4253 251.191 20.4328C251.512 20.4266 251.829 20.4942 252.119 20.6304C252.41 20.7667 252.666 20.968 252.867 21.2187C253.974 22.3077 253.368 26.3983 253.51 27.8471C253.51 27.9101 253.523 27.9724 253.547 28.0305C253.571 28.0886 253.607 28.1412 253.652 28.1853C253.697 28.2293 253.75 28.2641 253.809 28.2873C253.867 28.3105 253.93 28.3218 253.993 28.3205C254.056 28.3233 254.118 28.3129 254.177 28.2901C254.236 28.2673 254.29 28.2325 254.334 28.188C254.379 28.1416 254.414 28.0867 254.437 28.0265C254.459 27.9663 254.47 27.902 254.467 27.8376V23.2262C254.5 22.5945 254.374 21.9646 254.101 21.394C253.828 20.8233 253.417 20.3302 252.904 19.9594Z" fill="white"/>
<path d="M262.648 20.0825C255.802 16.74 252.838 27.9797 260.366 28.3963C261.06 28.4075 261.747 28.2391 262.356 27.9073C262.967 27.5755 263.481 27.0915 263.851 26.5025V27.7903C263.851 27.9164 263.898 28.0378 263.983 28.1312C264.052 28.1977 264.139 28.2425 264.234 28.26C264.329 28.2775 264.426 28.267 264.514 28.2298C264.603 28.1926 264.679 28.1302 264.732 28.0504C264.786 27.9706 264.816 27.8769 264.816 27.7809V23.9554C264.829 23.1758 264.635 22.4067 264.254 21.7265C263.873 21.0461 263.319 20.4789 262.648 20.0825ZM263.406 25.764C263.101 26.2966 262.657 26.7364 262.122 27.0366C261.586 27.3368 260.979 27.486 260.366 27.4684C257.667 27.582 256.001 24.3531 257.336 22.0994C257.645 21.5689 258.088 21.1287 258.62 20.8228C259.153 20.5169 259.756 20.3559 260.371 20.3559C260.984 20.3559 261.588 20.5169 262.121 20.8228C262.653 21.1287 263.096 21.5689 263.406 22.0994C263.71 22.662 263.87 23.2918 263.87 23.9317C263.87 24.5716 263.71 25.2014 263.406 25.764Z" fill="white"/>
<path d="M270.384 19.486C269.805 19.4774 269.231 19.6019 268.707 19.8497C268.184 20.0976 267.724 20.4624 267.364 20.9158V20.0731C267.367 20.0086 267.358 19.9439 267.335 19.8834C267.313 19.8229 267.277 19.768 267.231 19.7223C267.186 19.6766 267.131 19.6412 267.07 19.6184C267.009 19.5956 266.945 19.586 266.881 19.5902C266.755 19.5908 266.633 19.638 266.54 19.7227C266.493 19.768 266.457 19.8227 266.435 19.8832C266.412 19.9437 266.403 20.0085 266.407 20.0731V27.8282C266.404 27.8911 266.415 27.9539 266.438 28.0125C266.46 28.0712 266.495 28.1244 266.54 28.1689C266.584 28.2134 266.637 28.2483 266.696 28.2711C266.755 28.2939 266.817 28.3043 266.881 28.3017C266.945 28.3045 267.01 28.2943 267.069 28.2715C267.13 28.2487 267.185 28.2139 267.231 28.1691C267.317 28.0728 267.365 27.9479 267.364 27.8187V22.9517C267.364 21.3893 268.945 20.3761 270.384 20.4329C270.91 20.3992 271.434 20.5071 271.904 20.7453C272.374 20.9834 272.77 21.3432 273.055 21.787C273.341 22.3179 273.479 22.9168 273.452 23.5198V27.8093C273.452 27.8722 273.465 27.9346 273.489 27.9927C273.513 28.0507 273.549 28.1034 273.594 28.1474C273.639 28.1915 273.692 28.2262 273.751 28.2494C273.809 28.2727 273.872 28.284 273.935 28.2827C274.063 28.2827 274.186 28.2319 274.276 28.1413C274.367 28.0507 274.418 27.9278 274.418 27.7998C274.352 24.391 275.327 19.5523 270.384 19.486Z" fill="white"/>
<path d="M278.423 14.884C278.334 14.7894 278.227 14.714 278.109 14.6624C277.99 14.6109 277.862 14.5843 277.732 14.5843C277.602 14.5843 277.474 14.6109 277.355 14.6624C277.236 14.714 277.129 14.7894 277.041 14.884C276.858 15.0897 276.76 15.3569 276.766 15.6321V27.279C276.766 27.5301 276.866 27.7709 277.044 27.9486C277.221 28.1261 277.461 28.2259 277.713 28.2259C277.964 28.2259 278.205 28.1261 278.383 27.9486C278.56 27.7709 278.66 27.5301 278.66 27.279V15.6416C278.67 15.3658 278.571 15.0971 278.386 14.8935L278.423 14.884Z" fill="white"/>
<path d="M290.25 18.7094C289.832 17.4982 289.041 16.4497 287.993 15.7135C286.944 14.9774 285.689 14.591 284.408 14.6093H281.52C281.387 14.6089 281.257 14.6359 281.136 14.6887C281.015 14.7415 280.907 14.819 280.818 14.9161C280.728 15.0133 280.661 15.1281 280.618 15.253C280.577 15.3778 280.561 15.5102 280.573 15.6415V27.2884C280.561 27.4197 280.577 27.5521 280.618 27.677C280.661 27.8019 280.728 27.9166 280.818 28.0138C280.907 28.1109 281.015 28.1884 281.136 28.2412C281.257 28.2941 281.387 28.3211 281.52 28.3205H284.361C289.303 28.5288 291.86 22.8758 290.25 18.7094ZM288.252 24.05C287.908 24.7764 287.363 25.3891 286.681 25.8154C286.001 26.2416 285.211 26.4636 284.408 26.4551H282.514V16.4747H284.408C285.212 16.4651 286.002 16.6816 286.69 17.0997C287.358 17.5322 287.898 18.1375 288.252 18.8515C288.63 19.6657 288.827 20.5529 288.827 21.4507C288.827 22.3487 288.63 23.2358 288.252 24.05Z" fill="white"/>
<path d="M62.2073 24.211L60.3988 19.4765C60.333 19.3188 60.2761 19.1576 60.2283 18.9936C60.1715 18.8137 60.1147 18.6148 60.0579 18.4065C59.957 18.7859 59.8336 19.159 59.6886 19.5239L57.8705 24.211H62.2073ZM65.4647 28.491H64.2526C64.13 28.5 64.0083 28.4629 63.9118 28.3869C63.8252 28.3177 63.7597 28.2259 63.7224 28.1217L62.6429 25.3378H57.4634L56.3934 28.1217C56.3542 28.2223 56.2887 28.3105 56.204 28.3774C56.107 28.4537 55.9865 28.494 55.8631 28.491H54.6605L59.2719 16.9578H60.8438L65.4647 28.491ZM67.9645 21.5218C68.134 21.3253 68.321 21.1447 68.5232 20.9821C68.7173 20.8258 68.9266 20.6893 69.1481 20.5749C69.372 20.4551 69.6108 20.366 69.8583 20.3098C70.1246 20.2434 70.3982 20.2116 70.6726 20.2151C71.0746 20.2087 71.4738 20.2828 71.8468 20.4329C72.1766 20.5746 72.4685 20.7919 72.699 21.0673C72.9403 21.3406 73.1182 21.6639 73.2198 22.0142C73.3458 22.4219 73.4065 22.8469 73.3997 23.2736V28.4626H71.9983V23.302C72.0315 22.7897 71.8804 22.2826 71.5722 21.8722C71.4142 21.6921 71.2164 21.5513 70.9945 21.4608C70.7726 21.3705 70.5328 21.333 70.2939 21.3514C69.8756 21.3491 69.4642 21.4569 69.1008 21.6639C68.7172 21.8767 68.3742 22.1556 68.0876 22.4877V28.491H66.6104V20.3382H67.4721C67.5617 20.3323 67.6501 20.3602 67.7202 20.4162C67.7903 20.4723 67.8369 20.5526 67.8509 20.6412L67.9645 21.5218ZM79.0243 20.2151C79.575 20.2055 80.1222 20.3053 80.6341 20.5086C81.107 20.7002 81.5312 20.9952 81.8753 21.372C82.2194 21.7489 82.4746 22.1981 82.6226 22.6865C82.8153 23.2402 82.9083 23.8236 82.8972 24.4099C82.9084 25.0023 82.8154 25.592 82.6226 26.1522C82.4687 26.6364 82.2111 27.0814 81.8677 27.4559C81.5242 27.8304 81.1033 28.1254 80.6341 28.3206C80.1202 28.5159 79.574 28.6123 79.0243 28.6047C78.4684 28.6132 77.9159 28.5168 77.3957 28.3206C76.9289 28.1331 76.5112 27.8416 76.1742 27.4684C75.8252 27.0877 75.5577 26.6398 75.3882 26.1522C75.2077 25.5891 75.1183 25.001 75.1231 24.4099C75.1233 23.8408 75.2128 23.2752 75.3882 22.7339C75.5581 22.2406 75.8253 21.7866 76.1742 21.3987C76.5143 21.0312 76.9314 20.7435 77.3957 20.556C77.9106 20.3356 78.4642 20.2198 79.0243 20.2151ZM79.0243 27.4873C79.3673 27.512 79.7111 27.4515 80.0251 27.3111C80.339 27.1707 80.6133 26.9547 80.8234 26.6824C81.2728 26.0155 81.4984 25.2229 81.4673 24.4193C81.5144 23.6177 81.3055 22.8219 80.8708 22.1468C80.6607 21.8745 80.3864 21.6586 80.0725 21.518C79.7585 21.3776 79.4146 21.3171 79.0717 21.3419C78.7041 21.3321 78.3388 21.4032 78.0017 21.5502C77.7032 21.6825 77.4427 21.8876 77.2441 22.1468C77.0351 22.4314 76.8809 22.7525 76.7896 23.0937C76.6904 23.5188 76.6428 23.9543 76.6476 24.3909C76.6025 25.1894 76.8113 25.9815 77.2441 26.654C77.4531 26.9233 77.7241 27.1381 78.0341 27.2799C78.3442 27.4217 78.6839 27.4864 79.0243 27.4684V27.4873ZM86.0693 21.5218C86.2444 21.3274 86.4343 21.147 86.6374 20.9821C86.83 20.8237 87.0397 20.687 87.2624 20.5749C87.4862 20.4551 87.725 20.366 87.9726 20.3098C88.2356 20.2434 88.5061 20.2116 88.7774 20.2151C89.1825 20.2078 89.585 20.2819 89.9611 20.4329C90.2909 20.5746 90.5828 20.7919 90.8133 21.0673C91.0479 21.3453 91.2249 21.6672 91.3341 22.0142C91.4555 22.4229 91.5161 22.8472 91.514 23.2736V28.4626H90.0652V23.302C90.0984 22.7897 89.9473 22.2826 89.6391 21.8722C89.482 21.6909 89.2844 21.5493 89.0622 21.4588C88.8401 21.3683 88.5998 21.3315 88.3608 21.3514C87.9429 21.3518 87.5321 21.4593 87.1677 21.6639C86.7859 21.8793 86.4433 22.1578 86.1545 22.4877V28.491H84.7152V20.3382H85.5769C85.6669 20.33 85.7566 20.357 85.8272 20.4136C85.8978 20.47 85.9438 20.5515 85.9557 20.6412L86.0693 21.5218ZM100.519 20.3382L95.9743 30.8962C95.9354 30.9974 95.8739 31.0882 95.7944 31.1613C95.6968 31.2288 95.5804 31.2621 95.4629 31.256H94.402L95.889 28.0176L92.5272 20.3382H93.7771C93.8832 20.3329 93.9876 20.3665 94.0706 20.4329C94.138 20.4882 94.1902 20.56 94.2221 20.6412L96.4098 25.7734C96.4951 26.0007 96.5613 26.2374 96.6276 26.4836C96.693 26.2397 96.7725 25.9994 96.8643 25.7639L98.9854 20.6412C99.0129 20.5551 99.0697 20.4815 99.1464 20.4329C99.2193 20.3684 99.314 20.3345 99.4115 20.3382H100.519ZM101.788 28.491V20.3382H102.65C102.74 20.33 102.829 20.357 102.9 20.4136C102.97 20.47 103.016 20.5515 103.029 20.6412L103.133 21.4745C103.417 21.1066 103.76 20.7869 104.146 20.5276C104.539 20.2887 104.993 20.1671 105.453 20.1772C105.936 20.1536 106.41 20.3162 106.778 20.6317C107.137 20.9663 107.394 21.3967 107.517 21.8722C107.63 21.5955 107.783 21.3371 107.972 21.1052C108.154 20.9007 108.364 20.7223 108.596 20.5749C108.826 20.437 109.075 20.3349 109.335 20.2719C109.595 20.2067 109.862 20.1749 110.13 20.1772C110.519 20.168 110.906 20.239 111.267 20.3855C111.597 20.5122 111.893 20.7169 112.128 20.9821C112.367 21.2599 112.551 21.5815 112.668 21.929C112.795 22.3559 112.856 22.7998 112.848 23.2452V28.4342H111.409V23.302C111.442 22.7853 111.295 22.2729 110.992 21.8532C110.841 21.6836 110.653 21.5502 110.443 21.4633C110.234 21.3764 110.006 21.3381 109.78 21.3514C109.549 21.3514 109.321 21.3964 109.108 21.4839C108.898 21.5616 108.706 21.6844 108.549 21.8438C108.381 22.0219 108.249 22.2309 108.161 22.4593C108.068 22.7304 108.024 23.0156 108.028 23.302V28.491H106.589V23.302C106.628 22.7817 106.488 22.2636 106.191 21.8343C106.05 21.6705 105.874 21.5416 105.675 21.4578C105.476 21.3739 105.261 21.3376 105.046 21.3514C104.708 21.3554 104.379 21.4574 104.099 21.6449C103.779 21.8509 103.496 22.1103 103.265 22.4119V28.491H101.788ZM118.463 20.2151C119.013 20.2048 119.561 20.3046 120.073 20.5086C120.534 20.7009 120.951 20.988 121.294 21.3514C121.643 21.7373 121.908 22.1921 122.071 22.6865C122.258 23.2413 122.352 23.824 122.345 24.4099C122.352 25.0019 122.258 25.5909 122.071 26.1522C121.908 26.6408 121.643 27.0894 121.294 27.4684C120.954 27.8376 120.537 28.1284 120.073 28.3206C119.559 28.5169 119.012 28.6133 118.463 28.6047C117.906 28.6132 117.354 28.5168 116.835 28.3206C116.37 28.1284 115.953 27.8376 115.613 27.4684C115.264 27.0894 114.999 26.6408 114.837 26.1522C114.651 25.5902 114.562 25.0013 114.571 24.4099C114.562 23.8245 114.651 23.2419 114.837 22.6865C114.999 22.1921 115.264 21.7373 115.613 21.3514C115.956 20.988 116.372 20.7009 116.835 20.5086C117.352 20.3046 117.905 20.2048 118.463 20.2151ZM118.463 27.4873C118.806 27.512 119.15 27.4515 119.463 27.3111C119.778 27.1707 120.052 26.9547 120.262 26.6824C120.695 26.0099 120.903 25.2178 120.859 24.4193C120.905 23.6177 120.697 22.8219 120.262 22.1468C120.052 21.8745 119.778 21.6586 119.463 21.518C119.15 21.3776 118.806 21.3171 118.463 21.3419C118.095 21.3321 117.73 21.4032 117.393 21.5502C117.096 21.6852 116.836 21.8899 116.636 22.1468C116.426 22.4314 116.272 22.7525 116.181 23.0937C116.082 23.5188 116.033 23.9543 116.039 24.3909C115.994 25.1894 116.203 25.9815 116.636 26.654C116.851 26.9284 117.13 27.1459 117.448 27.2879C117.766 27.4298 118.115 27.4918 118.463 27.4684V27.4873ZM130.868 20.3382V28.491H130.015C129.925 28.4995 129.835 28.4742 129.764 28.4198C129.692 28.3655 129.643 28.2861 129.627 28.1975L129.514 27.3169C129.169 27.6948 128.766 28.0145 128.32 28.2638C127.854 28.5088 127.332 28.6326 126.805 28.6236C126.4 28.6288 125.998 28.5548 125.622 28.4058C125.297 28.2593 125.006 28.0465 124.77 27.7808C124.535 27.5026 124.358 27.1808 124.249 26.8339C124.132 26.4244 124.075 26.0003 124.078 25.5746V20.3382H125.508V25.5746C125.476 26.0895 125.627 26.599 125.934 27.0139C126.097 27.1884 126.298 27.3241 126.52 27.411C126.744 27.4978 126.983 27.5336 127.222 27.5157C127.635 27.5207 128.042 27.4196 128.406 27.2222C128.792 27.0024 129.139 26.7173 129.428 26.3794V20.3382H130.868ZM137.884 21.6828C137.858 21.7382 137.816 21.7848 137.764 21.8168C137.712 21.8488 137.651 21.8647 137.591 21.8627C137.5 21.8619 137.411 21.8356 137.335 21.787C137.231 21.7301 137.108 21.6639 136.956 21.5976C136.786 21.5138 136.609 21.4471 136.426 21.3987C136.192 21.3297 135.95 21.2978 135.706 21.304C135.485 21.2995 135.264 21.3315 135.053 21.3987C134.872 21.4517 134.703 21.535 134.551 21.6449C134.423 21.7502 134.317 21.8788 134.239 22.0237C134.169 22.1686 134.133 22.3272 134.134 22.4877C134.127 22.6776 134.19 22.8636 134.314 23.0085C134.451 23.1577 134.615 23.2797 134.797 23.3683C135.014 23.476 135.239 23.5679 135.47 23.6429L136.246 23.8891C136.511 23.9743 136.776 24.0785 137.022 24.1826C137.268 24.2809 137.498 24.4149 137.704 24.5803C137.901 24.7438 138.063 24.9471 138.178 25.1769C138.305 25.4389 138.367 25.7282 138.358 26.0196C138.36 26.3765 138.292 26.7304 138.159 27.0612C138.026 27.3811 137.822 27.6662 137.562 27.8945C137.283 28.1347 136.962 28.321 136.615 28.4437C136.19 28.5835 135.745 28.6508 135.299 28.6425C134.772 28.649 134.248 28.5558 133.756 28.3679C133.324 28.1996 132.927 27.9558 132.582 27.6483L132.913 27.0991C132.953 27.0368 133.005 26.9823 133.064 26.9381C133.135 26.9069 133.213 26.8907 133.292 26.8908C133.403 26.8932 133.512 26.9296 133.604 26.9949L133.983 27.2506C134.166 27.3469 134.355 27.4292 134.551 27.4968C134.817 27.5796 135.096 27.6181 135.375 27.6104C135.621 27.6132 135.867 27.578 136.104 27.5062C136.293 27.4414 136.47 27.3418 136.625 27.2127C136.759 27.0942 136.863 26.9447 136.928 26.7771C137.003 26.6173 137.041 26.4426 137.041 26.2658C137.046 26.063 136.979 25.8649 136.852 25.7071C136.719 25.5518 136.559 25.4232 136.379 25.3284C136.16 25.2181 135.932 25.1293 135.697 25.0632L134.911 24.8076C134.646 24.7224 134.39 24.6277 134.134 24.5235C133.887 24.4154 133.657 24.2718 133.453 24.0974C133.251 23.9308 133.087 23.7245 132.97 23.4914C132.842 23.1926 132.783 22.8689 132.799 22.5445C132.796 22.2375 132.861 21.9335 132.989 21.6544C133.12 21.3658 133.31 21.1077 133.547 20.8969C133.829 20.6671 134.15 20.4905 134.494 20.3761C134.889 20.2399 135.307 20.1758 135.725 20.1867C136.217 20.1793 136.705 20.266 137.165 20.4424C137.575 20.5972 137.952 20.8322 138.272 21.1336L137.884 21.6828ZM151.141 27.1843V28.491H144.598V16.9578H146.151V27.1843H151.141ZM155.326 20.2151C155.876 20.2055 156.424 20.3053 156.936 20.5086C157.408 20.7002 157.833 20.9952 158.176 21.372C158.521 21.7489 158.776 22.1981 158.924 22.6865C159.117 23.2402 159.209 23.8236 159.199 24.4099C159.209 25.0023 159.117 25.592 158.924 26.1522C158.77 26.6364 158.512 27.0814 158.169 27.4559C157.826 27.8304 157.405 28.1254 156.936 28.3206C156.422 28.5159 155.875 28.6123 155.326 28.6047C154.769 28.6132 154.217 28.5168 153.697 28.3206C153.235 28.1293 152.822 27.8383 152.485 27.4684C152.136 27.0877 151.869 26.6398 151.699 26.1522C151.519 25.5891 151.429 25.001 151.434 24.4099C151.43 23.8249 151.519 23.243 151.699 22.6865C151.869 22.1933 152.136 21.7392 152.485 21.3514C152.827 20.986 153.244 20.6986 153.707 20.5086C154.222 20.3058 154.772 20.206 155.326 20.2151ZM155.326 27.4684C155.669 27.4931 156.013 27.4326 156.326 27.2921C156.64 27.1517 156.915 26.9357 157.125 26.6635C157.558 25.991 157.766 25.1988 157.722 24.4004C157.768 23.5988 157.56 22.803 157.125 22.1278C156.915 21.8556 156.64 21.6396 156.326 21.4992C156.013 21.3587 155.669 21.2982 155.326 21.323C154.958 21.3131 154.593 21.3842 154.256 21.5313C153.957 21.6636 153.697 21.8687 153.499 22.1278C153.289 22.4125 153.135 22.7336 153.044 23.0747C152.945 23.4999 152.896 23.9354 152.902 24.372C152.857 25.1704 153.066 25.9626 153.499 26.6351C153.711 26.9141 153.988 27.1363 154.307 27.2817C154.626 27.4272 154.976 27.4913 155.326 27.4684ZM163.848 24.4856C164.108 24.4906 164.367 24.4523 164.615 24.372C164.821 24.2948 165.011 24.1792 165.174 24.0311C165.325 23.8911 165.439 23.7153 165.505 23.5198C165.583 23.3044 165.622 23.0765 165.619 22.8475C165.63 22.6279 165.595 22.4084 165.517 22.203C165.439 21.9975 165.319 21.8107 165.164 21.6544C164.985 21.4987 164.775 21.3802 164.549 21.3055C164.324 21.2307 164.085 21.2013 163.848 21.2188C163.366 21.184 162.89 21.3405 162.523 21.6544C162.369 21.8115 162.251 21.9988 162.174 22.2042C162.097 22.4095 162.064 22.6286 162.078 22.8475C162.071 23.076 162.106 23.3038 162.182 23.5198C162.261 23.7128 162.381 23.887 162.532 24.0311C162.693 24.1811 162.883 24.2971 163.091 24.372C163.334 24.458 163.59 24.5028 163.848 24.5046V24.4856ZM166.433 28.9171C166.441 28.7401 166.38 28.5669 166.263 28.4342C166.135 28.3035 165.98 28.2033 165.808 28.1407C165.593 28.0684 165.371 28.0208 165.146 27.9986L164.341 27.9229L163.488 27.8755C163.209 27.8652 162.931 27.8399 162.655 27.7998C162.374 27.9226 162.122 28.1033 161.917 28.33C161.73 28.5303 161.628 28.795 161.632 29.0686C161.633 29.2474 161.679 29.4231 161.765 29.58C161.874 29.7498 162.024 29.8898 162.201 29.9871C162.417 30.1286 162.652 30.2371 162.901 30.3091C163.24 30.3814 163.586 30.4164 163.933 30.4132C164.283 30.4157 164.632 30.3809 164.975 30.3091C165.249 30.2521 165.511 30.1496 165.752 30.0061C165.947 29.8954 166.111 29.7395 166.234 29.5516C166.356 29.3698 166.419 29.1548 166.414 28.9361L166.433 28.9171ZM167.892 20.6412V21.1715C167.892 21.3482 167.778 21.4618 167.551 21.5124L166.604 21.6354C166.788 21.999 166.882 22.4018 166.878 22.8096C166.879 23.1854 166.799 23.5571 166.642 23.8985C166.494 24.2145 166.281 24.4955 166.017 24.7224C165.735 24.9555 165.414 25.1352 165.07 25.2526C164.672 25.3804 164.256 25.4444 163.839 25.442C163.474 25.4439 163.111 25.3961 162.759 25.3C162.609 25.3917 162.477 25.5105 162.371 25.6503C162.282 25.7495 162.232 25.8771 162.229 26.0101C162.226 26.0984 162.247 26.1858 162.289 26.2638C162.329 26.3418 162.391 26.4077 162.466 26.4552C162.66 26.5606 162.871 26.6311 163.091 26.6635C163.381 26.7104 163.676 26.7358 163.971 26.7393L164.985 26.7961C165.335 26.7961 165.676 26.8624 165.998 26.9192C166.307 26.9724 166.607 27.0713 166.888 27.2127C167.138 27.3377 167.35 27.5273 167.503 27.7619C167.68 28.0446 167.767 28.3753 167.749 28.7088C167.745 29.0631 167.654 29.4111 167.484 29.722C167.3 30.0623 167.044 30.3594 166.736 30.5931C166.371 30.867 165.961 31.0752 165.524 31.2086C165.005 31.3669 164.466 31.4436 163.924 31.4359C163.398 31.4438 162.873 31.3866 162.362 31.2654C161.969 31.1677 161.595 31.0079 161.254 30.792C160.979 30.6164 160.749 30.3799 160.581 30.1008C160.441 29.8519 160.366 29.5718 160.364 29.2864C160.35 28.909 160.487 28.5418 160.742 28.2638C161.03 27.9593 161.387 27.7288 161.784 27.5915C161.558 27.5012 161.359 27.3545 161.206 27.1654C161.053 26.9538 160.976 26.6968 160.989 26.4362C160.991 26.3136 161.014 26.1922 161.055 26.0764C161.104 25.9419 161.17 25.8145 161.254 25.6977C161.346 25.5592 161.457 25.4348 161.585 25.3284C161.719 25.21 161.868 25.1111 162.03 25.0348C161.491 24.712 161.091 24.2034 160.902 23.6049C160.714 23.0065 160.751 22.3597 161.008 21.787C161.155 21.4637 161.376 21.1786 161.651 20.9537C161.931 20.7196 162.252 20.5398 162.598 20.4234C163 20.2987 163.418 20.238 163.839 20.2435C164.173 20.2405 164.507 20.2786 164.833 20.3571C165.127 20.4277 165.407 20.5426 165.666 20.698L167.892 20.6412ZM170.884 20.3193V28.4721H169.435V20.3382L170.884 20.3193ZM171.196 17.7626C171.193 17.9005 171.161 18.0362 171.102 18.1603C171.048 18.2815 170.97 18.391 170.874 18.4823C170.729 18.6247 170.547 18.7207 170.347 18.7578C170.148 18.7949 169.943 18.7715 169.757 18.6906C169.641 18.6391 169.536 18.5686 169.444 18.4823C169.36 18.3833 169.286 18.2754 169.227 18.1603C169.177 18.0333 169.152 17.8986 169.151 17.7626C169.151 17.6265 169.176 17.4916 169.227 17.3649C169.282 17.2442 169.355 17.1325 169.444 17.0335C169.532 16.9404 169.639 16.8664 169.757 16.8157C169.881 16.758 170.017 16.7281 170.155 16.7281C170.292 16.7281 170.427 16.758 170.552 16.8157C170.674 16.8622 170.785 16.9368 170.874 17.0335C170.975 17.1247 171.052 17.2382 171.102 17.3649C171.157 17.4963 171.183 17.6387 171.177 17.7816L171.196 17.7626ZM174.596 21.5029C174.765 21.3064 174.952 21.1257 175.154 20.9631C175.35 20.8046 175.562 20.6681 175.789 20.556C176.008 20.4344 176.244 20.3451 176.489 20.2908C176.755 20.225 177.029 20.1932 177.304 20.1962C177.705 20.1889 178.105 20.2629 178.478 20.4139C178.81 20.5508 179.103 20.7688 179.33 21.0484C179.571 21.3233 179.751 21.646 179.86 21.9953C179.978 22.4044 180.036 22.8287 180.031 23.2547V28.4437H178.592V23.302C178.625 22.7897 178.473 22.2826 178.165 21.8722C178.008 21.6909 177.81 21.5493 177.588 21.4588C177.366 21.3683 177.126 21.3315 176.887 21.3514C176.469 21.3491 176.057 21.4569 175.694 21.6639C175.311 21.8793 174.97 22.1578 174.681 22.4877V28.491H173.223V20.3382H174.084C174.173 20.3323 174.262 20.3602 174.332 20.4162C174.402 20.4723 174.449 20.5526 174.463 20.6412L174.596 21.5029ZM197.245 20.3193L194.613 28.4721H193.477C193.335 28.4721 193.24 28.3869 193.183 28.1975L191.365 22.7339C191.322 22.6133 191.287 22.4899 191.261 22.3646L191.176 21.9858C191.176 22.1089 191.129 22.2415 191.1 22.3646C191.072 22.4877 191.034 22.6202 190.996 22.7433L189.159 28.2638C189.149 28.3415 189.111 28.413 189.051 28.4638C188.991 28.5147 188.915 28.5413 188.837 28.5384H187.758L185.116 20.3855H186.242C186.346 20.3808 186.446 20.4145 186.527 20.4802C186.6 20.5314 186.656 20.6042 186.688 20.6885L188.25 25.9344C188.335 26.3226 188.411 26.6824 188.468 27.0233C188.518 26.8529 188.565 26.673 188.61 26.4836L188.78 25.9344L190.504 20.6507C190.529 20.5739 190.575 20.5053 190.636 20.4518C190.708 20.3945 190.799 20.3643 190.892 20.3666H191.517C191.612 20.3629 191.706 20.3931 191.782 20.4518C191.845 20.5048 191.894 20.5733 191.924 20.6507L193.609 25.9344C193.666 26.1238 193.723 26.3037 193.77 26.4836C193.818 26.6635 193.865 26.8529 193.903 27.0233C193.903 26.8529 193.969 26.673 194.007 26.4931C194.045 26.3131 194.092 26.1238 194.14 25.9344L195.73 20.6885C195.758 20.6051 195.811 20.5323 195.882 20.4802C195.959 20.4159 196.056 20.3822 196.157 20.3855L197.245 20.3193ZM200.162 20.3193V28.4721H198.723V20.3382L200.162 20.3193ZM200.465 17.7626C200.466 17.9009 200.434 18.0374 200.37 18.1603C200.316 18.2793 200.242 18.3882 200.152 18.4823C200.055 18.5711 199.943 18.6417 199.821 18.6906C199.696 18.7474 199.56 18.7765 199.423 18.7758C199.289 18.7751 199.156 18.7461 199.035 18.6906C198.916 18.6414 198.806 18.5708 198.713 18.4823C198.629 18.3833 198.555 18.2754 198.495 18.1603C198.446 18.0333 198.421 17.8986 198.42 17.7626C198.42 17.6265 198.445 17.4916 198.495 17.3649C198.55 17.2442 198.624 17.1325 198.713 17.0335C198.804 16.9394 198.914 16.8652 199.035 16.8157C199.156 16.7601 199.289 16.7311 199.423 16.7305C199.56 16.7297 199.696 16.7588 199.821 16.8157C199.946 16.8632 200.06 16.9367 200.154 17.0314C200.249 17.126 200.322 17.2397 200.37 17.3649C200.431 17.4948 200.457 17.6384 200.446 17.7816L200.465 17.7626ZM205.01 28.6047C204.738 28.6217 204.466 28.5826 204.21 28.4897C203.954 28.3968 203.72 28.2522 203.523 28.0649C203.157 27.6333 202.974 27.0764 203.012 26.512V21.5408H202.065C201.986 21.5415 201.909 21.5147 201.847 21.465C201.817 21.4339 201.793 21.3967 201.778 21.3558C201.764 21.315 201.758 21.2716 201.762 21.2283V20.6507L203.097 20.4802L203.429 17.9615C203.437 17.8873 203.475 17.8196 203.533 17.7721C203.563 17.7446 203.599 17.7238 203.638 17.7107C203.678 17.6978 203.719 17.6928 203.76 17.6963H204.48V20.537H206.838V21.5786H204.48V26.4741C204.458 26.7492 204.546 27.0217 204.726 27.2316C204.81 27.3155 204.911 27.3814 205.021 27.4254C205.132 27.4694 205.251 27.4904 205.37 27.4873C205.502 27.4906 205.632 27.4714 205.758 27.4305L206.052 27.2885L206.251 27.1654C206.292 27.1271 206.345 27.1037 206.402 27.0991C206.445 27.1033 206.485 27.1175 206.521 27.1406C206.557 27.1637 206.588 27.1948 206.61 27.2316L207.027 27.9229C206.764 28.1589 206.459 28.3422 206.127 28.4626C205.763 28.59 205.377 28.6447 204.991 28.6236L205.01 28.6047ZM209.745 21.4082C210.076 21.0484 210.467 20.7474 210.9 20.5181C211.355 20.2944 211.859 20.1839 212.368 20.1962C212.769 20.1898 213.169 20.2639 213.542 20.4139C213.871 20.5557 214.163 20.773 214.394 21.0484C214.632 21.3241 214.809 21.6466 214.915 21.9953C215.041 22.4029 215.101 22.828 215.095 23.2547V28.4437H213.655V23.302C213.688 22.7897 213.537 22.2826 213.229 21.8722C213.069 21.6913 212.87 21.5501 212.647 21.4597C212.422 21.3694 212.181 21.3323 211.941 21.3514C211.526 21.3503 211.118 21.4581 210.758 21.6639C210.372 21.8744 210.029 22.1535 209.745 22.4877V28.491H208.258V16.6358H209.707L209.745 21.4082Z" fill="white"/>
</g>
<defs>
<clipPath id="clip0">
<rect width="321" height="45.4513" fill="white"/>
</clipPath>
</defs>
</svg>
