<svg width="350" height="51" viewBox="0 0 350 51" fill="none" xmlns="http://www.w3.org/2000/svg">
<g filter="url(#filter0_d_11882_231159)">
<g clip-path="url(#clip0_11882_231159)">
<path d="M5 8C5 3.58172 8.58172 0 10 0H340C344.418 0 348 3.58172 348 8V37C348 41.4183 344.418 45 340 45H13C8.58172 45 5 41.4183 5 37V8Z" fill="#023B60"/>
<path d="M53.7053 12.6385C53.7033 12.5785 53.6861 12.5201 53.6552 12.4686C53.6243 12.4172 53.5809 12.3745 53.5289 12.3445C50.1135 10.5074 46.3915 9.30876 42.5458 8.80762C42.2494 8.74678 41.9469 8.72048 41.6444 8.72924C41.5149 8.70484 41.382 8.70484 41.2525 8.72924C37.2078 9.20019 33.2868 10.423 29.6914 12.3347C27.0656 21.6914 32.1408 32.5766 41.1546 36.5152C41.2355 36.5649 41.3254 36.5981 41.4191 36.6132C41.4333 36.6309 41.4511 36.6453 41.4714 36.6555C41.4917 36.6656 41.514 36.6712 41.5367 36.6719H41.6444C41.6797 36.682 41.717 36.682 41.7522 36.6719C50.9717 32.8215 55.7726 22.2891 53.7053 12.6385ZM36.4419 22.4361V26.8548C36.421 27.0363 36.3341 27.2038 36.1977 27.3254C36.0613 27.4469 35.8849 27.5141 35.7022 27.5141C35.5195 27.5141 35.3431 27.4469 35.2067 27.3254C35.0703 27.2038 34.9834 27.0363 34.9625 26.8548V22.4361C34.9505 22.3318 34.9606 22.2261 34.9923 22.126C35.024 22.0259 35.0765 21.9337 35.1463 21.8553C35.2162 21.777 35.3018 21.7142 35.3976 21.6713C35.4934 21.6284 35.5972 21.6062 35.7022 21.6062C35.8072 21.6062 35.911 21.6284 36.0068 21.6713C36.1026 21.7142 36.1882 21.777 36.2581 21.8553C36.3279 21.9337 36.3804 22.0259 36.4121 22.126C36.4438 22.2261 36.4539 22.3318 36.4419 22.4361ZM35.6777 20.1924C35.4937 20.183 35.3197 20.1056 35.1894 19.9753C35.0591 19.845 34.9817 19.671 34.9723 19.487C34.9848 18.479 35.2247 17.4868 35.6739 16.5843C36.1231 15.6818 36.7701 14.8923 37.5668 14.2746C38.3634 13.6568 39.2892 13.2268 40.2751 13.0165C41.261 12.8061 42.2816 12.8209 43.261 13.0598C43.355 13.0836 43.4433 13.1256 43.5209 13.1836C43.5986 13.2415 43.6641 13.3142 43.7137 13.3974C43.7633 13.4807 43.796 13.5729 43.8099 13.6687C43.8239 13.7646 43.8188 13.8623 43.795 13.9563C43.7712 14.0502 43.7291 14.1385 43.6712 14.2162C43.6133 14.2938 43.5406 14.3593 43.4574 14.4089C43.3741 14.4585 43.2819 14.4912 43.186 14.5051C43.0901 14.5191 42.9925 14.514 42.8985 14.4902C42.1363 14.3028 41.3416 14.2899 40.5737 14.4526C39.8058 14.6152 39.0845 14.9492 38.4638 15.4296C37.843 15.9101 37.3387 16.5245 36.9887 17.227C36.6386 17.9296 36.4517 18.7021 36.4419 19.487C36.4245 19.6741 36.335 19.8472 36.1925 19.9696C36.0499 20.0921 35.8653 20.1544 35.6777 20.1434V20.1924ZM43.2904 32.2336C42.7358 32.5176 42.1185 32.6569 41.4957 32.6389C40.8729 32.6209 40.2647 32.446 39.7274 32.1305C39.1902 31.815 38.7412 31.369 38.4221 30.8338C38.1029 30.2987 37.924 29.6917 37.9018 29.069C37.9018 29.069 37.9018 28.9808 37.9018 28.9417V20.986C37.8897 20.8817 37.8999 20.7761 37.9316 20.676C37.9633 20.5759 38.0158 20.4837 38.0856 20.4053C38.1555 20.3269 38.2411 20.2642 38.3369 20.2213C38.4327 20.1783 38.5365 20.1561 38.6415 20.1561C38.7465 20.1561 38.8503 20.1783 38.9461 20.2213C39.0418 20.2642 39.1275 20.3269 39.1973 20.4053C39.2672 20.4837 39.3197 20.5759 39.3514 20.676C39.3831 20.7761 39.3932 20.8817 39.3812 20.986V28.9417C39.3812 29.5255 39.6118 30.0858 40.0228 30.5005C40.4338 30.9152 40.992 31.1507 41.5759 31.1559C41.9346 31.1484 42.2867 31.0579 42.6046 30.8914C42.7826 30.8004 42.9894 30.7839 43.1796 30.8455C43.3698 30.907 43.5277 31.0416 43.6187 31.2196C43.7096 31.3976 43.7261 31.6044 43.6646 31.7946C43.603 31.9848 43.4684 32.1427 43.2904 32.2336ZM41.5955 24.6405C41.6851 24.6325 41.7754 24.6424 41.8611 24.6697C41.9468 24.697 42.0262 24.7412 42.0946 24.7996C42.1631 24.858 42.2192 24.9295 42.2596 25.0098C42.3001 25.0902 42.3241 25.1778 42.3303 25.2676V29.0004C42.3153 29.1808 42.2296 29.3478 42.092 29.4653C41.9544 29.5827 41.7759 29.641 41.5955 29.6275C41.5058 29.6355 41.4155 29.6256 41.3298 29.5983C41.2441 29.571 41.1647 29.5268 41.0963 29.4684C41.0278 29.41 40.9717 29.3385 40.9313 29.2582C40.8908 29.1778 40.8668 29.0902 40.8606 29.0004V25.2186C40.868 25.1297 40.8929 25.0431 40.9339 24.9639C40.9749 24.8847 41.0312 24.8143 41.0995 24.757C41.1678 24.6996 41.2468 24.6563 41.3319 24.6296C41.417 24.6029 41.5066 24.5933 41.5955 24.6013V24.6405ZM40.8606 22.4361V19.4968C40.8606 19.3019 40.938 19.115 41.0759 18.9772C41.2137 18.8394 41.4006 18.762 41.5955 18.762C41.7903 18.762 41.9772 18.8394 42.115 18.9772C42.2529 19.115 42.3303 19.3019 42.3303 19.4968V22.4361C42.3316 22.5325 42.3135 22.6282 42.2769 22.7174C42.2403 22.8066 42.1861 22.8875 42.1174 22.9552C42.0488 23.023 41.9672 23.0761 41.8775 23.1115C41.7878 23.1469 41.6918 23.1637 41.5955 23.1611C41.4023 23.1611 41.2168 23.085 41.0793 22.9493C40.9418 22.8136 40.8632 22.6292 40.8606 22.4361ZM45.2793 29.1964C45.2793 29.3913 45.2019 29.5782 45.0641 29.716C44.9263 29.8538 44.7394 29.9312 44.5445 29.9312C44.3496 29.9312 44.1627 29.8538 44.0249 29.716C43.8871 29.5782 43.8097 29.3913 43.8097 29.1964V22.534C43.7922 22.4275 43.7982 22.3184 43.8271 22.2144C43.856 22.1103 43.9071 22.0138 43.977 21.9316C44.0469 21.8493 44.1339 21.7832 44.2319 21.7378C44.3299 21.6925 44.4366 21.669 44.5445 21.669C44.6525 21.669 44.7592 21.6925 44.8572 21.7378C44.9552 21.7832 45.0421 21.8493 45.112 21.9316C45.1819 22.0138 45.2331 22.1103 45.262 22.2144C45.2909 22.3184 45.2968 22.4275 45.2793 22.534V29.1964ZM44.5543 20.2218C44.4575 20.2231 44.3613 20.205 44.2716 20.1686C44.1818 20.1321 44.1003 20.078 44.0318 20.0095C43.9633 19.941 43.9092 19.8595 43.8728 19.7697C43.8363 19.68 43.8182 19.5838 43.8195 19.487C43.8195 19.1958 43.7619 18.9076 43.6498 18.6388C43.5378 18.3701 43.3737 18.1262 43.1669 17.9212C42.9601 17.7163 42.7148 17.5543 42.4451 17.4447C42.1754 17.3351 41.8866 17.2799 41.5955 17.2825C41.1997 17.2751 40.8092 17.3738 40.4645 17.5686C40.1199 17.7633 39.8338 18.0468 39.6359 18.3897C39.5372 18.5586 39.3754 18.6813 39.1861 18.7309C38.9969 18.7805 38.7957 18.7529 38.6268 18.6542C38.4579 18.5554 38.3351 18.3937 38.2855 18.2044C38.2359 18.0152 38.2635 17.8139 38.3622 17.645C38.78 16.9646 39.4066 16.4374 40.1484 16.142C40.8903 15.8467 41.7078 15.799 42.4789 16.0061C43.2501 16.2132 43.9337 16.664 44.4277 17.2913C44.9218 17.9186 45.1999 18.6888 45.2206 19.487C45.2116 19.6627 45.1391 19.8291 45.0165 19.9553C44.8939 20.0815 44.7297 20.1588 44.5543 20.1728V20.2218ZM48.2186 26.8548C48.2186 27.0497 48.1412 27.2366 48.0034 27.3744C47.8656 27.5122 47.6787 27.5896 47.4838 27.5896C47.2889 27.5896 47.102 27.5122 46.9642 27.3744C46.8264 27.2366 46.749 27.0497 46.749 26.8548V19.2714C46.7152 18.0733 46.2608 16.9252 45.4655 16.0284C45.3356 15.8829 45.2688 15.6918 45.2798 15.497C45.2908 15.3022 45.3788 15.1198 45.5243 14.9899C45.6698 14.86 45.861 14.7932 46.0557 14.8042C46.2505 14.8152 46.4329 14.9032 46.5628 15.0487C47.5931 16.2145 48.1794 17.7063 48.2186 19.2616V26.8548Z" fill="white"/>
<path d="M254.339 20.2462C253.677 19.9135 252.944 19.7486 252.203 19.7661C251.601 19.7519 251.004 19.8803 250.461 20.1408C249.917 20.4014 249.444 20.7866 249.078 21.2652V16.5231C249.081 16.4565 249.07 16.3901 249.046 16.3277C249.023 16.2654 248.987 16.2085 248.941 16.1606C248.841 16.0715 248.712 16.0226 248.578 16.0234C248.448 16.0241 248.322 16.073 248.225 16.1606C248.177 16.2074 248.14 16.2641 248.117 16.3267C248.093 16.3893 248.083 16.4564 248.088 16.5231V28.388C248.085 28.4535 248.096 28.5189 248.12 28.5801C248.143 28.6413 248.179 28.697 248.225 28.7438C248.271 28.7906 248.326 28.8275 248.387 28.8523C248.447 28.877 248.512 28.8891 248.578 28.8877C248.645 28.8907 248.711 28.8801 248.773 28.8565C248.836 28.8329 248.893 28.7968 248.941 28.7505C249.03 28.6509 249.079 28.5217 249.078 28.388V23.352C249.078 21.7354 250.714 20.6871 252.203 20.7459C252.744 20.7146 253.283 20.828 253.765 21.0742C254.247 21.3205 254.655 21.6907 254.946 22.1469C255.242 22.6972 255.387 23.3156 255.368 23.9399V28.3684C255.365 28.4339 255.376 28.4993 255.399 28.5605C255.423 28.6217 255.459 28.6774 255.505 28.7242C255.551 28.771 255.606 28.8079 255.666 28.8327C255.727 28.8574 255.792 28.8695 255.858 28.8681C255.923 28.8681 255.987 28.8551 256.047 28.8299C256.107 28.8046 256.162 28.7677 256.208 28.7212C256.253 28.6746 256.289 28.6195 256.313 28.5589C256.337 28.4983 256.349 28.4336 256.347 28.3684C256.201 25.9288 257.161 21.4905 254.339 20.2462Z" fill="white"/>
<path d="M265.959 19.8761C265.828 19.8738 265.701 19.923 265.606 20.0132C265.559 20.0607 265.521 20.1172 265.496 20.1795C265.471 20.2418 265.458 20.3085 265.459 20.3757V25.4019C265.459 27.6945 262.52 28.5665 260.707 27.6651C260.201 27.3873 259.785 26.97 259.509 26.4629C259.233 25.9558 259.108 25.3802 259.15 24.8042V20.3757C259.151 20.3106 259.139 20.2458 259.115 20.1853C259.091 20.1247 259.055 20.0695 259.01 20.023C258.964 19.9765 258.91 19.9395 258.849 19.9143C258.789 19.889 258.725 19.876 258.66 19.8761C258.527 19.8761 258.4 19.9287 258.306 20.0224C258.213 20.1161 258.16 20.2432 258.16 20.3757V24.814C258.137 25.6114 258.33 26.4001 258.718 27.0969C259.096 27.7091 259.63 28.2092 260.266 28.5452C260.901 28.8812 261.615 29.0408 262.334 29.0074C262.933 29.0163 263.527 28.8875 264.068 28.631C264.61 28.3745 265.086 27.9972 265.459 27.528V28.4C265.459 28.4651 265.472 28.5296 265.497 28.5897C265.523 28.6498 265.56 28.7042 265.606 28.7499C265.653 28.7955 265.708 28.8314 265.768 28.8554C265.829 28.8794 265.894 28.8911 265.959 28.8898C266.025 28.8928 266.092 28.8822 266.154 28.8586C266.217 28.835 266.273 28.799 266.321 28.7527C266.366 28.7039 266.4 28.6467 266.422 28.5844C266.444 28.5221 266.453 28.456 266.449 28.3902V20.3757C266.455 20.3095 266.446 20.2428 266.424 20.1802C266.401 20.1176 266.365 20.0606 266.319 20.0131C266.272 19.9656 266.216 19.9288 266.154 19.9051C266.092 19.8815 266.025 19.8716 265.959 19.8761Z" fill="white"/>
<path d="M279.861 20.2564C279.335 19.9219 278.721 19.7514 278.098 19.7666C277.476 19.7519 276.862 19.9122 276.327 20.2292C275.792 20.5462 275.356 21.0071 275.07 21.5595C274.823 21.066 274.453 20.6437 273.997 20.3323C273.541 20.021 273.013 19.8308 272.464 19.7799C271.914 19.7289 271.36 19.8188 270.854 20.041C270.349 20.2632 269.908 20.6105 269.574 21.05V20.374C269.578 20.3081 269.569 20.242 269.547 20.1797C269.525 20.1174 269.491 20.0602 269.447 20.0115C269.399 19.9652 269.342 19.9291 269.279 19.9055C269.217 19.882 269.151 19.8713 269.084 19.8743C268.954 19.875 268.828 19.9238 268.731 20.0115C268.684 20.0589 268.646 20.1155 268.621 20.1778C268.596 20.2401 268.583 20.3068 268.584 20.374V28.3884C268.582 28.4548 268.593 28.521 268.617 28.5829C268.641 28.6448 268.678 28.7009 268.725 28.7479C268.772 28.7949 268.828 28.8316 268.89 28.8557C268.951 28.8798 269.018 28.8909 269.084 28.8881C269.151 28.8911 269.217 28.8805 269.279 28.8569C269.342 28.8333 269.399 28.7973 269.447 28.7509C269.491 28.7022 269.525 28.645 269.547 28.5827C269.569 28.5204 269.578 28.4543 269.574 28.3884V23.3525C269.559 23.0079 269.615 22.6639 269.74 22.3421C269.864 22.0204 270.054 21.7279 270.297 21.4831C270.54 21.2383 270.831 21.0464 271.151 20.9196C271.472 20.7928 271.816 20.7338 272.161 20.7463C275.639 20.7953 274.326 26.1448 274.571 28.3884C274.568 28.4548 274.579 28.521 274.603 28.5829C274.627 28.6448 274.664 28.7009 274.711 28.7479C274.758 28.7949 274.814 28.8316 274.876 28.8557C274.938 28.8798 275.004 28.8909 275.07 28.8881C275.201 28.8874 275.326 28.8386 275.423 28.7509C275.468 28.7022 275.502 28.645 275.524 28.5827C275.546 28.5204 275.555 28.4543 275.55 28.3884V23.6366C275.555 23.5976 275.555 23.5581 275.55 23.519C275.511 23.1653 275.548 22.8073 275.659 22.469C275.769 22.1307 275.95 21.8199 276.191 21.5574C276.431 21.2948 276.724 21.0867 277.052 20.9468C277.379 20.8069 277.732 20.7386 278.088 20.7463C278.42 20.7398 278.749 20.8097 279.05 20.9507C279.351 21.0917 279.615 21.3 279.822 21.5595C280.969 22.6862 280.341 26.9188 280.488 28.4178C280.488 28.483 280.501 28.5475 280.527 28.6076C280.552 28.6677 280.589 28.7221 280.635 28.7677C280.682 28.8133 280.737 28.8492 280.798 28.8733C280.858 28.8973 280.923 28.909 280.988 28.9077C281.053 28.9105 281.118 28.8998 281.179 28.8762C281.24 28.8525 281.295 28.8166 281.341 28.7705C281.387 28.7226 281.423 28.6658 281.447 28.6034C281.47 28.5411 281.481 28.4746 281.478 28.408V23.6366C281.512 22.983 281.382 22.3312 281.1 21.7408C280.817 21.1504 280.392 20.6401 279.861 20.2564Z" fill="white"/>
<path d="M289.944 20.3838C282.86 16.9253 279.793 28.555 287.582 28.9861C288.301 28.9977 289.011 28.8234 289.643 28.48C290.274 28.1367 290.807 27.6361 291.188 27.0266V28.3591C291.189 28.4895 291.237 28.6151 291.325 28.7118C291.397 28.7806 291.487 28.827 291.585 28.8451C291.683 28.8632 291.784 28.8523 291.875 28.8138C291.967 28.7753 292.045 28.7107 292.101 28.6282C292.156 28.5457 292.186 28.4487 292.187 28.3493V24.391C292.201 23.5844 292 22.7887 291.606 22.0848C291.212 21.3809 290.638 20.794 289.944 20.3838ZM290.727 26.2624C290.412 26.8135 289.953 27.2686 289.399 27.5792C288.845 27.8898 288.217 28.0442 287.582 28.0259C284.79 28.1435 283.066 24.8025 284.447 22.4707C284.767 21.9218 285.226 21.4663 285.777 21.1498C286.328 20.8333 286.952 20.6667 287.587 20.6667C288.223 20.6667 288.847 20.8333 289.398 21.1498C289.949 21.4663 290.407 21.9218 290.727 22.4707C291.043 23.0528 291.208 23.7044 291.208 24.3665C291.208 25.0287 291.043 25.6803 290.727 26.2624Z" fill="white"/>
<path d="M297.948 19.7661C297.349 19.7572 296.755 19.8859 296.214 20.1424C295.672 20.3989 295.196 20.7763 294.823 21.2455V20.3735C294.827 20.3068 294.817 20.2399 294.794 20.1773C294.77 20.1147 294.733 20.0579 294.686 20.0106C294.639 19.9633 294.582 19.9266 294.519 19.9031C294.457 19.8795 294.39 19.8695 294.323 19.8738C294.193 19.8745 294.067 19.9233 293.97 20.011C293.923 20.0578 293.886 20.1145 293.862 20.1771C293.838 20.2397 293.828 20.3067 293.833 20.3735V28.3977C293.83 28.4628 293.841 28.5277 293.865 28.5884C293.889 28.6491 293.925 28.7042 293.971 28.7503C294.017 28.7963 294.072 28.8323 294.132 28.856C294.193 28.8796 294.258 28.8904 294.323 28.8876C294.39 28.8906 294.456 28.88 294.519 28.8564C294.581 28.8328 294.638 28.7968 294.686 28.7504C294.775 28.6508 294.824 28.5216 294.823 28.3879V23.352C294.823 21.7354 296.459 20.687 297.948 20.7458C298.492 20.711 299.035 20.8226 299.521 21.069C300.007 21.3154 300.418 21.6876 300.711 22.1469C301.008 22.6962 301.15 23.3159 301.123 23.9398V28.3781C301.123 28.4433 301.136 28.5078 301.161 28.5679C301.186 28.628 301.223 28.6824 301.27 28.728C301.316 28.7737 301.371 28.8095 301.432 28.8336C301.492 28.8576 301.557 28.8693 301.622 28.868C301.755 28.868 301.882 28.8154 301.976 28.7217C302.069 28.6279 302.122 28.5009 302.122 28.3683C302.053 24.8412 303.063 19.8346 297.948 19.7661Z" fill="white"/>
<path d="M306.267 15.0055C306.175 14.9076 306.064 14.8295 305.941 14.7762C305.818 14.7228 305.685 14.6953 305.551 14.6953C305.417 14.6953 305.285 14.7228 305.162 14.7762C305.039 14.8295 304.928 14.9076 304.836 15.0055C304.647 15.2183 304.546 15.4948 304.552 15.7795V27.8305C304.552 28.0903 304.655 28.3395 304.839 28.5233C305.023 28.707 305.272 28.8103 305.532 28.8103C305.792 28.8103 306.041 28.707 306.225 28.5233C306.408 28.3395 306.512 28.0903 306.512 27.8305V15.7893C306.522 15.504 306.42 15.226 306.227 15.0153L306.267 15.0055Z" fill="white"/>
<path d="M318.503 18.9618C318.071 17.7084 317.253 16.6236 316.168 15.8619C315.082 15.1002 313.784 14.7004 312.458 14.7194H309.47C309.334 14.7188 309.199 14.7468 309.074 14.8014C308.949 14.8561 308.836 14.9363 308.744 15.0368C308.652 15.1373 308.582 15.256 308.538 15.3853C308.494 15.5145 308.478 15.6515 308.49 15.7873V27.8384C308.478 27.9742 308.494 28.1112 308.538 28.2404C308.582 28.3697 308.652 28.4884 308.744 28.5889C308.836 28.6894 308.949 28.7696 309.074 28.8243C309.199 28.8789 309.334 28.9069 309.47 28.9063H312.409C317.524 29.1218 320.169 23.2727 318.503 18.9618ZM316.436 24.4876C316.08 25.2392 315.517 25.8731 314.812 26.3142C314.107 26.7552 313.29 26.985 312.458 26.9762H310.499V16.6495H312.458C313.29 16.6394 314.109 16.8635 314.82 17.2962C315.512 17.7437 316.07 18.3699 316.436 19.1087C316.828 19.9512 317.031 20.8691 317.031 21.7982C317.031 22.7273 316.828 23.6451 316.436 24.4876Z" fill="white"/>
<path d="M71.339 27.3691V28.7266H64.5684V16.7926H66.1757V27.3691H71.339ZM75.7285 20.1571C76.3448 20.1571 76.9 20.2598 77.3941 20.4652C77.8882 20.6707 78.3102 20.9621 78.6599 21.3397C79.0097 21.7172 79.2762 22.1752 79.4594 22.7138C79.6482 23.2468 79.7426 23.8436 79.7426 24.5043C79.7426 25.1705 79.6482 25.7701 79.4594 26.3031C79.2762 26.8361 79.0097 27.2914 78.6599 27.6689C78.3102 28.0464 77.8882 28.3379 77.3941 28.5433C76.9 28.7432 76.3448 28.8432 75.7285 28.8432C75.1067 28.8432 74.5459 28.7432 74.0463 28.5433C73.5521 28.3379 73.1302 28.0464 72.7804 27.6689C72.4306 27.2914 72.1614 26.8361 71.9726 26.3031C71.7894 25.7701 71.6978 25.1705 71.6978 24.5043C71.6978 23.8436 71.7894 23.2468 71.9726 22.7138C72.1614 22.1752 72.4306 21.7172 72.7804 21.3397C73.1302 20.9621 73.5521 20.6707 74.0463 20.4652C74.5459 20.2598 75.1067 20.1571 75.7285 20.1571ZM75.7285 27.6856C76.5613 27.6856 77.1831 27.408 77.594 26.8528C78.0048 26.292 78.2102 25.512 78.2102 24.5126C78.2102 23.5077 78.0048 22.7249 77.594 22.1641C77.1831 21.6034 76.5613 21.323 75.7285 21.323C75.3066 21.323 74.9373 21.3952 74.6209 21.5395C74.31 21.6839 74.049 21.8921 73.8381 22.1641C73.6326 22.4362 73.4772 22.7721 73.3717 23.1718C73.2718 23.566 73.2218 24.0129 73.2218 24.5126C73.2218 25.512 73.4272 26.292 73.8381 26.8528C74.2545 27.408 74.8846 27.6856 75.7285 27.6856ZM84.5137 24.6042C84.8135 24.6042 85.0772 24.5626 85.3049 24.4793C85.5325 24.396 85.724 24.2794 85.8795 24.1295C86.0349 23.9796 86.1515 23.802 86.2293 23.5965C86.307 23.3856 86.3459 23.1552 86.3459 22.9053C86.3459 22.389 86.1876 21.9781 85.8712 21.6728C85.5602 21.3674 85.1078 21.2148 84.5137 21.2148C83.9141 21.2148 83.4561 21.3674 83.1396 21.6728C82.8287 21.9781 82.6732 22.389 82.6732 22.9053C82.6732 23.1552 82.7121 23.3856 82.7898 23.5965C82.8731 23.802 82.9925 23.9796 83.1479 24.1295C83.3034 24.2794 83.4949 24.396 83.7225 24.4793C83.9502 24.5626 84.2139 24.6042 84.5137 24.6042ZM87.187 29.1846C87.187 28.9792 87.1287 28.8126 87.0121 28.6849C86.8955 28.5572 86.7373 28.4573 86.5374 28.3851C86.3431 28.3129 86.1154 28.263 85.8545 28.2352C85.5936 28.2019 85.316 28.1769 85.0217 28.1603C84.733 28.1436 84.4388 28.127 84.1389 28.1103C83.8391 28.0936 83.5504 28.0659 83.2728 28.027C82.9619 28.1714 82.7065 28.3546 82.5067 28.5767C82.3124 28.7932 82.2152 29.0486 82.2152 29.3428C82.2152 29.5316 82.2624 29.7065 82.3568 29.8675C82.4567 30.0341 82.6066 30.1756 82.8065 30.2922C83.0063 30.4144 83.2562 30.5087 83.556 30.5754C83.8613 30.6475 84.2194 30.6836 84.6303 30.6836C85.03 30.6836 85.3881 30.6475 85.7046 30.5754C86.0211 30.5032 86.2876 30.4005 86.5041 30.2672C86.7262 30.134 86.8955 29.9758 87.0121 29.7925C87.1287 29.6093 87.187 29.4067 87.187 29.1846ZM88.6943 20.6235V21.1731C88.6943 21.3563 88.5777 21.4729 88.3446 21.5229L87.3868 21.6478C87.5756 22.0142 87.67 22.4195 87.67 22.8637C87.67 23.2745 87.5895 23.6493 87.4285 23.988C87.273 24.3211 87.0565 24.607 86.7789 24.8457C86.5013 25.0845 86.1682 25.2677 85.7796 25.3954C85.3909 25.5231 84.969 25.5869 84.5137 25.5869C84.1195 25.5869 83.7475 25.5397 83.3978 25.4454C83.2201 25.5564 83.0841 25.6758 82.9897 25.8035C82.8953 25.9256 82.8481 26.0505 82.8481 26.1782C82.8481 26.3781 82.9286 26.5308 83.0896 26.6362C83.2562 26.7362 83.4727 26.8084 83.7392 26.8528C84.0057 26.8972 84.3083 26.9249 84.647 26.9361C84.9912 26.9472 85.3409 26.9666 85.6963 26.9943C86.0572 27.0166 86.4069 27.0582 86.7456 27.1193C87.0898 27.1803 87.3952 27.2803 87.6617 27.4191C87.9282 27.5579 88.1419 27.7494 88.3029 27.9937C88.4695 28.238 88.5528 28.5545 88.5528 28.9431C88.5528 29.304 88.4612 29.6537 88.2779 29.9924C88.1003 30.3311 87.8421 30.6309 87.5034 30.8918C87.1648 31.1583 86.7484 31.3693 86.2542 31.5248C85.7657 31.6858 85.2133 31.7663 84.597 31.7663C83.9807 31.7663 83.4422 31.7052 82.9814 31.583C82.5205 31.4609 82.1375 31.2971 81.8321 31.0917C81.5267 30.8863 81.2963 30.6475 81.1409 30.3755C80.991 30.109 80.916 29.8286 80.916 29.5344C80.916 29.118 81.0465 28.7654 81.3074 28.4767C81.5684 28.188 81.9265 27.9576 82.3817 27.7855C82.1319 27.6745 81.932 27.5273 81.7821 27.3441C81.6378 27.1554 81.5656 26.9027 81.5656 26.5863C81.5656 26.4641 81.5878 26.3392 81.6322 26.2115C81.6767 26.0783 81.7433 25.9478 81.8321 25.8201C81.9265 25.6869 82.0403 25.5619 82.1736 25.4454C82.3068 25.3288 82.4623 25.226 82.6399 25.1372C82.2235 24.904 81.8987 24.5959 81.6655 24.2128C81.4324 23.8242 81.3158 23.3745 81.3158 22.8637C81.3158 22.4528 81.3935 22.0809 81.549 21.7477C81.71 21.4091 81.932 21.1231 82.2152 20.89C82.4983 20.6512 82.8342 20.468 83.2229 20.3403C83.6171 20.2126 84.0473 20.1488 84.5137 20.1488C84.8801 20.1488 85.2216 20.1904 85.538 20.2737C85.8545 20.3514 86.1432 20.468 86.4041 20.6235H88.6943ZM96.0544 20.2904V28.7266H94.572V20.2904H96.0544ZM96.3709 17.6421C96.3709 17.7864 96.3403 17.9224 96.2793 18.0501C96.2238 18.1723 96.146 18.2833 96.0461 18.3833C95.9517 18.4776 95.8379 18.5526 95.7046 18.6081C95.5769 18.6636 95.4409 18.6914 95.2966 18.6914C95.1522 18.6914 95.0162 18.6636 94.8885 18.6081C94.7664 18.5526 94.6581 18.4776 94.5637 18.3833C94.4693 18.2833 94.3944 18.1723 94.3389 18.0501C94.2833 17.9224 94.2556 17.7864 94.2556 17.6421C94.2556 17.4977 94.2833 17.3617 94.3389 17.234C94.3944 17.1007 94.4693 16.9869 94.5637 16.8925C94.6581 16.7926 94.7664 16.7149 94.8885 16.6594C95.0162 16.6038 95.1522 16.5761 95.2966 16.5761C95.4409 16.5761 95.5769 16.6038 95.7046 16.6594C95.8379 16.7149 95.9517 16.7926 96.0461 16.8925C96.146 16.9869 96.2238 17.1007 96.2793 17.234C96.3403 17.3617 96.3709 17.4977 96.3709 17.6421ZM99.8892 21.5146C100.072 21.3091 100.267 21.1231 100.472 20.9566C100.678 20.79 100.894 20.6485 101.122 20.5319C101.355 20.4097 101.599 20.3181 101.855 20.257C102.116 20.1904 102.396 20.1571 102.696 20.1571C103.157 20.1571 103.562 20.2348 103.912 20.3903C104.267 20.5402 104.561 20.7567 104.794 21.0399C105.033 21.3175 105.214 21.6534 105.336 22.0475C105.458 22.4417 105.519 22.8776 105.519 23.355V28.7266H104.028V23.355C104.028 22.7166 103.881 22.2224 103.587 21.8727C103.298 21.5173 102.857 21.3397 102.263 21.3397C101.824 21.3397 101.413 21.4452 101.03 21.6561C100.653 21.8671 100.303 22.153 99.9808 22.5139V28.7266H98.4901V20.2904H99.3812C99.5921 20.2904 99.7226 20.3931 99.7726 20.5985L99.8892 21.5146ZM116.611 24.929C115.928 24.9512 115.345 25.0067 114.862 25.0956C114.385 25.1789 113.994 25.2899 113.688 25.4287C113.388 25.5675 113.169 25.7313 113.03 25.92C112.897 26.1088 112.83 26.3198 112.83 26.553C112.83 26.775 112.867 26.9666 112.939 27.1276C113.011 27.2886 113.108 27.4219 113.23 27.5273C113.358 27.6273 113.505 27.7022 113.672 27.7522C113.844 27.7966 114.027 27.8188 114.221 27.8188C114.482 27.8188 114.721 27.7938 114.937 27.7439C115.154 27.6883 115.357 27.6106 115.545 27.5107C115.74 27.4107 115.923 27.2914 116.095 27.1526C116.273 27.0138 116.445 26.8556 116.611 26.6779V24.929ZM111.823 21.4812C112.289 21.0315 112.792 20.6956 113.33 20.4736C113.869 20.2515 114.465 20.1404 115.121 20.1404C115.593 20.1404 116.012 20.2182 116.378 20.3736C116.745 20.5291 117.053 20.7456 117.303 21.0232C117.552 21.3008 117.741 21.6367 117.869 22.0309C117.997 22.4251 118.06 22.8581 118.06 23.3301V28.7266H117.402C117.258 28.7266 117.147 28.7044 117.069 28.6599C116.992 28.61 116.931 28.5156 116.886 28.3768L116.72 27.5773C116.497 27.7827 116.281 27.9659 116.07 28.127C115.859 28.2824 115.637 28.4157 115.404 28.5267C115.171 28.6322 114.921 28.7127 114.654 28.7682C114.393 28.8293 114.102 28.8598 113.78 28.8598C113.452 28.8598 113.144 28.8154 112.855 28.7266C112.567 28.6322 112.314 28.4934 112.098 28.3102C111.887 28.127 111.717 27.8965 111.59 27.6189C111.467 27.3358 111.406 27.0027 111.406 26.6196C111.406 26.2865 111.498 25.9672 111.681 25.6619C111.864 25.351 112.161 25.0761 112.572 24.8374C112.983 24.5987 113.519 24.4044 114.18 24.2545C114.84 24.099 115.651 24.0102 116.611 23.988V23.3301C116.611 22.6749 116.47 22.1808 116.187 21.8477C115.903 21.509 115.49 21.3397 114.946 21.3397C114.579 21.3397 114.271 21.3869 114.021 21.4812C113.777 21.5701 113.563 21.6728 113.38 21.7894C113.202 21.9004 113.047 22.0031 112.914 22.0975C112.786 22.1863 112.658 22.2308 112.531 22.2308C112.431 22.2308 112.345 22.2058 112.272 22.1558C112.2 22.1003 112.139 22.0337 112.089 21.9559L111.823 21.4812ZM121.718 21.5146C121.901 21.3091 122.095 21.1231 122.3 20.9566C122.506 20.79 122.722 20.6485 122.95 20.5319C123.183 20.4097 123.428 20.3181 123.683 20.257C123.944 20.1904 124.224 20.1571 124.524 20.1571C124.985 20.1571 125.39 20.2348 125.74 20.3903C126.095 20.5402 126.389 20.7567 126.623 21.0399C126.861 21.3175 127.042 21.6534 127.164 22.0475C127.286 22.4417 127.347 22.8776 127.347 23.355V28.7266H125.856V23.355C125.856 22.7166 125.709 22.2224 125.415 21.8727C125.126 21.5173 124.685 21.3397 124.091 21.3397C123.652 21.3397 123.242 21.4452 122.858 21.6561C122.481 21.8671 122.131 22.153 121.809 22.5139V28.7266H120.318V20.2904H121.209C121.42 20.2904 121.551 20.3931 121.601 20.5985L121.718 21.5146ZM133.162 20.1571C133.778 20.1571 134.334 20.2598 134.828 20.4652C135.322 20.6707 135.744 20.9621 136.093 21.3397C136.443 21.7172 136.71 22.1752 136.893 22.7138C137.082 23.2468 137.176 23.8436 137.176 24.5043C137.176 25.1705 137.082 25.7701 136.893 26.3031C136.71 26.8361 136.443 27.2914 136.093 27.6689C135.744 28.0464 135.322 28.3379 134.828 28.5433C134.334 28.7432 133.778 28.8432 133.162 28.8432C132.54 28.8432 131.979 28.7432 131.48 28.5433C130.986 28.3379 130.564 28.0464 130.214 27.6689C129.864 27.2914 129.595 26.8361 129.406 26.3031C129.223 25.7701 129.131 25.1705 129.131 24.5043C129.131 23.8436 129.223 23.2468 129.406 22.7138C129.595 22.1752 129.864 21.7172 130.214 21.3397C130.564 20.9621 130.986 20.6707 131.48 20.4652C131.979 20.2598 132.54 20.1571 133.162 20.1571ZM133.162 27.6856C133.995 27.6856 134.617 27.408 135.028 26.8528C135.438 26.292 135.644 25.512 135.644 24.5126C135.644 23.5077 135.438 22.7249 135.028 22.1641C134.617 21.6034 133.995 21.323 133.162 21.323C132.74 21.323 132.371 21.3952 132.054 21.5395C131.744 21.6839 131.483 21.8921 131.272 22.1641C131.066 22.4362 130.911 22.7721 130.805 23.1718C130.705 23.566 130.655 24.0129 130.655 24.5126C130.655 25.512 130.861 26.292 131.272 26.8528C131.688 27.408 132.318 27.6856 133.162 27.6856ZM140.455 21.5146C140.639 21.3091 140.833 21.1231 141.038 20.9566C141.244 20.79 141.46 20.6485 141.688 20.5319C141.921 20.4097 142.165 20.3181 142.421 20.257C142.682 20.1904 142.962 20.1571 143.262 20.1571C143.723 20.1571 144.128 20.2348 144.478 20.3903C144.833 20.5402 145.127 20.7567 145.361 21.0399C145.599 21.3175 145.78 21.6534 145.902 22.0475C146.024 22.4417 146.085 22.8776 146.085 23.355V28.7266H144.594V23.355C144.594 22.7166 144.447 22.2224 144.153 21.8727C143.864 21.5173 143.423 21.3397 142.829 21.3397C142.39 21.3397 141.979 21.4452 141.596 21.6561C141.219 21.8671 140.869 22.153 140.547 22.5139V28.7266H139.056V20.2904H139.947C140.158 20.2904 140.289 20.3931 140.339 20.5985L140.455 21.5146ZM155.411 20.2904L150.706 31.2166C150.656 31.3277 150.592 31.4165 150.514 31.4831C150.442 31.5497 150.328 31.583 150.173 31.583H149.074L150.614 28.2352L147.133 20.2904H148.416C148.543 20.2904 148.643 20.3237 148.715 20.3903C148.793 20.4514 148.846 20.5208 148.874 20.5985L151.131 25.9117C151.219 26.1449 151.294 26.3892 151.355 26.6446C151.433 26.3836 151.516 26.1366 151.605 25.9034L153.795 20.5985C153.829 20.5097 153.884 20.4375 153.962 20.382C154.045 20.3209 154.137 20.2904 154.237 20.2904H155.411ZM156.721 28.7266V20.2904H157.612C157.823 20.2904 157.953 20.3931 158.003 20.5985L158.111 21.4646C158.422 21.0815 158.772 20.7678 159.161 20.5235C159.549 20.2792 159.999 20.1571 160.51 20.1571C161.076 20.1571 161.534 20.3153 161.884 20.6318C162.239 20.9483 162.495 21.3758 162.65 21.9143C162.772 21.6089 162.928 21.3452 163.117 21.1231C163.311 20.9011 163.527 20.7179 163.766 20.5735C164.005 20.4292 164.257 20.3237 164.524 20.257C164.796 20.1904 165.071 20.1571 165.348 20.1571C165.793 20.1571 166.187 20.2293 166.531 20.3736C166.881 20.5124 167.175 20.7179 167.414 20.9899C167.658 21.2619 167.844 21.5978 167.972 21.9976C168.099 22.3918 168.163 22.8443 168.163 23.355V28.7266H166.673V23.355C166.673 22.6944 166.528 22.1947 166.239 21.856C165.951 21.5118 165.534 21.3397 164.99 21.3397C164.746 21.3397 164.513 21.3841 164.291 21.4729C164.074 21.5562 163.883 21.6811 163.716 21.8477C163.55 22.0142 163.416 22.2252 163.316 22.4806C163.222 22.7304 163.175 23.0219 163.175 23.355V28.7266H161.684V23.355C161.684 22.6777 161.548 22.1725 161.276 21.8394C161.004 21.5062 160.607 21.3397 160.085 21.3397C159.719 21.3397 159.38 21.4396 159.069 21.6395C158.758 21.8338 158.472 22.1003 158.211 22.439V28.7266H156.721ZM173.972 20.1571C174.589 20.1571 175.144 20.2598 175.638 20.4652C176.132 20.6707 176.554 20.9621 176.904 21.3397C177.253 21.7172 177.52 22.1752 177.703 22.7138C177.892 23.2468 177.986 23.8436 177.986 24.5043C177.986 25.1705 177.892 25.7701 177.703 26.3031C177.52 26.8361 177.253 27.2914 176.904 27.6689C176.554 28.0464 176.132 28.3379 175.638 28.5433C175.144 28.7432 174.589 28.8432 173.972 28.8432C173.35 28.8432 172.79 28.7432 172.29 28.5433C171.796 28.3379 171.374 28.0464 171.024 27.6689C170.674 27.2914 170.405 26.8361 170.216 26.3031C170.033 25.7701 169.942 25.1705 169.942 24.5043C169.942 23.8436 170.033 23.2468 170.216 22.7138C170.405 22.1752 170.674 21.7172 171.024 21.3397C171.374 20.9621 171.796 20.6707 172.29 20.4652C172.79 20.2598 173.35 20.1571 173.972 20.1571ZM173.972 27.6856C174.805 27.6856 175.427 27.408 175.838 26.8528C176.249 26.292 176.454 25.512 176.454 24.5126C176.454 23.5077 176.249 22.7249 175.838 22.1641C175.427 21.6034 174.805 21.323 173.972 21.323C173.55 21.323 173.181 21.3952 172.865 21.5395C172.554 21.6839 172.293 21.8921 172.082 22.1641C171.876 22.4362 171.721 22.7721 171.615 23.1718C171.516 23.566 171.466 24.0129 171.466 24.5126C171.466 25.512 171.671 26.292 172.082 26.8528C172.498 27.408 173.128 27.6856 173.972 27.6856ZM186.804 20.2904V28.7266H185.921C185.71 28.7266 185.577 28.6239 185.521 28.4184L185.405 27.5107C185.038 27.916 184.627 28.2435 184.172 28.4934C183.717 28.7377 183.195 28.8598 182.606 28.8598C182.146 28.8598 181.737 28.7849 181.382 28.635C181.032 28.4795 180.738 28.263 180.499 27.9854C180.261 27.7078 180.08 27.3719 179.958 26.9777C179.841 26.5835 179.783 26.1477 179.783 25.6702V20.2904H181.266V25.6702C181.266 26.3087 181.41 26.8028 181.699 27.1526C181.993 27.5024 182.44 27.6772 183.039 27.6772C183.478 27.6772 183.886 27.5745 184.264 27.3691C184.647 27.1581 184.999 26.8694 185.321 26.503V20.2904H186.804ZM194.068 21.6811C194.001 21.8033 193.898 21.8643 193.759 21.8643C193.676 21.8643 193.582 21.8338 193.476 21.7727C193.371 21.7117 193.24 21.645 193.085 21.5729C192.935 21.4951 192.755 21.4257 192.544 21.3647C192.333 21.298 192.083 21.2647 191.794 21.2647C191.544 21.2647 191.319 21.298 191.119 21.3647C190.92 21.4257 190.748 21.5118 190.603 21.6228C190.464 21.7339 190.356 21.8643 190.278 22.0142C190.206 22.1586 190.17 22.3168 190.17 22.4889C190.17 22.7055 190.231 22.8859 190.353 23.0302C190.481 23.1746 190.648 23.2995 190.853 23.405C191.058 23.5105 191.292 23.6049 191.553 23.6882C191.813 23.7659 192.08 23.8519 192.352 23.9463C192.63 24.0352 192.899 24.1351 193.16 24.2461C193.421 24.3572 193.654 24.496 193.859 24.6625C194.065 24.8291 194.229 25.0345 194.351 25.2788C194.478 25.5175 194.542 25.8062 194.542 26.1449C194.542 26.5335 194.473 26.8944 194.334 27.2275C194.195 27.5551 193.99 27.841 193.718 28.0853C193.446 28.324 193.113 28.5128 192.718 28.6516C192.324 28.7904 191.869 28.8598 191.353 28.8598C190.764 28.8598 190.231 28.7654 189.754 28.5767C189.276 28.3823 188.871 28.1353 188.538 27.8355L188.888 27.2692C188.932 27.197 188.985 27.1415 189.046 27.1026C189.107 27.0637 189.185 27.0443 189.279 27.0443C189.379 27.0443 189.484 27.0832 189.595 27.1609C189.707 27.2386 189.84 27.3247 189.995 27.4191C190.156 27.5135 190.351 27.5995 190.578 27.6772C190.806 27.755 191.089 27.7938 191.428 27.7938C191.716 27.7938 191.969 27.7577 192.185 27.6856C192.402 27.6078 192.582 27.5051 192.727 27.3774C192.871 27.2497 192.977 27.1026 193.043 26.9361C193.115 26.7695 193.152 26.5918 193.152 26.4031C193.152 26.1699 193.088 25.9783 192.96 25.8284C192.838 25.673 192.674 25.5425 192.469 25.437C192.263 25.326 192.027 25.2316 191.761 25.1539C191.5 25.0706 191.231 24.9845 190.953 24.8957C190.681 24.8069 190.412 24.7069 190.145 24.5959C189.884 24.4793 189.651 24.335 189.446 24.1628C189.24 23.9907 189.074 23.7798 188.946 23.5299C188.824 23.2745 188.763 22.9664 188.763 22.6055C188.763 22.2835 188.829 21.9754 188.963 21.6811C189.096 21.3813 189.29 21.1204 189.546 20.8983C189.801 20.6707 190.115 20.4902 190.487 20.357C190.859 20.2237 191.283 20.1571 191.761 20.1571C192.316 20.1571 192.813 20.2459 193.251 20.4236C193.696 20.5957 194.079 20.8344 194.401 21.1398L194.068 21.6811ZM197.892 16.4595V28.7266H196.41V16.4595H197.892ZM207.575 20.2904L202.869 31.2166C202.819 31.3277 202.755 31.4165 202.678 31.4831C202.606 31.5497 202.492 31.583 202.336 31.583H201.237L202.778 28.2352L199.297 20.2904H200.579C200.707 20.2904 200.807 20.3237 200.879 20.3903C200.957 20.4514 201.009 20.5208 201.037 20.5985L203.294 25.9117C203.383 26.1449 203.458 26.3892 203.519 26.6446C203.597 26.3836 203.68 26.1366 203.769 25.9034L205.959 20.5985C205.992 20.5097 206.048 20.4375 206.126 20.382C206.209 20.3209 206.3 20.2904 206.4 20.2904H207.575ZM224.032 20.2904L221.3 28.7266H220.126C219.982 28.7266 219.882 28.6322 219.826 28.4434L217.961 22.7221C217.916 22.5944 217.88 22.4667 217.852 22.339C217.825 22.2058 217.797 22.0753 217.769 21.9476C217.741 22.0753 217.714 22.2058 217.686 22.339C217.658 22.4667 217.622 22.5972 217.578 22.7304L215.679 28.4434C215.629 28.6322 215.518 28.7266 215.346 28.7266H214.23L211.498 20.2904H212.664C212.781 20.2904 212.878 20.3209 212.955 20.382C213.039 20.443 213.094 20.5152 213.122 20.5985L214.738 26.0283C214.832 26.428 214.907 26.8056 214.963 27.1609C215.012 26.9777 215.062 26.7917 215.112 26.6029C215.168 26.4142 215.226 26.2226 215.287 26.0283L217.07 20.5652C217.097 20.4819 217.144 20.4125 217.211 20.357C217.283 20.3015 217.369 20.2737 217.469 20.2737H218.119C218.23 20.2737 218.321 20.3015 218.394 20.357C218.466 20.4125 218.516 20.4819 218.544 20.5652L220.284 26.0283C220.345 26.2226 220.401 26.4142 220.451 26.6029C220.501 26.7917 220.548 26.9777 220.592 27.1609C220.62 26.9777 220.653 26.7945 220.692 26.6113C220.737 26.4225 220.784 26.2282 220.834 26.0283L222.483 20.5985C222.51 20.5097 222.563 20.4375 222.641 20.382C222.719 20.3209 222.81 20.2904 222.916 20.2904H224.032ZM227.041 20.2904V28.7266H225.558V20.2904H227.041ZM227.357 17.6421C227.357 17.7864 227.327 17.9224 227.266 18.0501C227.21 18.1723 227.132 18.2833 227.032 18.3833C226.938 18.4776 226.824 18.5526 226.691 18.6081C226.563 18.6636 226.427 18.6914 226.283 18.6914C226.138 18.6914 226.002 18.6636 225.875 18.6081C225.753 18.5526 225.644 18.4776 225.55 18.3833C225.456 18.2833 225.381 18.1723 225.325 18.0501C225.27 17.9224 225.242 17.7864 225.242 17.6421C225.242 17.4977 225.27 17.3617 225.325 17.234C225.381 17.1007 225.456 16.9869 225.55 16.8925C225.644 16.7926 225.753 16.7149 225.875 16.6594C226.002 16.6038 226.138 16.5761 226.283 16.5761C226.427 16.5761 226.563 16.6038 226.691 16.6594C226.824 16.7149 226.938 16.7926 227.032 16.8925C227.132 16.9869 227.21 17.1007 227.266 17.234C227.327 17.3617 227.357 17.4977 227.357 17.6421ZM232.066 28.8598C231.4 28.8598 230.887 28.6738 230.526 28.3018C230.17 27.9299 229.993 27.3941 229.993 26.6945V21.5312H228.977C228.888 21.5312 228.813 21.5062 228.752 21.4563C228.691 21.4007 228.66 21.3175 228.66 21.2064V20.6151L230.043 20.4403L230.384 17.8336C230.401 17.7503 230.437 17.6837 230.492 17.6337C230.553 17.5782 230.631 17.5505 230.726 17.5505H231.475V20.4569H233.915V21.5312H231.475V26.5946C231.475 26.9499 231.561 27.2137 231.733 27.3858C231.905 27.5579 232.127 27.6439 232.399 27.6439C232.555 27.6439 232.688 27.6245 232.799 27.5856C232.916 27.5412 233.016 27.494 233.099 27.4441C233.182 27.3941 233.252 27.3497 233.307 27.3108C233.368 27.2664 233.421 27.2442 233.465 27.2442C233.543 27.2442 233.613 27.2914 233.674 27.3858L234.107 28.0936C233.851 28.3324 233.543 28.5211 233.182 28.6599C232.821 28.7932 232.449 28.8598 232.066 28.8598ZM236.936 21.4146C237.297 21.0315 237.697 20.7262 238.136 20.4986C238.574 20.2709 239.08 20.1571 239.651 20.1571C240.112 20.1571 240.517 20.2348 240.867 20.3903C241.223 20.5402 241.517 20.7567 241.75 21.0399C241.989 21.3175 242.169 21.6534 242.291 22.0475C242.413 22.4417 242.475 22.8776 242.475 23.355V28.7266H240.984V23.355C240.984 22.7166 240.837 22.2224 240.542 21.8727C240.254 21.5173 239.812 21.3397 239.218 21.3397C238.78 21.3397 238.369 21.4452 237.986 21.6561C237.608 21.8671 237.258 22.153 236.936 22.5139V28.7266H235.446V16.4595H236.936V21.4146Z" fill="white"/>
</g>
</g>
<defs>
<filter id="filter0_d_11882_231159" x="0.5" y="0" width="349" height="51" filterUnits="userSpaceOnUse" color-interpolation-filters="sRGB">
<feFlood flood-opacity="0" result="BackgroundImageFix"/>
<feColorMatrix in="SourceAlpha" type="matrix" values="0 0 0 0 0 0 0 0 0 0 0 0 0 0 0 0 0 0 127 0" result="hardAlpha"/>
<feOffset dx="-1.5" dy="3"/>
<feGaussianBlur stdDeviation="1.5"/>
<feComposite in2="hardAlpha" operator="out"/>
<feColorMatrix type="matrix" values="0 0 0 0 0 0 0 0 0 0 0 0 0 0 0 0 0 0 0.5 0"/>
<feBlend mode="normal" in2="BackgroundImageFix" result="effect1_dropShadow_11882_231159"/>
<feBlend mode="normal" in="SourceGraphic" in2="effect1_dropShadow_11882_231159" result="shape"/>
</filter>
<clipPath id="clip0_11882_231159">
<path d="M5 8C5 3.58172 8.58172 0 13 0H340C344.418 0 348 3.58172 348 8V37C348 41.4183 344.418 45 340 45H13C8.58172 45 5 41.4183 5 37V8Z" fill="white"/>
</clipPath>
</defs>
</svg>
