<svg width="20" height="20" viewBox="0 0 20 20" fill="none" xmlns="http://www.w3.org/2000/svg">
<g clip-path="url(#clip0_16252_178604)">
<path d="M5.96965 20C7.14858 20 8.2433 19.6 9.08539 18.9263C8.7275 18.4842 8.43277 18 8.2012 17.4737C7.59068 18 6.81174 18.3158 5.9486 18.3158C4.05389 18.3158 2.51706 16.779 2.51707 14.8843C2.51707 12.9896 4.05389 11.4528 5.9486 11.4528C6.81174 11.4528 7.59068 11.7685 8.2012 12.2948C8.43277 11.7685 8.74856 11.2633 9.10645 10.8212L9.10645 8.18964C9.10645 7.89491 8.87487 7.66333 8.58014 7.66333L6.62227 7.66333L6.62227 6.58966C6.62227 6.21072 6.32754 5.91599 5.9486 5.91599C5.56965 5.91599 5.27492 6.21072 5.27492 6.58966L5.27492 7.66333L3.31705 7.66333C3.02232 7.66333 2.79075 7.89491 2.79075 8.18964L2.79075 10.8633C1.59076 11.8106 0.832879 13.2633 0.832879 14.8843C0.853931 17.7053 3.14863 20 5.96965 20ZM5.96965 10.5054C5.61176 10.5054 5.33808 10.2317 5.33808 9.87383C5.33808 9.64225 5.46439 9.45278 5.65386 9.34752L5.65386 8.80016C5.65386 8.63174 5.80123 8.48437 5.9907 8.48437C6.15912 8.48437 6.30649 8.63174 6.30649 8.80016L6.30649 9.34752C6.49596 9.45278 6.62227 9.64225 6.62227 9.87383C6.62227 10.2107 6.32754 10.5054 5.96965 10.5054Z" fill="white"/>
<path d="M10.9803 10.8633C9.78036 11.8106 9.02247 13.2422 9.02247 14.8843C9.02247 17.7053 11.3172 20 14.1382 20C16.9592 20 19.2539 17.7053 19.2539 14.8843C19.2539 13.2633 18.475 11.8106 17.296 10.8633L17.296 8.16859C17.296 7.87386 17.0645 7.64228 16.7697 7.64228L14.8119 7.64228L14.8119 6.56861C14.8119 6.18967 14.5171 5.89494 14.1382 5.89494C13.7592 5.89494 13.4645 6.18967 13.4645 6.56861L13.4645 7.64228L11.5066 7.64228C11.2119 7.64228 10.9803 7.87386 10.9803 8.16859L10.9803 10.8633ZM14.7698 9.87383C14.7698 10.2317 14.475 10.5054 14.1382 10.5054C13.8014 10.5054 13.5066 10.2107 13.5066 9.87383C13.5066 9.64225 13.6329 9.45278 13.8224 9.34752L13.8224 8.82121C13.8224 8.65279 13.9698 8.50543 14.1382 8.50543C14.3066 8.50543 14.454 8.65279 14.454 8.82121L14.454 9.34752C14.6434 9.43173 14.7698 9.64225 14.7698 9.87383ZM14.1382 11.4528C16.0329 11.4528 17.5697 12.9896 17.5697 14.8843C17.5697 16.779 16.0329 18.3158 14.1382 18.3158C12.2435 18.3158 10.7067 16.779 10.7067 14.8843C10.7067 12.9896 12.2435 11.4528 14.1382 11.4528Z" fill="white"/>
<path d="M12.538 2.04155C12.7696 2.33629 13.1907 2.37839 13.4854 2.14681C13.7801 1.91524 13.8222 1.49419 13.5907 1.19946C13.4012 0.946831 13.1696 0.736308 12.938 0.567889C12.8117 0.48368 12.6854 0.441575 12.538 0.441575C12.3275 0.441575 12.1381 0.525785 11.9907 0.715256C11.7591 1.00999 11.8223 1.43104 12.117 1.66261C12.2854 1.74682 12.4117 1.89419 12.538 2.04155Z" fill="white"/>
<path d="M13.3383 3.76799C13.3804 3.97851 13.4225 4.18903 13.4435 4.42061C13.4856 4.79955 13.8014 5.05218 14.1804 5.01007C14.5593 4.96797 14.8119 4.63113 14.7698 4.27324C14.7488 3.99956 14.7067 3.72588 14.6435 3.47325C14.5804 3.15747 14.2856 2.94694 13.9909 2.94694C13.9488 2.94694 13.8856 2.94694 13.8435 2.968C13.4856 3.05221 13.2541 3.4101 13.3383 3.76799Z" fill="white"/>
<path d="M9.67445 1.34668L10.4113 1.34668C10.7902 1.34668 11.085 1.05195 11.085 0.673004C11.085 0.294062 10.7902 -0.000669982 10.4113 -0.000670015L9.67445 -0.00067008C9.29551 -0.000670113 9.00078 0.294062 9.00078 0.673004C9.00078 1.05195 9.31656 1.34668 9.67445 1.34668Z" fill="white"/>
<path d="M5.94918 5.03088C6.30707 5.07299 6.64391 4.79931 6.68601 4.42036C6.70706 4.18879 6.74917 3.97826 6.79127 3.76774C6.87548 3.40985 6.64391 3.05196 6.28602 2.96775C6.24391 2.9467 6.18076 2.9467 6.13865 2.9467C5.82287 2.9467 5.54919 3.15722 5.48603 3.47301C5.42287 3.72564 5.38077 3.99932 5.35971 4.273C5.29656 4.67299 5.57024 4.98878 5.94918 5.03088Z" fill="white"/>
<path d="M7.56946 2.06384C7.69578 1.89542 7.84314 1.76911 7.96946 1.66385C8.26419 1.43227 8.32735 1.01123 8.09577 0.716494C7.96946 0.548075 7.75893 0.442813 7.56946 0.442813C7.4221 0.442813 7.27473 0.484918 7.16947 0.59018C6.93789 0.758599 6.72737 0.969122 6.51684 1.22175C6.28527 1.51648 6.32737 1.93753 6.62211 2.1691C6.89579 2.37963 7.31683 2.33752 7.56946 2.06384Z" fill="white"/>
</g>
<defs>
<clipPath id="clip0_16252_178604">
<rect width="20" height="20" fill="white"/>
</clipPath>
</defs>
</svg>
