<svg width="52" height="57" viewBox="0 0 52 57" fill="none" xmlns="http://www.w3.org/2000/svg">
<rect width="52" height="52" rx="26" fill="#F2F2F2"/>
<path fill-rule="evenodd" clip-rule="evenodd" d="M26 30C25.2179 30 24.5908 30.0528 24.0557 30.1311C21.8502 30.4541 20 32.6979 20 35C20 35.5523 19.5523 36 19 36C18.4477 36 18 35.5523 18 35C18 32.4069 19.6249 29.8599 21.9591 28.7166C20.1687 27.4487 19 25.3608 19 23C19 19.134 22.134 16 26 16C29.866 16 33 19.134 33 23C33 25.3608 31.8313 27.4487 30.0409 28.7166C32.3751 29.8599 34 32.4069 34 35C34 35.5523 33.5523 36 33 36C32.4477 36 32 35.5523 32 35C32 32.6979 30.1498 30.4541 27.9443 30.1311C27.4092 30.0528 26.7821 30 26 30ZM26 28C23.2386 28 21 25.7614 21 23C21 20.2386 23.2386 18 26 18C28.7614 18 31 20.2386 31 23C31 25.7614 28.7614 28 26 28Z" fill="black"/>
<rect width="52" height="52" rx="26" fill="#2D9CDB"/>
<g clip-path="url(#clip0)">
<path d="M34.7013 35.4651C34.5449 35.4659 34.3888 35.457 34.2337 35.4382C34.1531 35.4305 34.0726 35.4191 33.9921 35.4075C32.6276 35.2043 31.6426 34.4801 30.4851 34.342L30.1939 34.4302C30.0412 34.3913 29.8863 34.3618 29.73 34.342L29.5959 34.3804L26.0467 35.4459C25.7651 35.516 25.4777 35.5595 25.1882 35.5761C24.9889 35.5609 24.801 35.5379 24.6246 35.5072C24.479 35.4842 24.3411 35.4535 24.2107 35.423L20.5197 34.342C20.3644 34.3599 20.2107 34.3894 20.0599 34.4302C19.9946 34.4455 19.9295 34.4646 19.8642 34.4838C18.7834 34.7982 17.7639 35.4651 16.3036 35.4651C16.2071 35.4659 16.1108 35.457 16.0162 35.4382C15.9732 35.4316 15.9309 35.4214 15.8897 35.4075C14.3336 34.9975 14.0615 32.2799 14.7705 31.6321C15.0196 31.3754 15.2335 31.0868 15.4067 30.7736C15.4756 30.6626 15.5409 30.5436 15.6098 30.421H35.395C35.4639 30.5436 35.529 30.6626 35.598 30.7736C35.7712 31.0868 35.9852 31.3754 36.2344 31.6321C37.0009 32.3336 36.6176 35.4651 34.7013 35.4651Z" fill="#1566BF"/>
<path d="M33.9921 35.4075C33.8524 35.4466 33.7078 35.4661 33.5629 35.4651C33.4066 35.4659 33.2504 35.457 33.0952 35.4382C31.7077 35.304 30.7188 34.595 29.5959 34.3804C29.5154 34.365 29.431 34.3536 29.3468 34.342L29.0555 34.4302C28.9029 34.3913 28.748 34.3618 28.5916 34.342L24.9083 35.4459C24.8125 35.4689 24.7167 35.4881 24.6246 35.5072C24.4344 35.541 24.2425 35.564 24.0498 35.5761C23.7203 35.5519 23.3935 35.5007 23.0724 35.423L19.8642 34.4838L19.3814 34.342C19.2261 34.3599 19.0724 34.3894 18.9213 34.4302C17.9555 34.6678 17.0624 35.2312 15.8897 35.4075C14.3336 34.9975 14.0615 32.2799 14.7705 31.6321C15.0196 31.3754 15.2335 31.0868 15.4067 30.7736C15.4756 30.6626 15.5409 30.5436 15.6098 30.421H34.2567C34.3256 30.5436 34.3907 30.6626 34.4597 30.7736C34.6328 31.0868 34.8469 31.3754 35.096 31.6321C35.8012 32.2762 35.5329 34.982 33.9921 35.4075Z" fill="#2295F2"/>
<path d="M36.617 26.6497C36.6295 27.8757 36.2803 29.0783 35.6129 30.1068C35.5439 30.2142 35.4711 30.3177 35.3944 30.421H15.6093C15.5326 30.3177 15.4598 30.2142 15.3908 30.1068C14.7234 29.0783 14.3741 27.8757 14.3866 26.6497C14.4085 25.2103 14.7962 23.8003 15.5135 22.5523L19.1699 18.639C20.4599 17.7682 21.9142 17.1708 23.4436 16.8836L26.6134 16.849L27.3339 16.8413C28.9457 17.1101 30.4805 17.7231 31.8336 18.639L35.4902 22.5523C36.2073 23.8003 36.5952 25.2103 36.617 26.6497Z" fill="#1566BF"/>
<path d="M35.467 26.6497C35.48 27.8731 35.1374 29.0743 34.4808 30.1068C34.4129 30.2142 34.3413 30.7623 34.2662 30.8657H15.5873C15.5106 30.7623 15.4405 30.2142 15.3726 30.1068C14.716 29.0743 14.3734 27.8731 14.3863 26.6497C14.4072 25.2127 14.7878 23.8042 15.4933 22.5523L19.0843 18.639C20.347 17.77 21.7763 17.1722 23.2816 16.8836L26.3947 16.8491C27.9648 17.1233 29.4571 17.7339 30.7691 18.639L34.3601 22.5523C35.0656 23.8042 35.4462 25.2127 35.467 26.6497Z" fill="#2295F2"/>
<path d="M29.7295 34.342C29.8859 34.3618 30.0408 34.3913 30.1934 34.4302L26.8012 35.4459C26.2738 35.5754 25.729 35.6195 25.1877 35.5761C25.4772 35.5594 25.7646 35.5159 26.0462 35.4459L29.7295 34.342Z" fill="#4482C3"/>
<path d="M25.1879 35.5761C24.6059 35.6163 24.0213 35.5645 23.4553 35.4229L20.0596 34.4302C20.2105 34.3893 20.3642 34.3599 20.5194 34.342L24.2104 35.4229C24.5315 35.5007 24.8584 35.5519 25.1879 35.5761Z" fill="#4482C3"/>
<path d="M24.3521 33.0273V34.6985C24.3524 34.9469 24.3044 35.1929 24.2103 35.4229C23.9668 36.0146 23.4455 36.4469 22.819 36.5765C22.566 36.6276 22.3054 36.6276 22.0524 36.5765C21.1583 36.397 20.5161 35.6103 20.5193 34.6985V32.5674C20.5195 32.3379 20.6225 32.1207 20.7998 31.9753C20.9771 31.8298 21.2104 31.7714 21.4353 31.8161L23.735 32.2762C24.0935 32.3474 24.3519 32.6618 24.3521 33.0273Z" fill="#2295F2"/>
<path d="M30.4843 32.5674V34.6064C30.4866 35.5273 29.8653 36.3332 28.9742 36.565C28.8187 36.603 28.6589 36.6197 28.4989 36.6148C28.401 36.6111 28.3036 36.5997 28.2076 36.5804C27.8308 36.5079 27.4839 36.3251 27.2111 36.0553C27.0375 35.8795 26.8986 35.6728 26.8009 35.4459C26.7022 35.209 26.6514 34.955 26.6514 34.6985V33.0273C26.6517 32.6618 26.91 32.3474 27.2686 32.2762L29.5683 31.8161C29.7932 31.7714 30.0264 31.8298 30.2038 31.9753C30.3812 32.1207 30.4841 32.3379 30.4843 32.5674Z" fill="#2295F2"/>
<path d="M24.3943 17.504C24.1288 17.4709 23.8834 17.3456 23.7005 17.1503C23.2709 16.6819 22.7852 16.268 22.2548 15.9178C22.113 15.8293 22.0448 15.6593 22.0862 15.4976C22.1274 15.3358 22.2688 15.2193 22.4357 15.2098C23.0912 15.1646 23.7479 15.276 24.352 15.5344C24.5578 14.9756 25.0224 14.5515 25.5977 14.3976C25.7314 14.3659 25.8718 14.4087 25.9651 14.5096C26.0583 14.6106 26.0897 14.754 26.0472 14.8847C25.9467 15.2202 25.8921 15.5676 25.8851 15.9178C26.4431 15.54 27.0749 15.2854 27.7388 15.171C27.8963 15.1453 28.0535 15.22 28.133 15.3586C28.2125 15.497 28.1978 15.6704 28.096 15.7936C27.7514 16.1759 27.4575 16.601 27.2217 17.0584C27.0029 17.514 26.5146 17.776 26.0139 17.7062L24.3943 17.504Z" fill="#1566BF"/>
<path d="M19.6909 21.8356L19.1812 22.4374C19.006 22.589 18.8114 22.7165 18.6024 22.8167C17.8608 23.0017 17.0877 23.0225 16.3373 22.8781C16.0833 22.8225 15.8383 22.7323 15.609 22.6099C14.923 22.2304 14.3863 21.4982 14.3863 20.1337C14.3852 19.7777 14.4057 19.4219 14.4477 19.0682C14.4743 18.7866 14.5152 18.5064 14.5703 18.2288C14.7933 16.9024 15.302 15.6403 16.0613 14.5302C16.1571 14.408 16.3171 14.3557 16.4666 14.3978C16.6159 14.4397 16.7254 14.5676 16.7435 14.7218C16.9944 16.5469 18.1166 18.1363 19.7523 18.984C19.7523 18.984 20.4345 20.5785 19.6909 21.8356Z" fill="#FDC008"/>
<path d="M36.6172 20.1337C36.6172 21.4982 36.0806 22.2304 35.3946 22.6099C35.1653 22.7323 34.9202 22.8225 34.6663 22.8781C33.9157 23.0225 33.1427 23.0017 32.401 22.8167C30.4847 21.667 31.2513 18.984 31.2513 18.984C32.887 18.1363 34.0091 16.5469 34.26 14.7218C34.2782 14.5676 34.3875 14.4397 34.537 14.3978C34.6865 14.3557 34.8465 14.408 34.9423 14.5302C35.7015 15.6403 36.2103 16.9024 36.4333 18.2288C36.4884 18.5064 36.5293 18.7866 36.5559 19.0682C36.5979 19.4219 36.6184 19.7777 36.6172 20.1337Z" fill="#FDC008"/>
<path d="M22.0521 20.9005C21.9241 20.9003 21.796 20.908 21.6689 20.9234C19.9293 21.1252 18.6169 22.5987 18.6169 24.3499C18.6169 26.1012 19.9293 27.5745 21.6689 27.7765C21.796 27.7919 21.9241 27.7996 22.0521 27.7995C23.9572 27.7995 25.5017 26.2551 25.5017 24.3499C25.5017 22.4448 23.9572 20.9005 22.0521 20.9005Z" fill="#F4F4F4"/>
<path d="M28.9518 20.9005C28.8237 20.9003 28.6956 20.908 28.5684 20.9234C26.8288 21.1252 25.5166 22.5987 25.5166 24.3499C25.5166 26.1012 26.8288 27.5745 28.5684 27.7765C28.6956 27.7919 28.8237 27.7996 28.9518 27.7995C30.8569 27.7995 32.4012 26.2551 32.4012 24.3499C32.4012 22.4448 30.8569 20.9005 28.9518 20.9005Z" fill="#F4F4F4"/>
<path d="M24.352 24.3498C24.352 25.6199 23.3225 26.6496 22.0524 26.6496C20.7822 26.6496 19.7527 25.6199 19.7527 24.3498C19.7527 23.0797 20.7822 22.0501 22.0524 22.0501C23.3225 22.0501 24.352 23.0797 24.352 24.3498Z" fill="#E81E63"/>
<path d="M31.2509 24.3498C31.2509 25.6199 30.2213 26.6496 28.9512 26.6496C27.6811 26.6496 26.6514 25.6199 26.6514 24.3498C26.6514 23.0797 27.6811 22.0501 28.9512 22.0501C30.2213 22.0501 31.2509 23.0797 31.2509 24.3498Z" fill="#E81E63"/>
<path d="M23.2024 24.3499C23.2024 24.985 22.6877 25.4998 22.0525 25.4998C21.4175 25.4998 20.9026 24.985 20.9026 24.3499C20.9026 23.7149 21.4175 23.2001 22.0525 23.2001C22.6877 23.2001 23.2024 23.7149 23.2024 24.3499Z" fill="#37474F"/>
<path d="M30.1014 24.3499C30.1014 24.985 29.5866 25.4998 28.9517 25.4998C28.3165 25.4998 27.8018 24.985 27.8018 24.3499C27.8018 23.7149 28.3165 23.2001 28.9517 23.2001C29.5866 23.2001 30.1014 23.7149 30.1014 24.3499Z" fill="#37474F"/>
<path d="M21.669 22.8167C21.669 23.4518 21.154 23.9666 20.5191 23.9666C19.8839 23.9666 19.3691 23.4518 19.3691 22.8167C19.3691 22.1817 19.8839 21.6669 20.5191 21.6669C21.154 21.6669 21.669 22.1817 21.669 22.8167Z" fill="#F4F4F4"/>
<path d="M28.5677 22.8167C28.5677 23.4518 28.053 23.9666 27.418 23.9666C26.7828 23.9666 26.2681 23.4518 26.2681 22.8167C26.2681 22.1817 26.7828 21.6669 27.418 21.6669C28.053 21.6669 28.5677 22.1817 28.5677 22.8167Z" fill="#F4F4F4"/>
<path d="M37.0026 20.1336C37.0026 17.4841 35.9516 15.1893 35.2452 14.2936C35.0541 14.0519 34.7371 13.948 34.4401 14.0299C34.143 14.1117 33.9241 14.3635 33.8837 14.6688C33.7025 16.0699 32.9592 17.3371 31.8248 18.1789C30.6441 17.4197 29.3381 16.8761 27.9674 16.5733C28.0936 16.4028 28.2227 16.2442 28.335 16.1085L28.3939 16.0371C28.5982 15.7899 28.6271 15.4418 28.4662 15.1644C28.3055 14.887 27.989 14.7389 27.673 14.7933C27.2191 14.8758 26.7775 15.0158 26.3592 15.21C26.3768 15.1334 26.3975 15.0602 26.4152 14.9981C26.499 14.7282 26.4289 14.4342 26.2322 14.2312C26.0451 14.032 25.7628 13.9534 25.4998 14.0273C24.9384 14.1764 24.4587 14.5414 24.1648 15.0425C23.5995 14.8649 23.0066 14.7918 22.4152 14.8272C22.0802 14.8454 21.796 15.0792 21.7137 15.4044C21.6283 15.7287 21.7671 16.0705 22.0545 16.2433C22.2594 16.3726 22.4548 16.5158 22.6398 16.6723C21.4167 16.9869 20.2513 17.4939 19.1876 18.1747C18.0555 17.3318 17.3116 16.0677 17.1242 14.6688C17.0839 14.3635 16.8647 14.1119 16.5679 14.0301C16.2708 13.9484 15.9538 14.0524 15.7629 14.294C15.0565 15.1893 14.0055 17.4841 14.0055 20.1336C14.0055 21.2644 14.3505 22.1145 15.0239 22.668C14.3745 23.896 14.0255 25.2605 14.0055 26.6496C13.9904 28.0027 14.3928 29.3277 15.1577 30.4439C14.983 30.7724 14.7665 31.0768 14.5133 31.3493C13.8906 31.9197 13.9082 33.3121 14.2826 34.2769C14.6709 35.2735 15.4079 35.8482 16.3052 35.8482C17.2407 35.8156 18.1599 35.5952 19.0086 35.2001C19.3765 35.0426 19.7546 34.9097 20.1404 34.8027C20.1859 35.8212 20.8965 36.6881 21.8864 36.9327C22.8761 37.1771 23.9086 36.7408 24.4231 35.8605C25.1402 36.0039 25.8778 36.0114 26.5975 35.8828C26.6947 36.044 26.8105 36.1935 26.9424 36.3278C27.3747 36.7583 27.9602 36.9994 28.5703 36.9982H28.602C28.6055 36.9982 28.6082 36.9962 28.6113 36.9962C29.8239 36.9736 30.8108 36.014 30.8677 34.8027C31.2535 34.9097 31.6316 35.0426 31.9995 35.2001C32.848 35.5952 33.7674 35.8156 34.7029 35.8482C35.6002 35.8482 36.3372 35.2735 36.7253 34.2769C37.0999 33.3136 37.1178 31.9212 36.4955 31.3528C36.242 31.0791 36.0251 30.7736 35.8504 30.4439C36.6153 29.3277 37.0176 28.0027 37.0026 26.6496C36.9826 25.2605 36.6336 23.896 35.9842 22.668C36.6576 22.1145 37.0026 21.2644 37.0026 20.1336ZM34.6434 14.7677C35.32 15.7613 35.7853 16.8832 36.0105 18.064C35.5905 17.915 35.1485 17.8373 34.7029 17.8339C34.4911 17.8339 34.3195 18.0055 34.3195 18.2173C34.3195 18.4289 34.4911 18.6005 34.7029 18.6005C35.2087 18.607 35.7067 18.7279 36.1593 18.9539C36.2092 19.3453 36.2348 19.7392 36.236 20.1336C36.236 21.0516 35.9723 21.7194 35.4521 22.1176C35.4096 22.1501 35.3643 22.1778 35.3196 22.2064C35.0201 20.8742 34.3444 19.911 33.3414 19.4085C33.1522 19.3132 32.9215 19.3895 32.8262 19.5786C32.731 19.768 32.8073 19.9985 32.9964 20.0938C33.9984 20.5966 34.4223 21.6243 34.5985 22.5027C33.9209 22.6329 33.2235 22.6184 32.5518 22.4598C31.2103 21.6109 31.4714 19.7895 31.584 19.2456C33.2556 18.3219 34.3904 16.6607 34.6434 14.7677ZM32.0199 24.3497C32.0199 26.0432 30.6471 27.4161 28.9536 27.4161C27.2602 27.4161 25.8872 26.0432 25.8872 24.3497C25.8872 22.6563 27.2602 21.2835 28.9536 21.2835C30.6462 21.2855 32.0179 22.6571 32.0199 24.3497ZM23.3154 17.3032C23.5328 17.5278 23.6735 17.6925 23.6769 17.6967C23.8127 17.8592 24.0545 17.8808 24.2169 17.745C24.3794 17.6094 24.401 17.3674 24.2652 17.2049C23.7404 16.5872 23.1331 16.0445 22.4605 15.5922C23.0489 15.5511 23.639 15.6488 24.1829 15.8773C24.2834 15.9273 24.401 15.9306 24.5043 15.8864C24.6075 15.842 24.6863 15.7546 24.7194 15.6474C24.8805 15.2176 25.2388 14.8916 25.682 14.7719C25.5705 15.1439 25.5107 15.5294 25.504 15.9176C25.504 16.0627 25.586 16.1954 25.7158 16.2605C25.8458 16.3254 26.0011 16.3114 26.1173 16.2242C26.6264 15.8845 27.2007 15.6546 27.8037 15.5495L27.7455 15.6201C27.31 16.1452 26.6538 16.9386 26.6538 17.8339C26.6538 18.0457 26.8256 18.2173 27.0372 18.2173C27.2489 18.2173 27.4205 18.0457 27.4205 17.8339C27.4267 17.6402 27.4714 17.4495 27.5523 17.2732C28.8063 17.5164 30.0085 17.9754 31.1054 18.6296L31.095 18.6347C30.9926 18.6812 30.9157 18.7705 30.885 18.8788C30.7083 19.5653 30.6727 20.2805 30.7803 20.981C29.8591 20.4807 28.7727 20.3801 27.7753 20.7031C26.7778 21.0263 25.9569 21.7446 25.504 22.6901C25.0668 21.773 24.2818 21.0682 23.323 20.7323C22.3641 20.3961 21.3109 20.4566 20.3968 20.9003C20.4656 20.1982 20.3662 19.4897 20.1069 18.8337C20.0694 18.7456 20.0002 18.6749 19.913 18.6354L19.9034 18.6308C20.9593 18.0022 22.1124 17.5536 23.3154 17.3032ZM22.0545 21.2835C23.7479 21.2835 25.1207 22.6563 25.1207 24.3497C25.1207 26.0432 23.7479 27.4161 22.0545 27.4161C20.361 27.4161 18.9882 26.0432 18.9882 24.3497C18.9902 22.6571 20.3619 21.2855 22.0545 21.2835ZM14.7721 20.1336C14.7733 19.7392 14.7989 19.3453 14.8488 18.9539C15.3014 18.7279 15.7994 18.607 16.3052 18.6005C16.517 18.6005 16.6886 18.4289 16.6886 18.2173C16.6886 18.0055 16.517 17.8339 16.3052 17.8339C15.8596 17.8373 15.4176 17.915 14.9974 18.064C15.2223 16.8842 15.6876 15.7634 16.3647 14.7716C16.6198 16.6728 17.7648 18.3389 19.4481 19.2586C19.5739 19.6262 19.8778 20.7321 19.3765 21.6129C19.2035 21.782 19.047 21.9671 18.9089 22.1659C18.7745 22.2794 18.6275 22.3766 18.4705 22.4556C17.7941 22.6191 17.0907 22.6356 16.4075 22.504C16.5838 21.6251 17.0074 20.5963 18.0101 20.0931C18.1992 19.9978 18.2755 19.7673 18.1803 19.5779C18.085 19.3886 17.8543 19.3125 17.6651 19.4078C16.6621 19.911 15.9864 20.8742 15.6869 22.2057C15.6429 22.1773 15.5985 22.1501 15.5564 22.1183C15.0365 21.7209 14.7721 21.0535 14.7721 20.1336ZM35.0945 30.1841C34.7178 30.6259 34.2681 30.9996 33.7649 31.2891C33.5754 31.3838 33.4986 31.614 33.5931 31.8035C33.6879 31.993 33.9181 32.0699 34.1076 31.9753C34.5569 31.7316 34.9669 31.4214 35.3238 31.0554C35.504 31.368 35.7237 31.6563 35.9772 31.9132C36.2248 32.14 36.3644 33.0864 36.0109 33.9963C35.8526 34.4029 35.4747 35.0817 34.7029 35.0817C33.8651 35.0476 33.0426 34.8459 32.2843 34.4879C31.8277 34.2909 31.3544 34.1348 30.8699 34.0216V31.6321C30.8699 31.4205 30.6983 31.2489 30.4867 31.2489C30.275 31.2489 30.1034 31.4205 30.1034 31.6321V34.3151C30.1034 34.3202 30.1062 34.3239 30.1062 34.329C30.1062 34.3339 30.1034 34.3374 30.1034 34.342V34.6985C30.1006 35.3894 29.6358 35.9932 28.9685 36.1725L28.9536 35.457C28.9492 35.2484 28.7789 35.0817 28.5703 35.0817H28.5622C28.4606 35.0838 28.3639 35.1262 28.2936 35.1996C28.2232 35.2731 28.1848 35.3714 28.1871 35.4731L28.202 36.1818C27.9325 36.1176 27.6855 35.9812 27.4875 35.7874C27.3479 35.6458 27.2359 35.4796 27.1572 35.2971C27.0777 35.1075 27.037 34.9039 27.0372 34.6985V32.3988C27.0372 32.1871 26.8656 32.0155 26.6538 32.0155C26.4422 32.0155 26.2706 32.1871 26.2706 32.3988V34.6985C26.2706 34.8506 26.2855 35.0026 26.315 35.1519C25.7776 35.2306 25.2309 35.2231 24.6957 35.1296C24.7233 34.9876 24.7373 34.8432 24.7375 34.6985V32.3988C24.7375 32.1871 24.5659 32.0155 24.3541 32.0155C24.1425 32.0155 23.9709 32.1871 23.9709 32.3988V34.6985C23.9722 35.3973 23.4983 36.0075 22.821 36.1798V35.465C22.821 35.2533 22.6494 35.0817 22.4378 35.0817C22.2261 35.0817 22.0545 35.2533 22.0545 35.465V36.1776C21.3744 36.0109 20.8984 35.3986 20.9045 34.6985V34.342C20.9045 34.3374 20.9019 34.3336 20.9019 34.329C20.9019 34.3244 20.9045 34.3202 20.9045 34.3151V31.6321C20.9045 31.4205 20.7329 31.2489 20.5213 31.2489C20.3096 31.2489 20.138 31.4205 20.138 31.6321V34.0216C19.6537 34.1348 19.1804 34.2909 18.7237 34.4879C17.9655 34.8459 17.143 35.0476 16.3052 35.0817C15.5332 35.0817 15.1553 34.4029 14.997 33.9977C14.6437 33.0878 14.7831 32.1416 15.0323 31.9132C15.2855 31.657 15.5046 31.3693 15.6843 31.0573C16.0411 31.4233 16.451 31.7335 16.9005 31.9772C17.0898 32.0718 17.3202 31.9949 17.4148 31.8054C17.5095 31.616 17.4325 31.3858 17.2432 31.291C16.7407 31.001 16.2912 30.6276 15.9139 30.1869C15.1576 29.1638 14.7565 27.9216 14.7721 26.6496C14.7912 25.4004 15.1023 24.1732 15.6804 23.0658C16.1868 23.2702 16.7289 23.3711 17.2749 23.3621C17.6464 23.3609 18.0171 23.3258 18.3822 23.2574C17.8109 25.1721 18.8079 27.204 20.6715 27.9242C22.5352 28.6443 24.6394 27.8107 25.504 26.0094C26.3671 27.8132 28.4729 28.6492 30.3381 27.9285C32.2034 27.2077 33.2 25.173 32.6259 23.2574C32.991 23.3258 33.3615 23.3609 33.7332 23.3621C34.2792 23.3711 34.8213 23.2702 35.3275 23.0658C35.9058 24.1732 36.2169 25.4004 36.236 26.6496C36.2511 27.9207 35.8504 29.1619 35.0945 30.1841Z" fill="black"/>
<path d="M22.0524 25.883C22.8991 25.883 23.5855 25.1967 23.5855 24.3499C23.5855 23.5032 22.8991 22.8168 22.0524 22.8168C21.2057 22.8168 20.5193 23.5032 20.5193 24.3499C20.5193 25.1967 21.2057 25.883 22.0524 25.883ZM22.0524 23.5834C22.4758 23.5834 22.819 23.9266 22.819 24.3499C22.819 24.7733 22.4758 25.1165 22.0524 25.1165C21.629 25.1165 21.2858 24.7733 21.2858 24.3499C21.2858 23.9266 21.629 23.5834 22.0524 23.5834Z" fill="black"/>
<path d="M28.9516 22.8168C28.1048 22.8168 27.4185 23.5032 27.4185 24.3499C27.4185 25.1967 28.1048 25.883 28.9516 25.883C29.7983 25.883 30.4847 25.1967 30.4847 24.3499C30.4847 23.5032 29.7983 22.8168 28.9516 22.8168ZM28.9516 25.1165C28.5282 25.1165 28.185 24.7733 28.185 24.3499C28.185 23.9266 28.5282 23.5834 28.9516 23.5834C29.3749 23.5834 29.7181 23.9266 29.7181 24.3499C29.7181 24.7733 29.3749 25.1165 28.9516 25.1165Z" fill="black"/>
<path d="M28.9513 28.9496C28.7395 28.9496 28.5679 29.1211 28.5679 29.3327C28.5679 29.7561 28.2248 30.0993 27.8014 30.0993H23.2021C22.7787 30.0993 22.4355 29.7561 22.4355 29.3327C22.4355 29.1211 22.2639 28.9496 22.0521 28.9496C21.8405 28.9496 21.6689 29.1211 21.6689 29.3327C21.6689 30.1795 22.3553 30.8658 23.2021 30.8658H27.8014C28.6481 30.8658 29.3345 30.1795 29.3345 29.3327C29.3345 29.1211 29.1629 28.9496 28.9513 28.9496Z" fill="black"/>
</g>
<rect x="19" y="43" width="14" height="14" rx="7" fill="#23C5B6"/>
<path fill-rule="evenodd" clip-rule="evenodd" d="M26.4976 46.7146C26.4976 46.458 26.2896 46.25 26.033 46.25C25.7764 46.25 25.5684 46.458 25.5684 46.7146L25.5684 49.5024L22.7146 49.5024C22.458 49.5024 22.25 49.7104 22.25 49.967C22.25 50.2236 22.458 50.4316 22.7146 50.4316H25.5684L25.5684 53.2854C25.5684 53.542 25.7764 53.75 26.033 53.75C26.2896 53.75 26.4976 53.542 26.4976 53.2854L26.4976 50.4316H29.2854C29.542 50.4316 29.75 50.2236 29.75 49.967C29.75 49.7104 29.542 49.5024 29.2854 49.5024L26.4976 49.5024L26.4976 46.7146Z" fill="white"/>
<defs>
<clipPath id="clip0">
<rect width="23" height="23" fill="white" transform="translate(14 14)"/>
</clipPath>
</defs>
</svg>
