<svg width="32" height="32" viewBox="0 0 32 32" fill="none" xmlns="http://www.w3.org/2000/svg">
<rect width="32" height="32" rx="16" fill="#2F80ED"/>
<g clip-path="url(#clip0)">
<path d="M21.3336 21.7771C21.243 21.7777 21.1525 21.7725 21.0626 21.7616C21.0159 21.7571 20.9692 21.7505 20.9225 21.7438C20.1315 21.626 19.5605 21.2061 18.8895 21.1261L18.7207 21.1772C18.6322 21.1547 18.5424 21.1376 18.4517 21.1261L18.374 21.1484L16.3165 21.7661C16.1532 21.8066 15.9866 21.8319 15.8188 21.8415C15.7033 21.8327 15.5943 21.8194 15.4921 21.8016C15.4077 21.7882 15.3277 21.7704 15.2522 21.7527L13.1125 21.1261C13.0224 21.1365 12.9333 21.1535 12.8459 21.1772C12.808 21.1861 12.7703 21.1972 12.7325 21.2083C12.1059 21.3905 11.5149 21.7771 10.6683 21.7771C10.6124 21.7777 10.5565 21.7725 10.5017 21.7616C10.4768 21.7577 10.4523 21.7518 10.4284 21.7438C9.5263 21.5061 9.36854 19.9307 9.77956 19.5551C9.92399 19.4063 10.048 19.239 10.1484 19.0575C10.1883 18.9931 10.2262 18.9241 10.2661 18.853H21.7358C21.7758 18.9241 21.8135 18.9931 21.8535 19.0575C21.9539 19.239 22.078 19.4063 22.2224 19.5551C22.6668 19.9618 22.4445 21.7771 21.3336 21.7771Z" fill="#1566BF"/>
<path d="M20.9225 21.7438C20.8416 21.7665 20.7577 21.7778 20.6737 21.7771C20.5831 21.7777 20.4926 21.7725 20.4026 21.7616C19.5982 21.6838 19.025 21.2728 18.374 21.1484C18.3273 21.1394 18.2784 21.1328 18.2296 21.1261L18.0607 21.1772C17.9723 21.1547 17.8824 21.1376 17.7918 21.1261L15.6566 21.7661C15.601 21.7794 15.5455 21.7905 15.4921 21.8016C15.3819 21.8212 15.2706 21.8345 15.1589 21.8415C14.9679 21.8275 14.7784 21.7978 14.5923 21.7527L12.7325 21.2083L12.4526 21.1261C12.3625 21.1365 12.2734 21.1535 12.1859 21.1772C11.6259 21.315 11.1082 21.6416 10.4284 21.7438C9.5263 21.5061 9.36854 19.9307 9.77956 19.5551C9.92399 19.4063 10.048 19.239 10.1484 19.0575C10.1883 18.9931 10.2262 18.9241 10.2661 18.853H21.0759C21.1159 18.9241 21.1536 18.9931 21.1936 19.0575C21.294 19.239 21.4181 19.4063 21.5625 19.5551C21.9713 19.9285 21.8158 21.4971 20.9225 21.7438Z" fill="#2295F2"/>
<path d="M22.444 16.6665C22.4513 17.3772 22.2489 18.0744 21.8619 18.6706C21.822 18.7329 21.7798 18.7929 21.7353 18.8528H10.2657C10.2212 18.7929 10.179 18.7329 10.139 18.6706C9.75211 18.0744 9.54961 17.3772 9.55683 16.6665C9.56954 15.832 9.79432 15.0147 10.2101 14.2912L12.3298 12.0226C13.0776 11.5178 13.9207 11.1715 14.8073 11.005L16.6448 10.9849L17.0626 10.9805C17.9969 11.1363 18.8867 11.4917 19.6711 12.0226L21.7908 14.2912C22.2065 15.0147 22.4314 15.832 22.444 16.6665Z" fill="#1566BF"/>
<path d="M21.7775 16.6664C21.7851 17.3756 21.5864 18.072 21.2058 18.6705C21.1665 18.7328 21.125 19.0505 21.0814 19.1104H10.2531C10.2086 19.0505 10.1679 18.7328 10.1286 18.6705C9.74796 18.072 9.54932 17.3756 9.55685 16.6664C9.56895 15.8334 9.78956 15.0168 10.1985 14.2911L12.2803 12.0225C13.0123 11.5187 13.8409 11.1722 14.7135 11.0049L16.5182 10.9849C17.4284 11.1438 18.2935 11.4978 19.0541 12.0225L21.1358 14.2911C21.5448 15.0168 21.7654 15.8334 21.7775 16.6664Z" fill="#2295F2"/>
<path d="M18.4513 21.126C18.5419 21.1375 18.6317 21.1546 18.7202 21.1771L16.7537 21.766C16.448 21.841 16.1321 21.8665 15.8184 21.8414C15.9862 21.8318 16.1528 21.8065 16.316 21.766L18.4513 21.126Z" fill="#4482C3"/>
<path d="M15.8186 21.8414C15.4813 21.8647 15.1424 21.8347 14.8142 21.7526L12.8457 21.1771C12.9332 21.1534 13.0223 21.1364 13.1123 21.126L15.252 21.7526C15.4381 21.7977 15.6276 21.8274 15.8186 21.8414Z" fill="#4482C3"/>
<path d="M15.3342 20.364V21.3328C15.3344 21.4768 15.3065 21.6194 15.252 21.7527C15.1109 22.0957 14.8087 22.3463 14.4455 22.4215C14.2988 22.4511 14.1477 22.4511 14.0011 22.4215C13.4827 22.3175 13.1105 21.8614 13.1123 21.3328V20.0974C13.1124 19.9643 13.1721 19.8384 13.2749 19.7541C13.3777 19.6698 13.513 19.6359 13.6434 19.6619L14.9765 19.9285C15.1843 19.9698 15.3341 20.1521 15.3342 20.364Z" fill="#2295F2"/>
<path d="M18.889 20.0974V21.2794C18.8903 21.8133 18.5302 22.2804 18.0136 22.4148C17.9234 22.4369 17.8308 22.4465 17.738 22.4437C17.6813 22.4415 17.6248 22.4349 17.5692 22.4237C17.3507 22.3817 17.1496 22.2758 16.9915 22.1193C16.8909 22.0174 16.8103 21.8976 16.7537 21.7661C16.6965 21.6288 16.667 21.4815 16.667 21.3328V20.364C16.6672 20.1521 16.8169 19.9698 17.0248 19.9285L18.358 19.6619C18.4883 19.6359 18.6235 19.6698 18.7264 19.7541C18.8292 19.8384 18.8889 19.9643 18.889 20.0974Z" fill="#2295F2"/>
<path d="M15.3586 11.3649C15.2047 11.3457 15.0625 11.273 14.9565 11.1598C14.7074 10.8883 14.4258 10.6483 14.1184 10.4453C14.0362 10.3941 13.9966 10.2955 14.0206 10.2017C14.0445 10.1079 14.1265 10.0404 14.2232 10.0349C14.6032 10.0087 14.9839 10.0733 15.3341 10.2231C15.4534 9.89912 15.7228 9.65328 16.0563 9.56408C16.1338 9.54567 16.2152 9.57049 16.2693 9.62897C16.3233 9.68756 16.3415 9.77066 16.3169 9.84643C16.2586 10.0409 16.227 10.2423 16.2229 10.4453C16.5463 10.2263 16.9126 10.0787 17.2975 10.0124C17.3888 9.99748 17.4799 10.0408 17.526 10.1212C17.5721 10.2014 17.5636 10.3019 17.5046 10.3733C17.3048 10.5949 17.1344 10.8414 16.9977 11.1065C16.8709 11.3707 16.5878 11.5225 16.2975 11.4821L15.3586 11.3649Z" fill="#1566BF"/>
<path d="M12.6318 13.8758L12.3363 14.2246C12.2347 14.3125 12.1219 14.3865 12.0008 14.4445C11.5709 14.5517 11.1227 14.5639 10.6877 14.4801C10.5404 14.4479 10.3984 14.3956 10.2655 14.3246C9.8678 14.1046 9.55666 13.6802 9.55666 12.8892C9.55605 12.6828 9.56795 12.4765 9.59226 12.2715C9.60772 12.1082 9.63142 11.9458 9.66336 11.7849C9.79263 11.0159 10.0875 10.2843 10.5277 9.64079C10.5832 9.56989 10.676 9.53958 10.7627 9.564C10.8492 9.5883 10.9127 9.66245 10.9232 9.75186C11.0686 10.8099 11.7192 11.7313 12.6674 12.2226C12.6674 12.2226 13.0629 13.147 12.6318 13.8758Z" fill="#FDC008"/>
<path d="M22.4445 12.8892C22.4445 13.6802 22.1335 14.1046 21.7358 14.3246C21.6029 14.3956 21.4608 14.4479 21.3136 14.4801C20.8785 14.5639 20.4303 14.5517 20.0004 14.4445C18.8895 13.778 19.3339 12.2226 19.3339 12.2226C20.2821 11.7313 20.9326 10.8099 21.078 9.75186C21.0886 9.66245 21.152 9.5883 21.2386 9.564C21.3253 9.53958 21.4181 9.56989 21.4736 9.64079C21.9137 10.2843 22.2087 11.0159 22.3379 11.7849C22.3699 11.9458 22.3936 12.1082 22.409 12.2715C22.4334 12.4765 22.4453 12.6828 22.4445 12.8892Z" fill="#FDC008"/>
<path d="M14.0012 13.3335C13.9269 13.3334 13.8527 13.3379 13.779 13.3468C12.7706 13.4638 12.0098 14.318 12.0098 15.3332C12.0098 16.3484 12.7706 17.2025 13.779 17.3196C13.8527 17.3285 13.9269 17.333 14.0012 17.3329C15.1056 17.3329 16.0009 16.4376 16.0009 15.3332C16.0009 14.2288 15.1056 13.3335 14.0012 13.3335Z" fill="#F4F4F4"/>
<path d="M18.0002 13.3335C17.926 13.3334 17.8517 13.3379 17.778 13.3468C16.7695 13.4638 16.0088 14.318 16.0088 15.3332C16.0088 16.3484 16.7695 17.2025 17.778 17.3196C17.8517 17.3285 17.926 17.333 18.0002 17.3329C19.1046 17.3329 19.9999 16.4376 19.9999 15.3332C19.9999 14.2288 19.1046 13.3335 18.0002 13.3335Z" fill="#F4F4F4"/>
<path d="M15.3342 15.3331C15.3342 16.0694 14.7374 16.6664 14.0011 16.6664C13.2648 16.6664 12.668 16.0694 12.668 15.3331C12.668 14.5968 13.2648 14 14.0011 14C14.7374 14 15.3342 14.5968 15.3342 15.3331Z" fill="#E81E63"/>
<path d="M19.3334 15.3331C19.3334 16.0694 18.7365 16.6664 18.0002 16.6664C17.2639 16.6664 16.667 16.0694 16.667 15.3331C16.667 14.5968 17.2639 14 18.0002 14C18.7365 14 19.3334 14.5968 19.3334 15.3331Z" fill="#E81E63"/>
<path d="M14.6672 15.3335C14.6672 15.7017 14.3688 16.0001 14.0006 16.0001C13.6325 16.0001 13.334 15.7017 13.334 15.3335C13.334 14.9654 13.6325 14.667 14.0006 14.667C14.3688 14.667 14.6672 14.9654 14.6672 15.3335Z" fill="#37474F"/>
<path d="M18.6671 15.3335C18.6671 15.7017 18.3687 16.0001 18.0006 16.0001C17.6324 16.0001 17.334 15.7017 17.334 15.3335C17.334 14.9654 17.6324 14.667 18.0006 14.667C18.3687 14.667 18.6671 14.9654 18.6671 15.3335Z" fill="#37474F"/>
<path d="M13.7786 14.4448C13.7786 14.813 13.48 15.1115 13.1119 15.1115C12.7437 15.1115 12.4453 14.813 12.4453 14.4448C12.4453 14.0767 12.7437 13.7783 13.1119 13.7783C13.48 13.7783 13.7786 14.0767 13.7786 14.4448Z" fill="#F4F4F4"/>
<path d="M17.7785 14.4448C17.7785 14.813 17.48 15.1115 17.1119 15.1115C16.7437 15.1115 16.4453 14.813 16.4453 14.4448C16.4453 14.0767 16.7437 13.7783 17.1119 13.7783C17.48 13.7783 17.7785 14.0767 17.7785 14.4448Z" fill="#F4F4F4"/>
<path d="M22.6678 12.8892C22.6678 11.3533 22.0585 10.023 21.649 9.50373C21.5383 9.36357 21.3545 9.30335 21.1823 9.35085C21.0101 9.39825 20.8831 9.54421 20.8597 9.72119C20.7547 10.5335 20.3238 11.268 19.6662 11.756C18.9817 11.3159 18.2246 11.0008 17.43 10.8253C17.5031 10.7264 17.578 10.6345 17.6431 10.5558L17.6773 10.5144C17.7957 10.3711 17.8125 10.1693 17.7192 10.0085C17.626 9.84772 17.4425 9.76187 17.2593 9.7934C16.9962 9.84121 16.7402 9.92237 16.4977 10.035C16.5079 9.99052 16.5199 9.94811 16.5302 9.9121C16.5788 9.75567 16.5381 9.5852 16.4241 9.46752C16.3157 9.35207 16.152 9.30651 15.9995 9.34933C15.6741 9.43578 15.396 9.64734 15.2256 9.93783C14.8979 9.8349 14.5542 9.79249 14.2113 9.81303C14.0172 9.82361 13.8524 9.95909 13.8047 10.1477C13.7552 10.3356 13.8356 10.5338 14.0022 10.634C14.121 10.7089 14.2343 10.7919 14.3415 10.8826C13.6325 11.065 12.9569 11.359 12.3402 11.7536C11.684 11.265 11.2527 10.5321 11.1441 9.72119C11.1207 9.54421 10.9937 9.39835 10.8216 9.35096C10.6494 9.30356 10.4656 9.36387 10.3549 9.50393C9.94543 10.023 9.33617 11.3533 9.33617 12.8892C9.33617 13.5447 9.53614 14.0375 9.92651 14.3584C9.55008 15.0703 9.34777 15.8613 9.33617 16.6666C9.32743 17.451 9.56065 18.2191 10.0041 18.8662C9.90281 19.0566 9.7773 19.2331 9.63053 19.391C9.26955 19.7217 9.27972 20.5289 9.49678 21.0882C9.72187 21.6659 10.1492 21.9991 10.6693 21.9991C11.2116 21.9802 11.7445 21.8525 12.2365 21.6234C12.4498 21.5321 12.669 21.4551 12.8926 21.393C12.919 21.9835 13.3309 22.486 13.9048 22.6278C14.4785 22.7695 15.0771 22.5165 15.3753 22.0063C15.791 22.0894 16.2186 22.0937 16.6358 22.0192C16.6922 22.1127 16.7593 22.1993 16.8358 22.2771C17.0864 22.5267 17.4258 22.6665 17.7795 22.6658H17.7979C17.7999 22.6658 17.8015 22.6646 17.8033 22.6646C18.5062 22.6515 19.0784 22.0953 19.1113 21.393C19.335 21.4551 19.5542 21.5321 19.7675 21.6234C20.2593 21.8525 20.7923 21.9802 21.3346 21.9991C21.8548 21.9991 22.2821 21.6659 22.5071 21.0882C22.7242 20.5298 22.7346 19.7226 22.3738 19.3931C22.2269 19.2344 22.1011 19.0573 21.9998 18.8662C22.4433 18.2191 22.6765 17.451 22.6678 16.6666C22.6562 15.8613 22.4539 15.0703 22.0774 14.3584C22.4678 14.0375 22.6678 13.5447 22.6678 12.8892ZM21.3002 9.77855C21.6924 10.3545 21.9621 11.0049 22.0927 11.6894C21.8492 11.6031 21.593 11.558 21.3346 11.5561C21.2119 11.5561 21.1124 11.6555 21.1124 11.7783C21.1124 11.901 21.2119 12.0005 21.3346 12.0005C21.6279 12.0042 21.9165 12.0743 22.179 12.2053C22.2078 12.4322 22.2227 12.6606 22.2234 12.8892C22.2234 13.4214 22.0705 13.8085 21.7689 14.0394C21.7443 14.0582 21.7181 14.0743 21.6922 14.0908C21.5185 13.3185 21.1268 12.7601 20.5454 12.4688C20.4357 12.4136 20.302 12.4578 20.2467 12.5675C20.1915 12.6772 20.2357 12.8109 20.3454 12.8661C20.9263 13.1576 21.172 13.7534 21.2741 14.2626C20.8813 14.3381 20.477 14.3297 20.0876 14.2377C19.31 13.7456 19.4613 12.6898 19.5266 12.3744C20.4956 11.8389 21.1535 10.8759 21.3002 9.77855ZM19.7793 15.3333C19.7793 16.3151 18.9835 17.111 18.0017 17.111C17.02 17.111 16.2241 16.3151 16.2241 15.3333C16.2241 14.3516 17.02 13.5558 18.0017 13.5558C18.983 13.5569 19.7781 14.3521 19.7793 15.3333ZM14.7332 11.2484C14.8592 11.3786 14.9408 11.4741 14.9427 11.4765C15.0215 11.5707 15.1616 11.5832 15.2558 11.5045C15.35 11.4259 15.3625 11.2856 15.2838 11.1914C14.9796 10.8333 14.6275 10.5187 14.2376 10.2565C14.5787 10.2327 14.9208 10.2894 15.2361 10.4218C15.2944 10.4508 15.3625 10.4527 15.4224 10.4271C15.4822 10.4013 15.5279 10.3507 15.5471 10.2885C15.6405 10.0393 15.8482 9.85036 16.1051 9.78099C16.0405 9.99662 16.0058 10.2201 16.002 10.4452C16.002 10.5293 16.0495 10.6062 16.1247 10.6439C16.2001 10.6816 16.2901 10.6734 16.3575 10.6229C16.6526 10.4259 16.9855 10.2927 17.3351 10.2318L17.3013 10.2727C17.0489 10.5771 16.6685 11.037 16.6685 11.5561C16.6685 11.6788 16.7681 11.7783 16.8907 11.7783C17.0135 11.7783 17.113 11.6788 17.113 11.5561C17.1165 11.4438 17.1425 11.3332 17.1894 11.231C17.9163 11.372 18.6132 11.6381 19.2491 12.0173L19.2431 12.0203C19.1837 12.0472 19.1392 12.099 19.1214 12.1618C19.019 12.5598 18.9983 12.9743 19.0607 13.3805C18.5267 13.0904 17.8969 13.0321 17.3186 13.2194C16.7404 13.4067 16.2645 13.8231 16.002 14.3713C15.7485 13.8396 15.2935 13.431 14.7376 13.2363C14.1817 13.0414 13.5712 13.0765 13.0412 13.3337C13.0811 12.9266 13.0235 12.5159 12.8732 12.1356C12.8514 12.0846 12.8114 12.0436 12.7608 12.0207L12.7552 12.018C13.3673 11.6536 14.0358 11.3935 14.7332 11.2484ZM14.0022 13.5558C14.9839 13.5558 15.7797 14.3516 15.7797 15.3333C15.7797 16.3151 14.9839 17.111 14.0022 17.111C13.0205 17.111 12.2247 16.3151 12.2247 15.3333C12.2258 14.3521 13.021 13.5569 14.0022 13.5558ZM9.78055 12.8892C9.78127 12.6606 9.79612 12.4322 9.825 12.2053C10.0874 12.0743 10.3761 12.0042 10.6693 12.0005C10.7921 12.0005 10.8916 11.901 10.8916 11.7783C10.8916 11.6555 10.7921 11.5561 10.6693 11.5561C10.411 11.558 10.1548 11.6031 9.91115 11.6894C10.0415 11.0055 10.3113 10.3558 10.7038 9.78079C10.8517 10.8829 11.5155 11.8488 12.4913 12.382C12.5642 12.5951 12.7404 13.2361 12.4498 13.7467C12.3495 13.8448 12.2588 13.9521 12.1787 14.0673C12.1008 14.1331 12.0156 14.1895 11.9245 14.2353C11.5324 14.3301 11.1247 14.3396 10.7286 14.2633C10.8308 13.7539 11.0764 13.1574 11.6577 12.8657C11.7673 12.8105 11.8115 12.6768 11.7563 12.5671C11.7011 12.4573 11.5673 12.4132 11.4577 12.4684C10.8762 12.7601 10.4845 13.3185 10.3109 14.0904C10.2854 14.0739 10.2596 14.0582 10.2352 14.0398C9.93383 13.8094 9.78055 13.4225 9.78055 12.8892ZM21.5617 18.7156C21.3433 18.9717 21.0826 19.1883 20.7909 19.3562C20.681 19.4111 20.6365 19.5445 20.6913 19.6544C20.7462 19.7642 20.8797 19.8088 20.9895 19.754C21.25 19.6127 21.4877 19.4328 21.6946 19.2207C21.7991 19.4019 21.9264 19.569 22.0734 19.7179C22.2169 19.8495 22.2979 20.3981 22.0929 20.9256C22.0012 21.1612 21.7821 21.5548 21.3346 21.5548C20.849 21.535 20.3721 21.4181 19.9325 21.2106C19.6679 21.0963 19.3935 21.0058 19.1126 20.9402V19.555C19.1126 19.4323 19.0132 19.3329 18.8905 19.3329C18.7677 19.3329 18.6683 19.4323 18.6683 19.555V21.1104C18.6683 21.1133 18.6699 21.1155 18.6699 21.1184C18.6699 21.1213 18.6683 21.1233 18.6683 21.1259V21.3326C18.6666 21.7332 18.3972 22.0832 18.0104 22.1871L18.0017 21.7723C17.9992 21.6514 17.9004 21.5548 17.7795 21.5548H17.7748C17.7159 21.556 17.6599 21.5806 17.6191 21.6231C17.5783 21.6657 17.556 21.7227 17.5574 21.7817L17.566 22.1925C17.4098 22.1553 17.2666 22.0762 17.1518 21.9638C17.0709 21.8818 17.006 21.7854 16.9603 21.6797C16.9142 21.5697 16.8906 21.4517 16.8907 21.3326V19.9995C16.8907 19.8767 16.7913 19.7772 16.6685 19.7772C16.5458 19.7772 16.4464 19.8767 16.4464 19.9995V21.3326C16.4464 21.4208 16.455 21.5089 16.4721 21.5954C16.1605 21.6411 15.8436 21.6367 15.5334 21.5825C15.5494 21.5002 15.5575 21.4165 15.5576 21.3326V19.9995C15.5576 19.8767 15.4581 19.7772 15.3354 19.7772C15.2127 19.7772 15.1132 19.8767 15.1132 19.9995V21.3326C15.1139 21.7377 14.8392 22.0915 14.4466 22.1914V21.777C14.4466 21.6542 14.3471 21.5548 14.2245 21.5548C14.1017 21.5548 14.0022 21.6542 14.0022 21.777V22.1901C13.608 22.0934 13.332 21.7385 13.3356 21.3326V21.1259C13.3356 21.1233 13.3341 21.1211 13.3341 21.1184C13.3341 21.1158 13.3356 21.1133 13.3356 21.1104V19.555C13.3356 19.4323 13.2361 19.3329 13.1135 19.3329C12.9907 19.3329 12.8912 19.4323 12.8912 19.555V20.9402C12.6105 21.0058 12.3361 21.0963 12.0713 21.2106C11.6318 21.4181 11.155 21.535 10.6693 21.5548C10.2218 21.5548 10.0027 21.1612 9.91095 20.9264C9.7061 20.3989 9.78696 19.8504 9.93139 19.7179C10.0782 19.5694 10.2052 19.4026 10.3094 19.2218C10.5162 19.434 10.7538 19.6138 11.0144 19.7551C11.1242 19.8099 11.2577 19.7653 11.3125 19.6555C11.3675 19.5456 11.3228 19.4122 11.2131 19.3573C10.9218 19.1891 10.6612 18.9727 10.4425 18.7172C10.004 18.1241 9.7715 17.404 9.78055 16.6666C9.79164 15.9424 9.97198 15.231 10.3071 14.589C10.6007 14.7075 10.9149 14.766 11.2315 14.7608C11.4468 14.7601 11.6617 14.7398 11.8734 14.7001C11.5422 15.8101 12.1201 16.988 13.2005 17.4055C14.2809 17.823 15.5007 17.3397 16.002 16.2954C16.5023 17.3411 17.723 17.8258 18.8043 17.408C19.8856 16.9901 20.4634 15.8106 20.1306 14.7001C20.3422 14.7398 20.5571 14.7601 20.7725 14.7608C21.089 14.766 21.4033 14.7075 21.6967 14.589C22.032 15.231 22.2123 15.9424 22.2234 16.6666C22.2321 17.4035 21.9998 18.123 21.5617 18.7156Z" fill="black"/>
<path d="M14.0011 16.2223C14.4919 16.2223 14.8898 15.8244 14.8898 15.3336C14.8898 14.8427 14.4919 14.4448 14.0011 14.4448C13.5102 14.4448 13.1123 14.8427 13.1123 15.3336C13.1123 15.8244 13.5102 16.2223 14.0011 16.2223ZM14.0011 14.8892C14.2465 14.8892 14.4454 15.0882 14.4454 15.3336C14.4454 15.579 14.2465 15.778 14.0011 15.778C13.7556 15.778 13.5567 15.579 13.5567 15.3336C13.5567 15.0882 13.7556 14.8892 14.0011 14.8892Z" fill="black"/>
<path d="M18.0001 14.4448C17.5092 14.4448 17.1113 14.8427 17.1113 15.3336C17.1113 15.8244 17.5092 16.2223 18.0001 16.2223C18.491 16.2223 18.8889 15.8244 18.8889 15.3336C18.8889 14.8427 18.491 14.4448 18.0001 14.4448ZM18.0001 15.778C17.7547 15.778 17.5557 15.579 17.5557 15.3336C17.5557 15.0882 17.7547 14.8892 18.0001 14.8892C18.2455 14.8892 18.4445 15.0882 18.4445 15.3336C18.4445 15.579 18.2455 15.778 18.0001 15.778Z" fill="black"/>
<path d="M18.001 18C17.8782 18 17.7787 18.0995 17.7787 18.2221C17.7787 18.4676 17.5798 18.6665 17.3343 18.6665H14.6681C14.4226 18.6665 14.2237 18.4676 14.2237 18.2221C14.2237 18.0995 14.1242 18 14.0014 18C13.8788 18 13.7793 18.0995 13.7793 18.2221C13.7793 18.713 14.1772 19.1109 14.6681 19.1109H17.3343C17.8252 19.1109 18.2231 18.713 18.2231 18.2221C18.2231 18.0995 18.1236 18 18.001 18Z" fill="black"/>
</g>
<rect width="32" height="32" rx="16" fill="#333333"/>
<g clip-path="url(#clip1)">
<path d="M19.0692 15.2783C18.7702 15.2783 18.5276 15.0357 18.5276 14.7367V11.6152C18.5276 11.2989 18.3737 11.0201 18.1058 10.8511C17.8386 10.6821 17.5201 10.664 17.2341 10.8013L17.0347 10.8973C16.6758 11.0584 16.28 11.0259 15.9644 10.8208C15.6481 10.6149 15.4588 10.2668 15.4588 9.8891L14.3748 9.86165C13.8772 9.86165 13.472 10.2668 13.472 10.7644V14.7367C13.472 15.0357 13.2293 15.2783 12.9303 15.2783C12.6313 15.2783 12.3887 15.0357 12.3887 14.7367V10.7644C12.3887 9.66882 13.2792 8.77832 14.3748 8.77832H15.4307C16.0431 8.77832 16.5414 9.27665 16.5414 9.8891L16.7653 9.82482C17.3857 9.52726 18.1022 9.56843 18.6828 9.9346C19.2635 10.3008 19.6109 10.9284 19.6109 11.6152V14.7367C19.6109 15.0357 19.3682 15.2783 19.0692 15.2783Z" fill="white"/>
<path d="M13.4139 23.9447C13.3121 23.9447 13.2102 23.9368 13.1084 23.9202L11.7846 23.7093C10.8789 23.5649 10.2217 22.8138 10.2217 21.9233V20.4615C10.2217 20.226 10.3741 20.0173 10.598 19.9458C11.9861 19.5031 13.5121 19.5031 14.9002 19.9458C15.1248 20.0173 15.2772 20.226 15.2772 20.4615V22.1349C15.2772 22.6549 15.0468 23.1496 14.6438 23.4934C14.2993 23.7866 13.8638 23.9447 13.4139 23.9447ZM13.2788 22.8506C13.5208 22.8881 13.7606 22.8224 13.9404 22.6693C14.1043 22.5299 14.1939 22.34 14.1939 22.1349V20.871C13.25 20.6384 12.249 20.6384 11.305 20.871V21.9233C11.305 22.2779 11.5787 22.579 11.955 22.639L13.2788 22.8506Z" fill="white"/>
<path d="M10.7635 21.4173H9.31901C9.02001 21.4173 8.77734 21.1747 8.77734 20.8757C8.77734 20.5767 9.02001 20.334 9.31901 20.334H10.7635C11.0625 20.334 11.3051 20.5767 11.3051 20.8757C11.3051 21.1747 11.0625 21.4173 10.7635 21.4173Z" fill="white"/>
<path d="M18.585 23.9447C18.1351 23.9447 17.6988 23.7866 17.3551 23.4934C16.9521 23.1496 16.7217 22.6549 16.7217 22.1349V20.4615C16.7217 20.226 16.8741 20.0173 17.098 19.9458C18.4861 19.5031 20.0121 19.5031 21.4002 19.9458C21.6248 20.0173 21.7772 20.226 21.7772 20.4615V21.9233C21.7772 22.8138 21.12 23.5641 20.2143 23.7093L18.8905 23.9202C18.7887 23.9368 18.6868 23.9447 18.585 23.9447ZM18.8053 23.3857H18.8125H18.8053ZM17.805 20.871V22.1349C17.805 22.34 17.8946 22.5299 18.0585 22.6693C18.2376 22.8224 18.4781 22.8881 18.7201 22.8506L20.0439 22.6397C20.4202 22.5798 20.6939 22.2786 20.6939 21.924V20.8717C19.75 20.6384 18.749 20.6384 17.805 20.871Z" fill="white"/>
<path d="M22.6805 21.2367H21.4167C21.1177 21.2367 20.875 20.994 20.875 20.695C20.875 20.396 21.1177 20.1533 21.4167 20.1533H22.6805C22.9795 20.1533 23.2222 20.396 23.2222 20.695C23.2222 20.994 22.9795 21.2367 22.6805 21.2367Z" fill="white"/>
<path d="M17.2638 21.4173H14.736C14.437 21.4173 14.1943 21.1747 14.1943 20.8757C14.1943 20.5767 14.437 20.334 14.736 20.334H17.2638C17.5628 20.334 17.8054 20.5767 17.8054 20.8757C17.8054 21.1747 17.5628 21.4173 17.2638 21.4173Z" fill="white"/>
<path d="M15.9997 18.1674C11.6931 18.1674 7.33301 17.175 7.33301 15.2785C7.33301 13.4209 11.2034 12.768 12.8674 12.5738C13.1585 12.5405 13.4329 12.7514 13.4683 13.049C13.503 13.3458 13.2899 13.6152 12.9931 13.6499C9.75823 14.0276 8.41634 14.8971 8.41634 15.2785C8.41634 15.8916 11.0929 17.084 15.9997 17.084C20.9065 17.084 23.583 15.8916 23.583 15.2785C23.583 14.8971 22.2411 14.0276 19.0063 13.6499C18.7095 13.6152 18.4964 13.3458 18.5311 13.049C18.5657 12.7514 18.8395 12.542 19.132 12.5738C20.796 12.768 24.6663 13.4209 24.6663 15.2785C24.6663 17.175 20.3063 18.1674 15.9997 18.1674Z" fill="white"/>
</g>
<defs>
<clipPath id="clip0">
<rect width="13.3333" height="13.3333" fill="white" transform="translate(9.33301 9.3335)"/>
</clipPath>
<clipPath id="clip1">
<rect width="17.3333" height="17.3333" fill="white" transform="translate(7.33301 7.3335)"/>
</clipPath>
</defs>
</svg>
