<?xml version="1.0" encoding="iso-8859-1"?>
<!-- Generator: Adobe Illustrator 19.0.0, SVG Export Plug-In . SVG Version: 6.00 Build 0)  -->
<svg version="1.1" id="Capa_1" xmlns="http://www.w3.org/2000/svg" xmlns:xlink="http://www.w3.org/1999/xlink" x="0px" y="0px"
	 viewBox="0 0 511.138 511.138" style="enable-background:new 0 0 511.138 511.138;" xml:space="preserve">
<g>
	<g>
		<path d="M467.822,277.333c-4.267-51.2-27.733-100.267-66.133-134.4L416.622,128l17.067,17.067l29.867-29.867l-64-64
			l-29.867,29.867l17.067,17.067l-19.2,19.2c-27.733-17.067-57.6-25.6-87.467-29.867v-44.8h42.667V0H192.622v42.667h42.667v44.8
			c-117.333,10.667-204.8,115.2-192,232.533c12.8,117.333,117.333,202.667,234.667,189.867
			C395.289,497.067,480.622,394.667,467.822,277.333z M258.756,467.2c-93.867,0-172.8-74.667-172.8-168.533S162.756,128,256.622,128
			s170.667,76.8,170.667,170.667S352.622,467.2,258.756,467.2z"/>
	</g>
</g>
<g>
	<g>
		<path d="M363.289,277.333h-85.333V192c0-12.8-8.533-21.333-21.333-21.333c-70.4,0-128,57.6-128,128s57.6,128,128,128
			s128-57.6,128-128C384.622,285.867,376.089,277.333,363.289,277.333z M256.622,384c-46.933,0-85.333-38.4-85.333-85.333
			c0-38.4,25.6-72.533,64-83.2v83.2c0,12.8,8.533,21.333,21.333,21.333h83.2C329.156,358.4,295.022,384,256.622,384z"/>
	</g>
</g>
<g>
</g>
<g>
</g>
<g>
</g>
<g>
</g>
<g>
</g>
<g>
</g>
<g>
</g>
<g>
</g>
<g>
</g>
<g>
</g>
<g>
</g>
<g>
</g>
<g>
</g>
<g>
</g>
<g>
</g>
</svg>
