<svg width="17" height="16" viewBox="0 0 17 16" fill="none" xmlns="http://www.w3.org/2000/svg">
<path fill-rule="evenodd" clip-rule="evenodd" d="M11.9829 0.0502578C10.5109 -0.0184089 6.8649 -0.0150756 5.39157 0.0502578C4.0969 0.110924 2.9549 0.423591 2.03423 1.34426C0.65736 2.72113 0.670061 4.52614 0.687956 7.06932C0.690059 7.36816 0.692234 7.67719 0.692234 7.99693C0.692234 8.29617 0.690631 8.58537 0.689081 8.86504C0.674513 11.4937 0.664613 13.28 2.03423 14.6496C3.41363 16.0284 5.23854 16.0148 7.75299 15.9961C8.05425 15.9939 8.36542 15.9916 8.6869 15.9916H8.73029C11.7796 15.9916 12.8387 15.9916 13.9236 15.5716C15.4056 14.9963 16.5242 13.6716 16.6336 11.2923C16.7029 9.81959 16.6989 6.17426 16.6336 4.70093C16.5016 1.89226 14.9942 0.188924 11.9829 0.0502578ZM14.3129 13.6316C13.384 14.5605 12.1237 14.5576 9.40157 14.5514C9.16791 14.5508 8.92348 14.5503 8.66757 14.5503L8.20969 14.5505C5.20912 14.5526 3.95163 14.5535 3.02223 13.6216C2.05534 12.6593 2.07133 11.1952 2.09454 9.07025C2.09829 8.72644 2.10223 8.36534 2.10223 7.98626C2.10223 7.66479 2.09935 7.35118 2.09656 7.04636C2.06729 3.85866 2.04686 1.63373 5.4209 1.46092L5.45916 1.45957C6.27825 1.43062 6.55268 1.42092 8.65823 1.42092L8.68823 1.44092C8.99264 1.44092 9.29143 1.43819 9.58343 1.43552L9.58346 1.43552C12.6993 1.40704 15.0426 1.38562 15.1956 4.76493C15.2336 5.60826 15.2422 5.86159 15.2422 7.99626C15.2422 8.18761 15.2424 8.37238 15.2425 8.55089L15.2425 8.55258C15.2453 11.4464 15.2465 12.6936 14.3129 13.6316ZM8.68688 3.89062C6.41821 3.89062 4.58154 5.72929 4.58154 7.99596C4.58154 10.2646 6.42021 12.1013 8.68688 12.1013C10.9555 12.1013 12.7922 10.2626 12.7922 7.99596C12.7922 5.72729 10.9535 3.89062 8.68688 3.89062ZM8.68688 10.6606C7.21421 10.6606 6.02221 9.46796 6.02221 7.99596C6.02221 6.52396 7.21488 5.33129 8.68688 5.33129C10.1589 5.33129 11.3515 6.52396 11.3515 7.99596C11.3522 9.46796 10.1595 10.6606 8.68688 10.6606ZM13.9143 3.72886C13.9143 4.25869 13.4848 4.6882 12.9549 4.6882C12.4251 4.6882 11.9956 4.25869 11.9956 3.72886C11.9956 3.19904 12.4251 2.76953 12.9549 2.76953C13.4848 2.76953 13.9143 3.19904 13.9143 3.72886Z" fill="white"/>
</svg>
