<svg width="21" height="18" viewBox="0 0 21 18" fill="none" xmlns="http://www.w3.org/2000/svg">
<path d="M20.0068 2.79698C19.2631 3.12323 18.4706 3.33948 17.6443 3.44448C18.4943 2.93698 19.1431 2.13948 19.4481 1.17823C18.6556 1.65073 17.7806 1.98448 16.8481 2.17073C16.0956 1.36948 15.0231 0.87323 13.8531 0.87323C11.5831 0.87323 9.75559 2.71573 9.75559 4.97448C9.75559 5.29948 9.78309 5.61198 9.85059 5.90948C6.44184 5.74323 3.42559 4.10948 1.39934 1.62073C1.04559 2.23448 0.838086 2.93698 0.838086 3.69323C0.838086 5.11323 1.56934 6.37198 2.65934 7.10073C2.00059 7.08823 1.35434 6.89698 0.806836 6.59573C0.806836 6.60823 0.806836 6.62448 0.806836 6.64073C0.806836 8.63323 2.22809 10.2882 4.09184 10.6695C3.75809 10.7607 3.39434 10.8045 3.01684 10.8045C2.75434 10.8045 2.48934 10.7895 2.24059 10.7345C2.77184 12.3582 4.27934 13.552 6.07184 13.5907C4.67684 14.682 2.90559 15.3395 0.988086 15.3395C0.651836 15.3395 0.329336 15.3245 0.00683594 15.2832C1.82309 16.4545 3.97559 17.1232 6.29684 17.1232C13.8418 17.1232 17.9668 10.8732 17.9668 5.45573C17.9668 5.27448 17.9606 5.09948 17.9518 4.92573C18.7656 4.34823 19.4493 3.62698 20.0068 2.79698Z" fill="white"/>
</svg>
