<svg width="12" height="20" viewBox="0 0 12 20" fill="none" xmlns="http://www.w3.org/2000/svg">
<path fill-rule="evenodd" clip-rule="evenodd" d="M11.7007 6.80436C12.0947 6.41737 12.1004 5.78423 11.7134 5.3902L6.71345 0.299292C6.52542 0.107846 6.26834 2.50539e-07 6 2.62268e-07C5.73166 2.73998e-07 5.47458 0.107846 5.28655 0.299292L0.286551 5.3902C-0.10044 5.78423 -0.0947357 6.41737 0.299291 6.80436C0.693318 7.19135 1.32646 7.18565 1.71345 6.79162L5 3.44531L5 19C5 19.5523 5.44771 20 6 20C6.55228 20 7 19.5523 7 19L7 3.44531L10.2866 6.79162C10.6735 7.18565 11.3067 7.19135 11.7007 6.80436Z" fill="white"/>
</svg>
