<svg width="16" height="20" viewBox="0 0 16 20" fill="none" xmlns="http://www.w3.org/2000/svg">
<path fill-rule="evenodd" clip-rule="evenodd" d="M0.101692 9.56065C-0.0661111 9.90375 -0.0238296 10.3125 0.210655 10.6139L7.21065 19.6139C7.40011 19.8575 7.69142 20 8.00001 20C8.3086 20 8.5999 19.8575 8.78936 19.6139L15.7894 10.6139C16.0238 10.3125 16.0661 9.90375 15.8983 9.56065C15.7305 9.21755 15.3819 9 15 9L12 9L12 1C12 0.734784 11.8947 0.48043 11.7071 0.292894C11.5196 0.105357 11.2652 4.92419e-07 11 4.80826e-07L5.00001 6.3579e-07C4.44772 6.11649e-07 4.00001 0.447716 4.00001 1L4.00001 9L1.00001 9C0.618074 9 0.269495 9.21755 0.101692 9.56065ZM3.04465 11L5.00001 11C5.26522 11 5.51958 10.8946 5.70711 10.7071C5.89465 10.5196 6.00001 10.2652 6.00001 10L6.00001 2L10 2L10 10C10 10.5523 10.4477 11 11 11L12.9554 11L8.00001 17.3712L3.04465 11Z" fill="#FF2E63"/>
</svg>
