<svg width="16" height="20" viewBox="0 0 16 20" fill="none" xmlns="http://www.w3.org/2000/svg">
<path fill-rule="evenodd" clip-rule="evenodd" d="M0.101692 10.4394C-0.0661111 10.0963 -0.0238296 9.68754 0.210655 9.38606L7.21065 0.386058C7.40011 0.142473 7.69142 -3.36203e-07 8.00001 -3.49691e-07C8.3086 -3.6318e-07 8.5999 0.142473 8.78936 0.386058L15.7894 9.38606C16.0238 9.68754 16.0661 10.0963 15.8983 10.4394C15.7305 10.7824 15.3819 11 15 11L12 11L12 19C12 19.2652 11.8947 19.5196 11.7071 19.7071C11.5196 19.8946 11.2652 20 11 20L5.00001 20C4.44772 20 4.00001 19.5523 4.00001 19L4.00001 11L1.00001 11C0.618074 11 0.269495 10.7824 0.101692 10.4394ZM3.04465 9L5.00001 9C5.26522 9 5.51958 9.10536 5.70711 9.29289C5.89465 9.48043 6.00001 9.73478 6.00001 10L6.00001 18L10 18L10 10C10 9.44771 10.4477 9 11 9L12.9554 9L8.00001 2.62882L3.04465 9Z" fill="black"/>
</svg>
