<svg width="18" height="14" viewBox="0 0 18 14" fill="none" xmlns="http://www.w3.org/2000/svg">
<path fill-rule="evenodd" clip-rule="evenodd" d="M0.666656 2.8335C0.666656 1.45278 1.78594 0.333496 3.16666 0.333496H14.8333C16.214 0.333496 17.3333 1.45278 17.3333 2.8335V11.1668C17.3333 12.5475 16.214 13.6668 14.8333 13.6668H3.16666C1.78594 13.6668 0.666656 12.5475 0.666656 11.1668V2.8335ZM3.16666 2.00016C2.70642 2.00016 2.33332 2.37326 2.33332 2.8335V11.1668C2.33332 11.6271 2.70642 12.0002 3.16666 12.0002H14.8333C15.2936 12.0002 15.6667 11.6271 15.6667 11.1668V2.8335C15.6667 2.37326 15.2936 2.00016 14.8333 2.00016H3.16666ZM4.83332 7.00016C4.83332 9.30135 6.6988 11.1668 8.99999 11.1668C11.3012 11.1668 13.1667 9.30135 13.1667 7.00016C13.1667 4.69898 11.3012 2.8335 8.99999 2.8335C6.6988 2.8335 4.83332 4.69898 4.83332 7.00016ZM8.99999 9.50016C7.61928 9.50016 6.49999 8.38087 6.49999 7.00016C6.49999 5.61945 7.61928 4.50016 8.99999 4.50016C10.3807 4.50016 11.5 5.61945 11.5 7.00016C11.5 8.38087 10.3807 9.50016 8.99999 9.50016ZM13.1667 3.66683C13.1667 4.12707 13.5398 4.50016 14 4.50016C14.4602 4.50016 14.8333 4.12707 14.8333 3.66683C14.8333 3.20659 14.4602 2.8335 14 2.8335C13.5398 2.8335 13.1667 3.20659 13.1667 3.66683Z" fill="white"/>
</svg>
