<svg width="18" height="5" viewBox="0 0 18 5" fill="none" xmlns="http://www.w3.org/2000/svg">
<path fill-rule="evenodd" clip-rule="evenodd" d="M2 0.461914C0.895431 0.461914 0 1.34465 0 2.43357C0 3.52248 0.895431 4.40522 2 4.40522C3.10457 4.40522 4 3.52248 4 2.43357C4 1.34465 3.10457 0.461914 2 0.461914ZM9 0.461914C7.89543 0.461914 7 1.34465 7 2.43357C7 3.52248 7.89543 4.40522 9 4.40522C10.1046 4.40522 11 3.52248 11 2.43357C11 1.34465 10.1046 0.461914 9 0.461914ZM14 2.43357C14 1.34465 14.8954 0.461914 16 0.461914C17.1046 0.461914 18 1.34465 18 2.43357C18 3.52248 17.1046 4.40522 16 4.40522C14.8954 4.40522 14 3.52248 14 2.43357Z" fill="black"/>
</svg>
