<svg width="3" height="14" viewBox="0 0 3 14" fill="none" xmlns="http://www.w3.org/2000/svg">
<path fill-rule="evenodd" clip-rule="evenodd" d="M2.70801 1.57544C2.70801 0.785577 2.11105 0.145264 1.37467 0.145264C0.638295 0.145264 0.0413413 0.785577 0.0413412 1.57544C0.0413412 2.36531 0.638295 3.00562 1.37467 3.00562C2.11105 3.00562 2.70801 2.36531 2.70801 1.57544ZM2.70801 6.58107C2.70801 5.79121 2.11105 5.15089 1.37467 5.15089C0.638295 5.15089 0.0413411 5.79121 0.041341 6.58107C0.041341 7.37094 0.638295 8.01125 1.37467 8.01125C2.11105 8.01125 2.70801 7.37094 2.70801 6.58107ZM1.37467 10.1565C2.11105 10.1565 2.70801 10.7968 2.70801 11.5867C2.70801 12.3766 2.11105 13.0169 1.37467 13.0169C0.638294 13.0169 0.0413408 12.3766 0.0413408 11.5867C0.0413408 10.7968 0.638294 10.1565 1.37467 10.1565Z" fill="black"/>
</svg>
