<svg width="20" height="21" viewBox="0 0 20 21" fill="none" xmlns="http://www.w3.org/2000/svg">
<g clip-path="url(#clip0_1_15715)">
<path fill-rule="evenodd" clip-rule="evenodd" d="M4 20.1747L16 20.1747C17.6568 20.1747 19 18.8316 19 17.1747V10.1747L19 6.55413C19 5.82085 18.7314 5.11296 18.245 4.56421L16.5969 2.70475L15.3143 1.21635C14.7444 0.555023 13.9147 0.174744 13.0417 0.174744H10H4C2.34315 0.174744 1 1.51789 1 3.17474V17.1747C1 18.8316 2.34315 20.1747 4 20.1747ZM14 2.75496L15.0909 4.0209L16.1136 5.17474H14V2.75496ZM12 2.17474V6.17474C12 6.72703 12.4477 7.17474 13 7.17474H17V10.1747L17 17.1747C17 17.727 16.5523 18.1747 16 18.1747L4 18.1747C3.44772 18.1747 3 17.727 3 17.1747L3 3.17474C3 2.62246 3.44771 2.17474 4 2.17474L10 2.17474L12 2.17474Z" fill="black"/>
</g>
<defs>
<clipPath id="clip0_1_15715">
<rect width="18" height="20" fill="white" transform="translate(1 0.174744)"/>
</clipPath>
</defs>
</svg>
