<svg width="20" height="21" viewBox="0 0 20 21" fill="none" xmlns="http://www.w3.org/2000/svg">
<path d="M8.36646 12.6269C8.85067 12.1537 9.09277 11.5049 9.09277 10.6804V9.90839H6.52783V10.9543H7.62354L7.61938 11.0539C7.60002 11.3583 7.47965 11.6031 7.2583 11.7885C7.03695 11.9739 6.75334 12.0666 6.40747 12.0666C5.9703 12.0666 5.62166 11.8964 5.36157 11.5561C5.10425 11.213 4.97559 10.7468 4.97559 10.1574C4.97559 9.57359 5.09456 9.11704 5.33252 8.78778C5.57324 8.45852 5.90666 8.29388 6.33276 8.29388C6.63159 8.29388 6.88615 8.36997 7.09644 8.52216C7.30949 8.67157 7.45337 8.87771 7.52808 9.14056H9.03052C8.95581 8.50694 8.66943 7.99644 8.17139 7.60907C7.67611 7.21893 7.06323 7.02386 6.33276 7.02386C5.43351 7.02386 4.7238 7.30609 4.20361 7.87054C3.68343 8.43223 3.42334 9.20005 3.42334 10.174C3.42334 11.159 3.68481 11.9324 4.20776 12.4941C4.73071 13.0558 5.45288 13.3366 6.37427 13.3366C7.22095 13.3366 7.88501 13.1 8.36646 12.6269Z" fill="white"/>
<path d="M9.92998 13.1747H11.4532V7.18573H9.92998V13.1747Z" fill="white"/>
<path d="M12.5685 13.1747H14.0917V10.9418H16.4076V9.77557H14.0917V8.4101H16.6441V7.18573H12.5685V13.1747Z" fill="white"/>
<path fill-rule="evenodd" clip-rule="evenodd" d="M0 3.17474C0 2.07017 0.895431 1.17474 2 1.17474H18C19.1046 1.17474 20 2.07017 20 3.17474V17.1747C20 18.2793 19.1046 19.1747 18 19.1747H2C0.895431 19.1747 0 18.2793 0 17.1747V3.17474ZM2 2.67474H18C18.2761 2.67474 18.5 2.8986 18.5 3.17474V17.1747C18.5 17.4509 18.2761 17.6747 18 17.6747H2C1.72386 17.6747 1.5 17.4509 1.5 17.1747V3.17474C1.5 2.8986 1.72386 2.67474 2 2.67474Z" fill="white"/>
</svg>
