<svg width="20" height="21" viewBox="0 0 20 21" fill="none" xmlns="http://www.w3.org/2000/svg">
<g clip-path="url(#clip0_1_15697)">
<path fill-rule="evenodd" clip-rule="evenodd" d="M2.0001 0.174744C0.895532 0.174744 0.000106285 1.29403 0.000106285 2.67474V12.6577C-3.53207e-05 12.6698 -3.55361e-05 12.682 0.000106285 12.6941V13.9247C0.000106285 15.3055 0.895532 16.4247 2.0001 16.4247H3.00009V17.6747C3.00009 19.0555 3.89552 20.1747 5.00008 20.1747H18C19.1046 20.1747 20 19.0555 20 17.6747V7.67474C20 6.29403 19.1046 5.17474 18 5.17474H17V2.67474C17 1.29403 16.1046 0.174744 15 0.174744H2.0001ZM2.0001 13.3437V13.9247H4.00008H13H15V12.5675L11.9258 8.72474L7.62476 13.0258C7.32018 13.3304 6.90173 13.3858 6.55286 13.1678L4.07193 11.6172L2.0001 13.3437ZM17 12.0485C17 12.0493 17 12.0502 17 12.051V13.9247C17 15.3055 16.1046 16.4247 15 16.4247H5.00008V17.6747H18V7.67474H17V12.0485ZM15 9.03198L12.7071 6.16586C12.3468 5.71548 11.7732 5.67577 11.3754 6.07366L6.875 10.574L4.4473 9.05671C4.12633 8.8561 3.74397 8.88586 3.44539 9.13468L2.0001 10.3391V5.17474V2.67474H4.00008H13H15V5.17474V9.03198ZM5.00008 5.79974C5.00008 4.76421 5.67165 3.92474 6.50007 3.92474C7.32849 3.92474 8.00006 4.76421 8.00006 5.79974C8.00006 6.83528 7.32849 7.67474 6.50007 7.67474C5.67165 7.67474 5.00008 6.83528 5.00008 5.79974Z" fill="white"/>
</g>
<defs>
<clipPath id="clip0_1_15697">
<rect width="20" height="20" fill="white" transform="translate(0 0.174744)"/>
</clipPath>
</defs>
</svg>
