<svg width="18" height="18" viewBox="0 0 18 18" fill="none" xmlns="http://www.w3.org/2000/svg">
<path fill-rule="evenodd" clip-rule="evenodd" d="M0.666657 2.33317C0.666657 1.4127 1.41285 0.666504 2.33332 0.666504H15.6667C16.5871 0.666504 17.3333 1.4127 17.3333 2.33317V11.7993C17.3333 11.8015 17.3333 11.8037 17.3333 11.806V15.6665C17.3333 16.587 16.5871 17.3332 15.6667 17.3332H2.33332C1.41285 17.3332 0.666657 16.587 0.666657 15.6665V13.1677C0.666656 13.1669 0.666656 13.1662 0.666657 13.1655V2.33317ZM2.33332 13.5192V13.9998V15.6665H3.99999H14H15.6667V13.9998V12.1233L13.1787 9.36609L8.64261 13.7648C8.35171 14.0468 7.90006 14.0788 7.57235 13.8405L4.38932 11.5255L2.33332 13.5192ZM15.6667 9.63543L13.8374 7.60823C13.6859 7.44029 13.4726 7.34117 13.2465 7.33363C13.0204 7.3261 12.801 7.41078 12.6386 7.56825L7.98566 12.0802L4.80263 9.76529C4.47492 9.52695 4.02327 9.5589 3.73237 9.84098L2.33332 11.1976V3.99984V2.33317H3.99999H14H15.6667V3.99984V9.63543ZM6.49999 6.08317C6.49999 5.39281 7.05964 4.83317 7.74999 4.83317C8.44035 4.83317 8.99999 5.39281 8.99999 6.08317C8.99999 6.77353 8.44035 7.33317 7.74999 7.33317C7.05964 7.33317 6.49999 6.77353 6.49999 6.08317Z" fill="#fff"/>
</svg>
