<svg width="18" height="19" viewBox="0 0 18 19" fill="none" xmlns="http://www.w3.org/2000/svg">
<g clip-path="url(#clip0_16597_38696)">
<path fill-rule="evenodd" clip-rule="evenodd" d="M0.000133038 8.99846C-0.00612922 8.63013 0.209158 8.29399 0.54634 8.14563L16.7168 1.03062C17.0621 0.878682 17.4653 0.954316 17.7321 1.22107C17.9988 1.48783 18.0744 1.89099 17.9225 2.23629L10.8075 18.4068C10.6591 18.744 10.323 18.9593 9.95467 18.953C9.58634 18.9467 9.25771 18.7201 9.1209 18.3781L6.67922 12.2739L0.575016 9.83222C0.232985 9.69541 0.00639528 9.36678 0.000133038 8.99846ZM8.45627 11.7905L10.0104 15.6758L14.2842 5.96256L8.45627 11.7905ZM12.9906 4.66892L7.16263 10.4969L3.27734 8.94274L12.9906 4.66892Z" fill="#9B9FA9"/>
</g>
<defs>
<clipPath id="clip0_16597_38696">
<rect width="18" height="18" fill="white" transform="translate(0 0.953125)"/>
</clipPath>
</defs>
</svg>
