<clipPath id="clip0_16660_96348">
<svg width="20" height="20" viewBox="0 0 20 20" fill="none" xmlns="http://www.w3.org/2000/svg">
  <g clip-path="url(#clip0_16660_96348)">
    <path fill-rule="evenodd" clip-rule="evenodd"
      d="M19.7325 0.352414C20.0117 0.684246 20.0809 1.17146 19.9074 1.58274L12.4067 19.3605C12.2534 19.7237 11.9359 19.9669 11.5759 19.9969C11.2159 20.0269 10.8693 19.839 10.669 19.5052L8.80726 16.4026L5.99673 18.1869C5.68719 18.3834 5.30691 18.382 4.99856 18.1832C4.69022 17.9844 4.50044 17.6183 4.50044 17.2222V11.8332L0.593921 9.90425C0.224901 9.72204 -0.00927443 9.31114 0.000281838 8.86261C0.00983811 8.41409 0.261251 8.01596 0.637618 7.85335L18.6394 0.0755911C19.0204 -0.0890409 19.4533 0.0205817 19.7325 0.352414ZM6.50064 12.9089L6.81593 13.0841L7.69512 14.5493L6.50064 15.3076V12.9089ZM8.82092 12.4193L11.3488 16.632L16.0886 5.39801L8.82092 12.4193ZM14.0122 4.45911L3.60108 8.95731L5.90672 10.0958C5.92055 10.1026 5.93425 10.1098 5.9478 10.1173L7.34946 10.8959L14.0122 4.45911Z"
      fill="black" />
  </g>
  <defs>
    <clipPath id="clip0_16660_96348">
      <rect width="20" height="20" fill="white" />
    </clipPath>
  </defs>
</svg>