<svg width="18" height="18" viewBox="0 0 18 18" fill="none" xmlns="http://www.w3.org/2000/svg">
<path fill-rule="evenodd" clip-rule="evenodd" d="M14 7.33366C13.3175 7.33366 12.6829 7.12856 12.1545 6.77664L7.52997 9.01145L12.0096 11.3262C12.565 10.9121 13.2539 10.667 14 10.667C15.8409 10.667 17.3333 12.1594 17.3333 14.0003C17.3333 15.8413 15.8409 17.3337 14 17.3337C12.159 17.3337 10.6666 15.8413 10.6666 14.0003C10.6666 13.5214 10.7676 13.0661 10.9495 12.6545L6.93573 10.5804C6.37271 11.6243 5.26917 12.3337 3.99996 12.3337C2.15901 12.3337 0.666626 10.8413 0.666626 9.00033C0.666626 7.15938 2.15901 5.66699 3.99996 5.66699C5.27795 5.66699 6.38796 6.38619 6.94733 7.44194L11.0113 5.47806C10.7906 5.03271 10.6666 4.531 10.6666 4.00033C10.6666 2.15938 12.159 0.666992 14 0.666992C15.8409 0.666992 17.3333 2.15938 17.3333 4.00033C17.3333 5.84127 15.8409 7.33366 14 7.33366ZM14 2.33366C13.0795 2.33366 12.3333 3.07985 12.3333 4.00033C12.3333 4.9208 13.0795 5.66699 14 5.66699C14.9204 5.66699 15.6666 4.9208 15.6666 4.00033C15.6666 3.07985 14.9204 2.33366 14 2.33366ZM3.99996 7.33366C3.07948 7.33366 2.33329 8.07985 2.33329 9.00033C2.33329 9.9208 3.07948 10.667 3.99996 10.667C4.92043 10.667 5.66663 9.9208 5.66663 9.00033C5.66663 8.07985 4.92043 7.33366 3.99996 7.33366ZM12.3333 14.0003C12.3333 13.0799 13.0795 12.3337 14 12.3337C14.9204 12.3337 15.6666 13.0799 15.6666 14.0003C15.6666 14.9208 14.9204 15.667 14 15.667C13.0795 15.667 12.3333 14.9208 12.3333 14.0003Z" fill="black"/>
</svg>
