<svg width="20" height="20" viewBox="0 0 20 20" fill="none" xmlns="http://www.w3.org/2000/svg">
<g clip-path="url(#clip0_16660_96369)">
<path fill-rule="evenodd" clip-rule="evenodd" d="M4.28655 5.3902C3.89956 5.78423 3.90527 6.41737 4.29929 6.80436C4.69332 7.19135 5.32646 7.18565 5.71345 6.79162L9 3.44531V13C9 13.5523 9.44772 14 10 14C10.5523 14 11 13.5523 11 13V3.44531L14.2866 6.79162C14.6735 7.18565 15.3067 7.19135 15.7007 6.80436C16.0947 6.41737 16.1004 5.78423 15.7134 5.3902L10.7134 0.299292C10.5254 0.107845 10.2683 0 10 0C9.73166 0 9.47458 0.107845 9.28655 0.299292L4.28655 5.3902ZM2 10C2 9.44771 1.55228 9 1 9C0.447715 9 0 9.44771 0 10V19C0 19.5523 0.447715 20 1 20H19C19.5523 20 20 19.5523 20 19V10C20 9.44771 19.5523 9 19 9C18.4477 9 18 9.44771 18 10V18H2V10Z" fill="black"/>
</g>
<defs>
<clipPath id="clip0_16660_96369">
<rect width="20" height="20" fill="white"/>
</clipPath>
</defs>
</svg>
