<svg width="20" height="20" viewBox="0 0 20 20" fill="none" xmlns="http://www.w3.org/2000/svg">
<g clip-path="url(#clip0_16597_16003)">
<path fill-rule="evenodd" clip-rule="evenodd" d="M14.3388 3L14.0742 3C14.0742 1.34315 12.7062 0 11.0187 0H8.98164C7.29411 0 5.92609 1.34315 5.92609 3L5.25721 3L4.90757 3L4.90636 3L1.85201 3C1.2895 3 0.833496 3.44772 0.833496 4C0.833496 4.55229 1.2895 5 1.85201 5L2.87053 5L2.87053 17C2.87053 18.6569 4.23855 20 5.92609 20H14.0742C15.7618 20 17.1298 18.6569 17.1298 17L17.1298 5L18.1483 5C18.7108 5 19.1668 4.55228 19.1668 4C19.1668 3.44771 18.7108 3 18.1483 3L15.0946 3L15.0928 3L14.3388 3ZM15.0928 5H13.0557L12.0372 5L7.96313 5L6.94461 5L4.90757 5L4.90757 7L4.90757 17C4.90757 17.5523 5.36358 18 5.92609 18H14.0742C14.6367 18 15.0928 17.5523 15.0928 17L15.0928 7V5ZM7.96313 3H8.98164H10.0002L11.0187 3H12.0372C12.0372 2.44772 11.5812 2 11.0187 2L8.98164 2C8.41913 2 7.96313 2.44772 7.96313 3ZM7.96313 7C8.52564 7 8.98164 7.44772 8.98164 8V15C8.98164 15.5523 8.52564 16 7.96313 16C7.40061 16 6.94461 15.5523 6.94461 15V8C6.94461 7.44772 7.40061 7 7.96313 7ZM13.0557 8C13.0557 7.44772 12.5997 7 12.0372 7C11.4747 7 11.0187 7.44772 11.0187 8V15C11.0187 15.5523 11.4747 16 12.0372 16C12.5997 16 13.0557 15.5523 13.0557 15V8Z" fill="#FF2E63"/>
</g>
<defs>
<clipPath id="clip0_16597_16003">
<rect width="20" height="20" fill="white"/>
</clipPath>
</defs>
</svg>
