<svg width="18" height="18" viewBox="0 0 18 18" fill="none" xmlns="http://www.w3.org/2000/svg">
<path fill-rule="evenodd" clip-rule="evenodd" d="M8.99999 17.3332C4.39762 17.3332 0.666656 13.6022 0.666656 8.99984C0.666656 4.39746 4.39762 0.666504 8.99999 0.666504C13.6024 0.666504 17.3333 4.39746 17.3333 8.99984C17.3333 13.6022 13.6024 17.3332 8.99999 17.3332ZM8.99999 2.33317C5.31809 2.33317 2.33332 5.31794 2.33332 8.99984C2.33332 11.1052 3.30922 12.9825 4.83332 14.2043V13.8808C4.83332 12.4769 5.54804 11.24 6.63346 10.514C6.03583 9.91153 5.66666 9.08213 5.66666 8.1665C5.66666 6.32556 7.15904 4.83317 8.99999 4.83317C10.8409 4.83317 12.3333 6.32556 12.3333 8.1665C12.3333 9.08213 11.9641 9.91153 11.3665 10.514C12.4519 11.24 13.1667 12.4769 13.1667 13.8808V14.2043C14.6908 12.9825 15.6667 11.1052 15.6667 8.99984C15.6667 5.31794 12.6819 2.33317 8.99999 2.33317ZM11.5 15.1819V13.8808C11.5 12.5658 10.434 11.4998 9.11904 11.4998H8.99999H8.88094C7.56598 11.4998 6.49999 12.5658 6.49999 13.8808V15.1819C7.27202 15.4944 8.11591 15.6665 8.99999 15.6665C9.88407 15.6665 10.728 15.4944 11.5 15.1819ZM8.99999 9.83317C9.92046 9.83317 10.6667 9.08698 10.6667 8.1665C10.6667 7.24603 9.92046 6.49984 8.99999 6.49984C8.07952 6.49984 7.33332 7.24603 7.33332 8.1665C7.33332 9.08698 8.07952 9.83317 8.99999 9.83317Z" fill="white"/>
</svg>
