<svg width="24" height="26" viewBox="0 0 24 26" fill="none" xmlns="http://www.w3.org/2000/svg">
<path fill-rule="evenodd" clip-rule="evenodd" d="M18.5657 18.8231C18.1111 19.3427 17.3214 19.3953 16.8019 18.9407C16.2823 18.4861 16.2297 17.6964 16.6843 17.1769L19.2453 14.25L7 14.25C6.30965 14.25 5.75 13.6904 5.75 13C5.75 12.3096 6.30965 11.75 7 11.75L19.2453 11.75L16.6843 8.82313C16.2297 8.30359 16.2823 7.51388 16.8019 7.05928C17.3214 6.60468 18.1111 6.65732 18.5657 7.17687L22.9407 12.1769C23.3531 12.6482 23.3531 13.3518 22.9407 13.8231L18.5657 18.8231ZM11.5 3C12.1904 3 12.75 2.44036 12.75 1.75C12.75 1.05964 12.1904 0.500001 11.5 0.500001L3.25 0.500001C1.86929 0.500001 0.750002 1.61929 0.750002 3L0.750003 23C0.750003 24.3807 1.86929 25.5 3.25 25.5L11.5 25.5C12.1904 25.5 12.75 24.9404 12.75 24.25C12.75 23.5596 12.1904 23 11.5 23L3.25 23L3.25 3L11.5 3Z" fill="#FF2E63"/>
</svg>
