<svg width="24" height="24" viewBox="0 0 24 24" fill="none" xmlns="http://www.w3.org/2000/svg">
<rect width="24" height="24" fill="transparent"/>
<path fill-rule="evenodd" clip-rule="evenodd" d="M8.27208 18.6508C7.82059 19.1105 7.08193 19.1172 6.62223 18.6657L0.682835 12.8324C0.459482 12.613 0.333662 12.3131 0.333662 12C0.333662 11.6869 0.459482 11.387 0.682835 11.1676L6.62223 5.33431C7.08193 4.88282 7.82059 4.88948 8.27208 5.34918C8.72357 5.80887 8.71691 6.54754 8.25722 6.99902L4.35319 10.8333L22.5003 10.8333C23.1447 10.8333 23.667 11.3557 23.667 12C23.667 12.6443 23.1447 13.1667 22.5003 13.1667L4.35319 13.1667L8.25722 17.001C8.71691 17.4525 8.72357 18.1911 8.27208 18.6508Z" fill="white"/>
</svg>
