<svg width="14" height="20" viewBox="0 0 14 20" fill="none" xmlns="http://www.w3.org/2000/svg">
<path fill-rule="evenodd" clip-rule="evenodd" d="M11.3013 9.85526L7 16.9501L2.69873 9.85526C0.612492 6.41407 3.03643 1.97091 7 1.97091C10.9636 1.97091 13.3875 6.41407 11.3013 9.85526ZM1.05757 10.8927C-1.82468 6.13846 1.52412 0 7 0C12.4759 0 15.8247 6.13846 12.9424 10.8927L7.64269 19.6344C7.34718 20.1219 6.65282 20.1219 6.35731 19.6344L1.05757 10.8927ZM7.00019 4.92727C5.93419 4.92727 5.07002 5.80967 5.07002 6.89818C5.07002 7.98668 5.93419 8.86908 7.00019 8.86908C8.0662 8.86908 8.93037 7.98668 8.93037 6.89818C8.93037 5.80967 8.0662 4.92727 7.00019 4.92727Z" fill="#fff"/>
</svg>
