<svg width="18" height="18" viewBox="0 0 18 18" fill="none" xmlns="http://www.w3.org/2000/svg">
<path fill-rule="evenodd" clip-rule="evenodd" d="M0.666706 6.91667C0.666706 10.3685 3.46493 13.1667 6.91671 13.1667C8.35974 13.1667 9.68855 12.6776 10.7464 11.8562C10.7863 11.9405 10.8411 12.0195 10.9108 12.0893L15.9108 17.0893C16.2362 17.4147 16.7639 17.4147 17.0893 17.0893C17.4147 16.7638 17.4147 16.2362 17.0893 15.9108L12.0893 10.9107C12.0196 10.841 11.9406 10.7862 11.8563 10.7464C12.6777 9.68851 13.1667 8.3597 13.1667 6.91667C13.1667 3.46489 10.3685 0.666672 6.91671 0.666672C3.46493 0.666672 0.666706 3.46489 0.666706 6.91667ZM2.33337 6.91667C2.33337 4.38537 4.3854 2.33334 6.91671 2.33334C9.44801 2.33334 11.5 4.38537 11.5 6.91667C11.5 9.44798 9.44801 11.5 6.91671 11.5C4.3854 11.5 2.33337 9.44798 2.33337 6.91667Z" fill="black"/>
</svg>
