<svg width="16" height="16" viewBox="0 0 16 16" fill="none" xmlns="http://www.w3.org/2000/svg">
<path fill-rule="evenodd" clip-rule="evenodd" d="M0.5 8C0.5 12.1421 3.85786 15.5 8 15.5C12.1421 15.5 15.5 12.1421 15.5 8C15.5 3.85786 12.1421 0.5 8 0.5C3.85786 0.5 0.5 3.85786 0.5 8ZM2 8C2 4.68629 4.68629 2 8 2C11.3137 2 14 4.68629 14 8C14 11.3137 11.3137 14 8 14C4.68629 14 2 11.3137 2 8ZM7.99991 3.3125C7.48832 3.3125 7.07943 3.73807 7.09988 4.24925L7.26868 8.46931C7.28438 8.86179 7.60712 9.17188 7.99991 9.17188C8.3927 9.17188 8.71544 8.86179 8.73114 8.46931L8.89994 4.24925C8.92039 3.73807 8.5115 3.3125 7.99991 3.3125ZM6.92188 11.3984C6.92188 10.8159 7.39407 10.3438 7.97656 10.3438C8.55905 10.3438 9.03125 10.8159 9.03125 11.3984C9.03125 11.9809 8.55905 12.4531 7.97656 12.4531C7.39407 12.4531 6.92188 11.9809 6.92188 11.3984Z" fill="#828282"/>
</svg>
